<svg xmlns="http://www.w3.org/2000/svg" xmlns:xlink="http://www.w3.org/1999/xlink" viewBox="0 0 1280 1280"><defs><radialGradient id="f13b6ab7-ed52-4ac0-866e-47da2505a391" cx="640" cy="640" r="441.45" gradientUnits="userSpaceOnUse"><stop offset="0" stop-color="#fcea10"/><stop offset="0.1" stop-color="#fcea10" stop-opacity="0.82"/><stop offset="0.23" stop-color="#fcea10" stop-opacity="0.6"/><stop offset="0.37" stop-color="#fcea10" stop-opacity="0.42"/><stop offset="0.5" stop-color="#fcea10" stop-opacity="0.27"/><stop offset="0.63" stop-color="#fcea10" stop-opacity="0.15"/><stop offset="0.76" stop-color="#fcea10" stop-opacity="0.07"/><stop offset="0.88" stop-color="#fcea10" stop-opacity="0.02"/><stop offset="1" stop-color="#fcea10" stop-opacity="0"/></radialGradient><radialGradient id="eed8288f-15ef-4ea1-bb1f-aefdc1d10066" cx="312.01" cy="662.63" r="235.87" gradientUnits="userSpaceOnUse"><stop offset="0" stop-color="#fcac00"/><stop offset="1" stop-color="#ff7300"/></radialGradient><radialGradient id="afd0727c-4537-430f-aa56-f2ca404f3f5e" cx="776.64" cy="325.1" r="578" xlink:href="#eed8288f-15ef-4ea1-bb1f-aefdc1d10066"/><radialGradient id="a6cb4906-2ec9-45d9-8b9e-07ff8ff67c57" cx="872.41" cy="1002.74" r="1086.19" xlink:href="#eed8288f-15ef-4ea1-bb1f-aefdc1d10066"/><radialGradient id="a21ba5ad-b8ff-40ba-8e2d-9e107ec89acb" cx="837.49" cy="401.37" r="113.06" gradientUnits="userSpaceOnUse"><stop offset="0" stop-color="#fff"/><stop offset="0.1" stop-color="#fffdf9"/><stop offset="0.22" stop-color="#fef6e9"/><stop offset="0.36" stop-color="#fdeacf"/><stop offset="0.51" stop-color="#fbdbaa"/><stop offset="0.67" stop-color="#f9c67a"/><stop offset="0.84" stop-color="#f6ae41"/><stop offset="1" stop-color="#f39200"/></radialGradient><radialGradient id="bb60b7ba-24d6-4a6c-be92-9ed8686171bd" cx="419.33" cy="613.32" r="604.8" xlink:href="#a21ba5ad-b8ff-40ba-8e2d-9e107ec89acb"/><radialGradient id="b589f60d-1509-475d-a745-9f32cb1e1535" cx="681.75" cy="873.53" r="389.82" gradientUnits="userSpaceOnUse"><stop offset="0.58"/><stop offset="0.74" stop-color="#020201"/><stop offset="0.79" stop-color="#090805"/><stop offset="0.83" stop-color="#14130b"/><stop offset="0.87" stop-color="#252315"/><stop offset="0.89" stop-color="#3b3721"/><stop offset="0.92" stop-color="#575131"/><stop offset="0.94" stop-color="#776f43"/><stop offset="0.96" stop-color="#9d9258"/><stop offset="0.98" stop-color="#c8bb70"/><stop offset="1" stop-color="#f6e58a"/><stop offset="1" stop-color="#ffee8f"/></radialGradient><radialGradient id="becc6d75-9e0a-49f5-a25c-c8b6a64b1798" cx="549.53" cy="261.08" r="840.18" gradientUnits="userSpaceOnUse"><stop offset="0" stop-color="#fcf800"/><stop offset="1" stop-color="#fc9700"/></radialGradient><radialGradient id="a0d7fbd1-4cd2-45c1-a713-fab71656d27e" cx="671.22" cy="411.93" r="221.62" gradientUnits="userSpaceOnUse"><stop offset="0" stop-color="#fff"/><stop offset="0.1" stop-color="#fffdf9"/><stop offset="0.22" stop-color="#fff7e9"/><stop offset="0.36" stop-color="#ffeccf"/><stop offset="0.51" stop-color="#ffdeaa"/><stop offset="0.67" stop-color="#ffcc7a"/><stop offset="0.84" stop-color="#ffb641"/><stop offset="1" stop-color="#ff9d00"/></radialGradient><radialGradient id="e159188a-1f53-440d-88ef-d37e9abc4138" cx="414.22" cy="712.72" r="212.58" xlink:href="#a0d7fbd1-4cd2-45c1-a713-fab71656d27e"/><radialGradient id="b888e0f6-9e7e-43d5-a2ff-073bd5ec19c4" cx="776.78" cy="445.91" r="445.6" gradientUnits="userSpaceOnUse"><stop offset="0"/><stop offset="0.08" stop-color="#232112"/><stop offset="0.22" stop-color="#5c582e"/><stop offset="0.36" stop-color="#8e8747"/><stop offset="0.5" stop-color="#b7ae5c"/><stop offset="0.64" stop-color="#d6cc6c"/><stop offset="0.77" stop-color="#ede277"/><stop offset="0.89" stop-color="#faef7e"/><stop offset="1" stop-color="#fff380"/></radialGradient><radialGradient id="a273059c-e51f-49df-90d6-006a790d2664" cx="1005.21" cy="1366.06" r="896.15" gradientUnits="userSpaceOnUse"><stop offset="0" stop-color="#ffd000"/><stop offset="0.11" stop-color="#facc00"/><stop offset="0.23" stop-color="#edc100"/><stop offset="0.36" stop-color="#d6af00"/><stop offset="0.5" stop-color="#b79500"/><stop offset="0.64" stop-color="#8e7400"/><stop offset="0.78" stop-color="#5c4b00"/><stop offset="0.92" stop-color="#231c00"/><stop offset="1"/></radialGradient><linearGradient id="bfe33b05-a9f7-4f33-90b7-8d539b891e1b" x1="645.92" y1="228.15" x2="394.61" y2="707.52" gradientUnits="userSpaceOnUse"><stop offset="0" stop-color="#fffacf"/><stop offset="1"/></linearGradient><linearGradient id="ba038bae-46f6-41cf-bf68-10c71bc343d0" x1="689.5" y1="557.49" x2="853.18" y2="557.49" xlink:href="#bfe33b05-a9f7-4f33-90b7-8d539b891e1b"/><radialGradient id="b5a2c53c-4d5f-47fd-b4c0-5dcd941aeed0" cx="367.45" cy="446.18" r="655.34" gradientUnits="userSpaceOnUse"><stop offset="0" stop-color="aqua"/><stop offset="0.11" stop-color="#00fafa"/><stop offset="0.23" stop-color="#00eded"/><stop offset="0.36" stop-color="#00d6d6"/><stop offset="0.5" stop-color="#00b7b7"/><stop offset="0.64" stop-color="#008e8e"/><stop offset="0.78" stop-color="#005c5c"/><stop offset="0.92" stop-color="#002323"/><stop offset="1"/></radialGradient><radialGradient id="b94f1ad9-da01-4483-8c94-0ca65bd6b1da" cx="231.36" cy="360.56" r="619.47" gradientUnits="userSpaceOnUse"><stop offset="0" stop-color="#fff261"/><stop offset="0.11" stop-color="#faee5f"/><stop offset="0.23" stop-color="#ede15a"/><stop offset="0.36" stop-color="#d6cb52"/><stop offset="0.5" stop-color="#b7ad46"/><stop offset="0.64" stop-color="#8e8736"/><stop offset="0.78" stop-color="#5c5823"/><stop offset="0.92" stop-color="#23210d"/><stop offset="1"/></radialGradient><radialGradient id="bcb880ea-1c1c-4f16-9d42-a3d3499d7980" cx="626.69" cy="309.06" r="197.49" gradientUnits="userSpaceOnUse"><stop offset="0" stop-color="#fcea10"/><stop offset="0.1" stop-color="#fcea10" stop-opacity="0.82"/><stop offset="0.23" stop-color="#fcea10" stop-opacity="0.6"/><stop offset="0.36" stop-color="#fcea10" stop-opacity="0.42"/><stop offset="0.5" stop-color="#fcea10" stop-opacity="0.27"/><stop offset="0.63" stop-color="#fcea10" stop-opacity="0.15"/><stop offset="0.75" stop-color="#fcea10" stop-opacity="0.07"/><stop offset="0.88" stop-color="#fcea10" stop-opacity="0.02"/><stop offset="1" stop-color="#fcea10" stop-opacity="0"/></radialGradient></defs><g style="isolation:isolate"><g id="a4851d87-399f-493e-b8db-6e8ad1095f67" data-name="Warstwa 2"><g id="b32bfd3d-cf3e-4506-b555-4970028208e7" data-name="Warstwa 1"><rect width="1280" height="1280" style="fill:none"/><circle cx="640" cy="640" r="441.45" style="mix-blend-mode:screen;fill:url(#f13b6ab7-ed52-4ac0-866e-47da2505a391)"/><path d="M516.34,709.05c-36.64,3-110.64,3.32-148.41,1.32a12.6,12.6,0,0,1-10.05-5.66c4.63,8.52,23.43,34.39,33.05,44.07,2.35,3.4,26.37,32.18,30.52,32.4,16.36.87,39.53,1.29,63.51,1.26,10.39-25.06,21-49.85,31.38-73.39Z" style="fill-rule:evenodd;fill:url(#eed8288f-15ef-4ea1-bb1f-aefdc1d10066)"/><path d="M862.85,279.07C811.11,361.6,746.35,459.36,690.36,541.5c29.3-1.4,67.75-2.29,103-2.46,42.35-63.32,86-130.13,123-189.16,2.38-3.79,2-9.71.83-12.24-5.89-13-45.43-64.21-55.89-74.41l0,0h0l0,0,0,.05.06.07,0,0,.09.1h0l0,0,.09.1h0l0,0,0,.05,0,.06h0l0,0,0,.05,0,0h0l0,0,.09.11h0l0,0,0,.06,0,.05h0l0,0,.08.11h0l0,.05,0,.05,0,.06h0l0,0,0,.06,0,.06h0l0,0,.08.11h0l0,.05,0,.06,0,.06h0l0,.05,0,.06,0,.06h0l0,.05,0,.06,0,.06h0l0,.06,0,.06,0,.06h0l0,0,0,.07,0,.06h0l0,.06,0,.06,0,.06h0l0,.06,0,.06,0,.06h0l0,.06,0,.06,0,.06h0l0,.06,0,.07,0,.06h0v0l.08.17a12.63,12.63,0,0,1-.83,12.24Z" style="fill-rule:evenodd;fill:url(#afd0727c-4537-430f-aa56-f2ca404f3f5e)"/><path d="M868.58,560.59C735.09,733.88,587,904.11,446.3,1048.76c-20.3,20.87-55,52.29-62.19,48.53a3,3,0,0,1-.33-.21h0a3.61,3.61,0,0,1-.58-.53c3,5.79,45.33,62.33,53.23,70.39a6.41,6.41,0,0,0,1.2,1.16c7.17,3.86,41.89-27.66,62.19-48.53C640.46,974.93,788.6,804.68,922.1,631.4c3-3.93,2.62-10.7,1.35-13.38s-.93-1.72-1.51-2.46c-6-9.79-42.26-57.95-52.62-69.48l0,0v0h0l0,0h0v.06l0,.05h0v.06h0v0l.08.14h0c.06.11.12.24.19.36h0l0,0h0v.06h0v.08h0v0a12.59,12.59,0,0,1-1.35,13.38Z" style="fill-rule:evenodd;fill:url(#a6cb4906-2ec9-45d9-8b9e-07ff8ff67c57)"/><path d="M860.76,282.4c12.6,10.64,28.42,29.33,30.19,42.75,7.23,55-45.42,127.24-74.37,167.46-22.53,31.3-39.26,42.39-59.72,46.84,12.21-.22,24.53-.35,36.49-.41,42.35-63.32,86-130.13,123-189.16,2.38-3.79,2-9.71.83-12.24-5.87-13-45.29-64-55.83-74.35l0,0,0,.05.06.07,0,0,.09.1h0l0,0,.09.1h0l0,0,0,.05,0,.06h0l0,0,0,.05,0,0h0l0,0,.09.11h0l0,0,0,.06,0,.05h0l0,0,.08.11h0l0,.05,0,.05,0,.06h0l0,0,0,.06,0,.06h0l0,0,.08.11h0l0,.05,0,.06,0,.06h0l0,.05,0,.06,0,.07,0,.05,0,.06,0,.06,0,.06,0,.06,0,.06,0,0,0,.07,0,.06,0,.06,0,.06,0,.06,0,.06,0,.06,0,.07,0,.06,0,.06,0,.06,0,.06,0,.07,0,.06v0l.08.17a12.63,12.63,0,0,1-.83,12.24c-.69,1.11-1.38,2.22-2.09,3.33Z" style="fill-rule:evenodd;opacity:0.5;mix-blend-mode:multiply;fill:url(#a21ba5ad-b8ff-40ba-8e2d-9e107ec89acb)"/><path d="M921.94,615.56c-5.15-8.37-32.41-44.81-46.66-62.4,28.85,60.38,28.87,82.14-10.61,135.24-48.66,65.44-98.6,130-151.14,192.36-48,57-98,112.52-150.45,165.57a566,566,0,0,1-76.94,64.58c-32,22.5-63.82,22-86.34,9,13.76,18.58,31.75,42,36.63,47a6.41,6.41,0,0,0,1.2,1.16c7.17,3.86,41.89-27.66,62.19-48.53C640.46,974.93,788.6,804.68,922.1,631.4c3-3.93,2.62-10.7,1.35-13.38s-.93-1.72-1.51-2.46Z" style="fill-rule:evenodd;opacity:0.5;mix-blend-mode:multiply;fill:url(#bb60b7ba-24d6-4a6c-be92-9ed8686171bd)"/><path d="M475.2,1143.23c-6.11,3.22-13.54,5.21-17.3,2.36-6.84-5.17-32.63-39.17-37.19-46.49l-1.22-2c-4-6.57-2.32-15.76.77-23.42-16,14.24-31.58,26-36.15,23.6a3.19,3.19,0,0,1-.91-.74c3,5.79,45.33,62.33,53.23,70.39a6.41,6.41,0,0,0,1.2,1.16c4.66,2.54,21.1-10.07,37.57-24.87ZM853.32,583c5.53-2.46,11.57-3.64,14.84-1.16q.87.66,1.71,1.35c6.61,5.53,32.23,39.75,36.7,47.13,3.55,5.87,2.61,13.81.17,20.9q7.71-9.91,15.36-19.84c3-3.93,2.62-10.7,1.35-13.38s-.93-1.72-1.51-2.46c-6-9.79-42.26-57.95-52.62-69.48.22.36.42.74.61,1.13a12.59,12.59,0,0,1-1.35,13.38q-8.64,11.22-17.37,22.42c-.45.59-.91,1.18-1.37,1.76,1.11-.62,2.29-1.21,3.48-1.75Z" style="fill-rule:evenodd;mix-blend-mode:screen;fill:url(#b589f60d-1509-475d-a745-9f32cb1e1535)"/><path d="M583.48,260.69c54.61-11.52,200.11-12.82,270.47-1.33a13,13,0,0,1,8.9,19.71C811.11,361.6,746.35,459.36,690.36,541.5c49.91-2.39,126.34-3.28,168.33-1.69a13,13,0,0,1,9.89,20.78C735.09,733.88,587,904.11,446.3,1048.76c-20.3,20.87-55,52.29-62.19,48.53s3.65-41.54,8.18-60.24c13.62-56.27,71.1-208.23,124.05-328-36.64,3-110.64,3.32-148.41,1.32a13,13,0,0,1-11.63-17.09C393,584.05,511.66,349,567.77,270.93a25,25,0,0,1,15.71-10.24Z" style="fill-rule:evenodd;fill:url(#becc6d75-9e0a-49f5-a25c-c8b6a64b1798)"/><path d="M842.43,465c-36.22,32.66-106,54-121.84,31.95-10.27,15.24-20.38,30.16-30.23,44.6,29.3-1.4,67.75-2.29,103-2.46,16.32-24.4,32.83-49.31,49.08-74.09Z" style="fill-rule:evenodd;mix-blend-mode:multiply;fill:url(#a0d7fbd1-4cd2-45c1-a713-fab71656d27e)"/><path d="M464,711.29c19.84,15.39-10.81,64-50.93,63.07,3.87,3.95,7.06,6.75,8.34,6.82,16.36.87,39.53,1.29,63.51,1.26,10.39-25.06,21-49.85,31.38-73.39-13.56,1.1-32.24,1.84-52.3,2.24Z" style="fill-rule:evenodd;mix-blend-mode:multiply;fill:url(#e159188a-1f53-440d-88ef-d37e9abc4138)"/><path d="M588.23,321.13c57.25-9.44,135.07-10.49,193-4.12,8.29.91,17,3.59,23.36,8.93,12.84,10.7,4.08,34.33-7.09,55,22.9-35.05,45.09-69.62,65.31-101.86a13,13,0,0,0-8.9-19.71c-70.36-11.49-215.86-10.19-270.47,1.33a25,25,0,0,0-15.71,10.24C541,308.11,500.1,381,460.6,458.84,488.23,412,546.65,328,588.23,321.13Z" style="fill-rule:evenodd;mix-blend-mode:screen;fill:url(#b888e0f6-9e7e-43d5-a2ff-073bd5ec19c4)"/><path d="M383.78,1097.08a3,3,0,0,0,.33.21,3,3,0,0,1-.33-.21ZM858.69,539.81c-13.6-.51-30.81-.77-49.57-.8,31.45,10.17,31.51,33.25,6.16,66.19-68.06,88.45-249.19,308.78-338,373.73-44.95,32.87-59.55,12.06-61.34-17.36-11.1,31.75-19.46,58.15-23.65,75.48-4.32,17.84-14.54,53-9.09,59.5a3.61,3.61,0,0,0,.58.53,3,3,0,0,0,.33.21c4.57,2.39,20.17-9.36,36.15-23.6,9.23-8.23,18.6-17.29,26-24.93,134.1-137.91,275-299.09,403.54-464q9.42-12.07,18.74-24.18a12.59,12.59,0,0,0,1.35-13.38v0h0v-.08h0v0a0,0,0,0,1,0,0h0l0,0c-.06-.12-.13-.25-.19-.38h0l-.08-.14v0h0l0,0v0h0l0-.05v-.06l-.08-.13a12.63,12.63,0,0,0-10.63-6.27Z" style="fill-rule:evenodd;mix-blend-mode:screen;fill:url(#a273059c-e51f-49df-90d6-006a790d2664)"/><path d="M597.5,268.23c-6.92,1.42-14.3,3.86-19.23,8.93-43.86,45.09-150,253-165.56,308.12-1.06,3.75-2.43,10.24.59,12.71,4.29,3.5,10.88-5.61,13.11-9.13,39.19-61.79,74.07-126.24,112.7-188.38,19.35-31.13,42.24-66.79,64.58-95.84,14.09-18.32,40.55-23.35,61.07-29.09,29.33-8.21,17.44-15.41-3.73-14.49-20.24.88-42.84,2.91-63.53,7.17Z" style="fill-rule:evenodd;mix-blend-mode:screen;fill:url(#bfe33b05-a9f7-4f33-90b7-8d539b891e1b)"/><path d="M844.23,543.46c-47.85-.45-95.75-.44-143.59,1.91-23.31,1.14-5.29,24.91,11,26,37.67,2.42,94.25-5.78,131.21-17.54,3.95-1.26,9.76-2.91,10.31-7,.42-3.16-5.74-3.28-8.93-3.31Z" style="fill-rule:evenodd;mix-blend-mode:screen;fill:url(#ba038bae-46f6-41cf-bf68-10c71bc343d0)"/><path d="M435,1060C432,1112.31,552,1015.93,579.24,991c92.35-84.69,202.54-202,265.18-311.9,21.55-37.8,24.26-86.7-7.42-77.9-124.08,158-259,311.87-387.73,444.51l-3,3.07c-3.43,3.53-7.28,7.36-11.34,11.28Z" style="fill-rule:evenodd;opacity:0.5;mix-blend-mode:screen;fill:url(#b5a2c53c-4d5f-47fd-b4c0-5dcd941aeed0)"/><path d="M602.12,362.07c-12.62,9.36-25,20.11-33,33.67-44.1,75.32-82,154.09-122.29,231.52-8.38,16.12-17.75,46.76,12.37,49.46,35.13,3.16,70.53,0,105.8,0C528.53,756.39,484.52,838,459.91,922c-7.6,25.93,13.57,26.43,30.23,11,77.1-71.51,212-219.17,266.55-313.27,14.27-24.61-9.88-36.36-30.23-37.1-29.52-1.07-59.08.92-88.62,1.38,34.35-55.88,70.31-110.79,103-167.63a73.46,73.46,0,0,0,8.93-26.79c1.81-13.64-3.85-25.91-13.74-35-15.18-14-57.15-14.59-91.44-7.92-17.9,3.48-33.7,8.93-42.52,15.47Z" style="fill-rule:evenodd;mix-blend-mode:screen;fill:url(#b94f1ad9-da01-4483-8c94-0ca65bd6b1da)"/><circle cx="626.69" cy="309.06" r="197.49" style="opacity:0.75;mix-blend-mode:screen;fill:url(#bcb880ea-1c1c-4f16-9d42-a3d3499d7980)"/></g></g></g></svg>