<svg xmlns="http://www.w3.org/2000/svg" xmlns:xlink="http://www.w3.org/1999/xlink" viewBox="0 0 1280 1280"><defs><linearGradient id="f60afaf3-85ea-4743-aee6-c3220b6e0b54" x1="661.74" y1="1020.91" x2="661.74" y2="313.19" gradientUnits="userSpaceOnUse"><stop offset="0" stop-color="#b8ffff"/><stop offset="1" stop-color="#6481ff"/></linearGradient></defs><g style="isolation:isolate"><g id="a84a1ce7-0a14-4f7a-9007-b10786f3fb54" data-name="Warstwa 2"><g id="b82773af-6983-43a8-b364-9859eb8a4a8d" data-name="Warstwa 1"><rect width="1280" height="1280" style="fill:none"/><path d="M646.65,1020.91c-40.22-1.44-428.62-409.82-433-441-1.15-8.44,8.56-27.51,23.6-50.87l0-.11c2-3,3.92-6.06,6.1-9.26l.31-.33c40.69-60.69,110.89-144.57,122.91-150.23,8.86-4.23,219.61-56,294.81-56,72.71,0,266.41,40.55,282.56,43.59C968,361.4,1045.27,468.41,1085,529l.1.11c3.23,4.94,6.25,9.54,9,13.79V543c8.29,12.92,14,22.41,15.73,26.49C1119.28,590.68,686.92,1022.42,646.65,1020.91Z" style="fill:url(#f60afaf3-85ea-4743-aee6-c3220b6e0b54)"/><path d="M246.55,570.86c-5.48,38.82,225.26,329.45,411.24,346.24,95.59,8.64,161.1-138.5,195-193.74C888,666.11,642.48,652.05,591,644.31c-51.69-7.78-18.38,106-9.14,143.2,9,36.32,84.67,53.84,104.35,52s84.56-117,39.7-131.17c-45.27-14.33-62.19,41-83.06,12.66-21.27-28.87,126.37-53.64,148,0,20.88,51.87-41.29,138.25-143.23,126.63C544.9,835.89,490.72,737.9,557.55,609.66c72.58-139.26,227.66,20.88,320.9,81.44,89.78,58.32,168.52-132.24,162.43-197C1034.54,426.7,856,326.46,666.49,321.76,476.49,317.05,271.47,394.3,246.55,570.86Z" style="fill:#b3b0ff;opacity:0.2;mix-blend-mode:multiply"/><path d="M366.49,369.17c-31.05,9.62,132.37,79.93,157.18,84.09s250.4,7.5,287.24,3.65S953.68,370,952.68,361s-246-53.32-296.9-47.72C605.07,318.89,390.41,361.76,366.49,369.17Z" style="fill:#fff;mix-blend-mode:soft-light"/><path d="M225.14,576.94c2.71,20.28,199.05,125.81,211.78,127.42s98.95-247.68,86.75-251.1-143.56-65.63-159.81-66S219.5,534.59,225.14,576.94Z" style="fill:#8de1ff;mix-blend-mode:soft-light"/><path d="M459.45,707.92c-22.66-.47,76-227.66,86.63-240s251.11-10.43,270.17,0S893,673.79,892.06,686.44,589.6,710.61,459.45,707.92Z" style="fill:#a69ce7;opacity:0.2;mix-blend-mode:multiply"/><path d="M1109.82,569.44c-1.91,43.52-189.59,117-203.68,117s-68.11-214-66.95-227.1,100.49-70.62,118.51-73.55S1109.82,569.44,1109.82,569.44Z" style="fill:#635ec0;opacity:0.4;mix-blend-mode:multiply"/><path d="M459.45,707.92C434.52,706.32,626,1003.79,643,1015S889.15,726.22,890.59,706.46C892.06,686.44,731.87,725.42,459.45,707.92Z" style="fill:#3340c0;opacity:0.4;mix-blend-mode:multiply"/><path d="M459.45,707.92c-10.61,5.93,100.22,186.81,121.89,209.18,21.34,22,130.42-124.72,198.37-143.66,68.79-19.19,108.08-47.68,104-69.08-4.1-21.7-104.86,1.84-222.6,7.56C543.82,717.63,470.24,701.9,459.45,707.92Z" style="fill:#905ec0;opacity:0.2;mix-blend-mode:multiply"/><path d="M1064.33,629.59C1057.57,612,899.16,696.83,883.1,721.1,867.28,745,686.24,997.59,682,1000.79S933.87,781.58,1064.33,629.59Z" style="fill:#4068ff;mix-blend-mode:soft-light"/><path d="M228.66,603.33c10.1-11.75,200.22,98.16,229.66,135.16,28.75,36.14,166.58,271,166.58,271S339.08,760.81,228.66,603.33Z" style="fill:#81f2ff;mix-blend-mode:soft-light"/><path d="M366.49,369.17s111.92,81.39,157.18,84.09S766,471.47,810.91,456.91c45.36-14.69,219-128.15-136-134.87C514.55,319,366.49,369.17,366.49,369.17Z" style="fill:#dbf2ff;mix-blend-mode:soft-light"/><path d="M213.64,580c9.44,16,192.73,111.18,221.52,115.43S526.74,485.12,525.49,474s-99.3-58.47-111.17-64,87.95,47,95.64,82.51c7.53,34.74-64.17,167.91-109.78,166S213.64,580,213.64,580Z" style="fill:#fff2ff;opacity:0.5;mix-blend-mode:soft-light"/><path d="M427.7,410s79.07-15.44,173.56-.4c93.68,14.91,84.59,49,84.59,49s-128.29,2.31-165.36-5.68C483.24,444.9,427.7,410,427.7,410Z" style="fill:#fff"/><path d="M802.78,458.92c-.33-5.86,38.59-15.48,46.11-10.94s0,39.09-11.25,40.65S802.78,458.92,802.78,458.92Z" style="fill:#dfe5ff"/><path d="M502.74,446.8c-17.83-1,13.1,59,18.8,58.82s60.42-43.65,56.38-47S502.74,446.8,502.74,446.8Z" style="fill:#dfe5ff"/><path d="M784.32,900.31c-31.39,3.55,76.43-143.65,117.25-172.83,41.6-29.74,29.21,39.66,11.4,60C895.4,807.6,784.32,900.31,784.32,900.31Z" style="fill:#fff2ff;mix-blend-mode:soft-light"/><path d="M871.83,704.37C863,693.31,893.42,673.56,897,672.64s38.45,6.67,40.38,9.05-48.13,31.92-53.74,31.92S871.83,704.37,871.83,704.37Z" style="fill:#dde3ff"/><path d="M227,590.85c-15.85.86,169.75,209.06,213.9,241.27,43.23,31.52,48.79-61,17-99.74C425.34,692.68,227,590.85,227,590.85Z" style="fill:#72acef;opacity:0.4;mix-blend-mode:multiply"/><path d="M216.6,566.37C213.5,585,396.2,699.93,427,693.22s94.52-187.6,94.52-187.6-64.65,187.69-63.36,195c.63,3.61,104.1,8.56,205.62,7.68,103.85-.89,206.56-7.66,206.56-7.66s-203.19,24.77-410.91,7.27a928.13,928.13,0,0,0,41.53,86s-51.54-68.16-83.42-89.56c-32.33-21.7-182.33-103.59-189.83-108S216.6,566.37,216.6,566.37Z" style="fill:#c7d1ff"/><path d="M828.82,485.55c4.26,11.8,53.87,146.58,53.87,146.58l-40-147.23Z" style="fill:#c7d1ff"/><path d="M501.27,536.16c14.24-36.93-31.88-85-90.24-113C351.7,394.72,337,603.7,382.67,637.83,427.42,671.25,501.27,536.16,501.27,536.16Z" style="fill:#8dffff;mix-blend-mode:soft-light"/><path d="M850.68,480.08c40.79-61,166.82,62.19,197.77,108.49,30.1,45-99.72,94.45-130,76.95C887.76,647.81,850.68,480.08,850.68,480.08Z" style="fill:#8dcaff;mix-blend-mode:soft-light"/><path d="M513.78,535.75c-42.62,87.09,76.37,10.44,160.65,26.4,83.47,15.8,165.37,111.52,192.33,107s-43.54-178-64.72-192.72c-21.37-14.82-190-10.21-214.79-5.52S530.34,501.91,513.78,535.75Z" style="fill:#959cc0;opacity:0.2;mix-blend-mode:multiply"/><path d="M1087.28,553.5c-5.5-4.1-20,41.55-47.83,65.38-27.39,23.49-102.08,62.81-102.08,62.81s98.77-39.67,120.92-60.52C1080.74,600,1087.28,553.5,1087.28,553.5Z" style="fill:#dde3ff"/><path d="M243.29,519.76s-1,58,6,75.29c6.9,17.05,97.56,67.62,97.56,67.62s-67.9-56.32-78.49-96.55c-10.86-41.25-8.17-70.53-8.17-70.53Z" style="fill:#dde3ff"/><path d="M228.66,603.33S418.29,696.42,458.6,742.85c39.14,45.08,25.69,106.14-8.22,94.47C416.21,825.56,228.66,603.33,228.66,603.33Z" style="fill:#905ec0;opacity:0.4;mix-blend-mode:multiply"/><path d="M461.85,713.61c-7.59-.94,63.55,142.16,96.56,157.87C591.08,887,665,827,740.1,787.51c77-40.51,96.14-16.8,111.61-43.11,15.75-26.77,20.12-40,20.12-40S666.32,739.1,461.85,713.61Z" style="fill:#905ec0;opacity:0.4;mix-blend-mode:multiply"/><path d="M888.38,712c-4.75,1.61-41.18,60.52-36.93,61.44s48.33-49.86,65.36-53.76S937,754.9,940.54,751.13,1040,642.82,1044.69,637.31s-98,41-116.06,51.67S888.38,712,888.38,712Z" style="fill:#3340c0;opacity:0.4;mix-blend-mode:multiply"/><path d="M1094.05,542.87V543s-99.15-122.9-120.17-145.8c-21.18-23.21-115.39-74.29-274.1-72.93S420.33,359,381.24,379.5c-37.45,19.82-132,133-137.61,139.88,40.69-60.69,110.89-144.57,122.91-150.23,8.86-4.23,219.61-56,294.81-56,72.71,0,266.41,40.55,282.56,43.59C968,361.4,1045.27,468.41,1085,529l.1.11C1088.32,534,1091.34,538.62,1094.05,542.87Z" style="fill:#5e2e84;opacity:0.5;mix-blend-mode:multiply"/><path d="M427.26,700.63c-13.83,5.92,28,32.3,33.18,35.08s1.13-34.43-2.6-40.26S427.26,700.63,427.26,700.63Z" style="fill:#fff"/><path d="M507.53,844.28c18.11-21.78,87.8,110.36,85.35,114.47S483.54,873.13,507.53,844.28Z" style="fill:#fff"/><path d="M646.65,1020.91c-40.22-1.44-428.62-409.82-433-441-1.15-8.44,8.56-27.51,23.6-50.87.18,3.29,5.09,73,15.66,95C260,638.78,376.74,754.91,522.46,914c51.08,55.76,94.34,68.48,121.37,72.08,25.94,3.46,84.48-20.65,140.49-85.78,133.62-155.42,252.7-251.72,276.26-282,37.13-47.75,25.34-86.58,24.51-89.21,13.05,19.88,22.29,35,24.68,40.39C1119.28,590.68,686.92,1022.42,646.65,1020.91Z" style="fill:#5e2e84;opacity:0.5;mix-blend-mode:multiply"/></g></g></g></svg>