<svg xmlns="http://www.w3.org/2000/svg" xmlns:xlink="http://www.w3.org/1999/xlink" viewBox="0 0 1280 1280"><defs><linearGradient id="b13daa2a-5e54-496c-9869-a7d2aa4904d2" x1="784.83" y1="518.99" x2="784.83" y2="223.21" gradientTransform="translate(492.4 -307.07) rotate(42.32)" gradientUnits="userSpaceOnUse"><stop offset="0" stop-color="#b8ffff"/><stop offset="1" stop-color="#6481ff"/></linearGradient><linearGradient id="a94a130f-05ba-46ca-a741-9fe82cd92f62" x1="424.35" y1="932.46" x2="424.35" y2="367.81" gradientTransform="translate(-192.71 316.12) rotate(-33.93)" xlink:href="#b13daa2a-5e54-496c-9869-a7d2aa4904d2"/><linearGradient id="edacee33-5ea1-4ae2-88eb-7228464965d7" x1="876.22" y1="491.26" x2="876.22" y2="94.46" gradientTransform="translate(620.56 -142.65) rotate(56.07)" xlink:href="#b13daa2a-5e54-496c-9869-a7d2aa4904d2"/><linearGradient id="e29d0af4-9864-4374-944a-a4a57a07cd65" x1="364.32" y1="1082.74" x2="364.32" y2="685.94" gradientTransform="translate(-283.49 720.13) rotate(-62.96)" xlink:href="#b13daa2a-5e54-496c-9869-a7d2aa4904d2"/></defs><g style="isolation:isolate"><g id="f14d02f9-6f51-4d2c-afa1-97f4252f960c" data-name="Warstwa 2"><g id="fea44efe-9ad3-4da1-9b24-4597a7249d65" data-name="Warstwa 1"><rect width="1280" height="1280" style="fill:none"/><path d="M718.7,600.81c-12-11.76-17.16-247.25-9.75-258.1,2-2.94,10.38-6.1,21.6-9.09l0,0c1.44-.36,2.91-.76,4.49-1.14l.19,0c29.65-7.3,74.94-13.47,80.25-11.84,3.93,1.18,83.61,44.49,106.85,65.65,22.47,20.46,70.92,87.49,75.06,93,6.15,8.21-.08,63-4.85,92.91v.06c-.39,2.44-.75,4.71-1.11,6.79l0,0a112.43,112.43,0,0,1-2.59,12.61C985.81,600.83,730.72,612.61,718.7,600.81Z" style="fill:url(#b13daa2a-5e54-496c-9869-a7d2aa4904d2)"/><path d="M721.67,349.15c-12.61,10.46-23.07,165.2,29.68,222.71,27.11,29.57,88.75,2.53,114.78-5,27-7.8-44.94-81.21-58.66-98.08s-35.5,27.58-43.11,41.68c-7.43,13.77,11,40.46,17.62,45.42s59-12.36,49.18-29.36c-10-17.17-30.76-4.83-29.24-19.46,1.56-14.91,54.15,19,45.73,41.63-8.13,21.91-51.65,31.11-79.88-1.16-28.46-32.53-17.63-78,39.1-98.88,61.61-22.62,64.48,70.5,76.26,115.45,11.34,43.29,89.28,6.55,105.63-15.18,17-22.61-10-103.83-67.22-158.59C864.14,335.41,779.05,301.6,721.67,349.15Z" style="fill:#b3b0ff;opacity:0.2;mix-blend-mode:multiply"/><path d="M815.49,320.57c-12.3-5.76,18.42,61.95,24.92,70.21s75.27,72.77,87.74,82S996.74,486,998.94,483s-61-85.7-78.33-98.28S825,325,815.49,320.57Z" style="fill:#fff;mix-blend-mode:soft-light"/><path d="M713.35,345c-4.87,7,26.11,94.88,29.6,99s100.26-48.7,97.46-53.19-25.91-60.67-30.82-65.36S723.52,330.33,713.35,345Z" style="fill:#8de1ff;mix-blend-mode:soft-light"/><path d="M748.91,451.41c-6.88-6.52,87.54-49,94.3-49.79s80.53,67.42,83.49,76-34.21,85.21-38.06,88.86S788.37,488.86,748.91,451.41Z" style="fill:#a69ce7;opacity:0.2;mix-blend-mode:multiply"/><path d="M988.86,591.6C976,604.51,897.35,574.42,893,570.46s39.16-85.3,43.2-89,50.93,6.45,57.32,10.62S988.86,591.6,988.86,591.6Z" style="fill:#635ec0;opacity:0.4;mix-blend-mode:multiply"/><path d="M748.91,451.41c-7.26-7.51-31.77,138.31-29.68,146.53s157.32-20,163.33-25.67S828.17,533.47,748.91,451.41Z" style="fill:#3340c0;opacity:0.4;mix-blend-mode:multiply"/><path d="M748.91,451.41c-4.95-1.15-21.59,85.93-21.19,98.94.39,12.82,75.4-1.84,101.73,11.42,26.65,13.42,46.81,15.67,51.58,7.92s-32.92-28.93-70.92-60.29S753.93,452.59,748.91,451.41Z" style="fill:#905ec0;opacity:0.2;mix-blend-mode:multiply"/><path d="M957.88,597.39c2.87-7.35-70-25.69-81.76-22.71-11.61,2.94-138.63,30.06-140.85,29.85S874.8,607.66,957.88,597.39Z" style="fill:#4068ff;mix-blend-mode:soft-light"/><path d="M707,354.16c6.43-.79,34.26,86.67,33,106.38-1.29,19.26-24.76,130.61-24.76,130.61S696.83,433.89,707,354.16Z" style="fill:#81f2ff;mix-blend-mode:soft-light"/><path d="M815.49,320.57s11.69,56.64,24.92,70.21,69.74,73.8,87.74,82,103.74,22-4.09-80C875.36,346.72,815.49,320.57,815.49,320.57Z" style="fill:#dbf2ff;mix-blend-mode:soft-light"/><path d="M709,342.7c-1.58,7.59,28.28,88.59,36,98s87.46-39.21,90.2-43-14.23-46-16.34-51.06,13.94,39.28,6.34,52.41c-7.45,12.85-67.07,33.84-80.63,20.41S709,342.7,709,342.7Z" style="fill:#fff2ff;opacity:0.5;mix-blend-mode:soft-light"/><path d="M822.92,350.4s28.78,17.48,53.75,48.71c24.76,31,12.35,38.95,12.35,38.95s-40.3-35.38-49.51-48.28S822.92,350.4,822.92,350.4Z" style="fill:#fff"/><path d="M925.07,471.06c1.55-1.91,16.28,6.07,17.32,9.59s-11,12.08-14.91,9.4S925.07,471.06,925.07,471.06Z" style="fill:#dfe5ff"/><path d="M835.75,382.9c-5.23-5.32-12.55,21.92-10.74,23.46s31,3.51,30.65,1.34S835.75,382.9,835.75,382.9Z" style="fill:#dfe5ff"/><path d="M795.18,602.27c-10.71-7.73,64-22.88,84.86-20.42,21.22,2.52-2.14,20.48-13.37,21.76C855.59,604.88,795.18,602.27,795.18,602.27Z" style="fill:#fff2ff;mix-blend-mode:soft-light"/><path d="M877.35,566.34c.38-5.91,15.34-3.45,16.7-2.72s10,12.87,9.93,14.15-23.85-3.67-25.58-5.25S877.35,566.34,877.35,566.34Z" style="fill:#dde3ff"/><path d="M710,349.83c-5.14-4.19-6.36,112.37-1.78,134.75,4.49,21.9,32.25-5.13,33.32-26C742.65,437.11,710,349.83,710,349.83Z" style="fill:#72acef;opacity:0.4;mix-blend-mode:multiply"/><path d="M713.68,339.34c-6.2,4.89,17.93,91.81,29.34,98.41s82-31.39,82-31.39-72.78,39.82-74.45,42.44c-.82,1.3,29.77,31.94,61.39,60.23,32.35,28.94,66,55.75,66,55.75s-69.76-49.51-129-113.37a385.76,385.76,0,0,0-11.36,38.27s3.24-35.57-.59-51.15c-3.88-15.8-27.2-83.32-28.27-86.8S713.68,339.34,713.68,339.34Z" style="fill:#c7d1ff"/><path d="M925.62,486.61c-2,4.85-24.59,60.46-24.59,60.46l29.07-56.75Z" style="fill:#c7d1ff"/><path d="M810.15,410.1c14.8-7.41,14.06-35.23,3.9-60.3-10.32-25.49-73.67,34.94-69.15,58.35C749.32,431.07,810.15,410.1,810.15,410.1Z" style="fill:#8dffff;mix-blend-mode:soft-light"/><path d="M933.92,491.08c29.76-7.37,34.06,66.15,30.59,89.17-3.36,22.38-57.39,1.13-61.83-12.81C898.18,553.35,933.92,491.08,933.92,491.08Z" style="fill:#8dcaff;mix-blend-mode:soft-light"/><path d="M814.14,413.49c-37.68,14.92,20.66,24.72,42.22,53.36,21.35,28.37,19.73,81,29.32,87.19s36.64-67.27,34.22-77.77-55.84-56.61-64.82-62.14S828.78,407.69,814.14,413.49Z" style="fill:#959cc0;opacity:0.2;mix-blend-mode:multiply"/><path d="M986.38,580.34c-.55-2.82-17.88,7.2-33.18,6.75-15.07-.45-49.22-9.32-49.22-9.32s41.69,15.53,54.4,15.32C971.26,592.88,986.38,580.34,986.38,580.34Z" style="fill:#dde3ff"/><path d="M735,332.45s-16.65,17.65-19.34,24.94,11.12,48.34,11.12,48.34-5.13-36.5,2.91-51.92c8.25-15.8,17.32-24.09,17.32-24.09Z" style="fill:#dde3ff"/><path d="M707,354.16S739.42,436.28,738.82,462c-.59,24.94-21.93,40-29.12,26.88S707,354.16,707,354.16Z" style="fill:#905ec0;opacity:0.4;mix-blend-mode:multiply"/><path d="M748.05,453.85c-2.08-2.43-20.36,61.81-14.58,75.95S779,546.05,813.25,555c35.21,9.16,34.43,21.86,46.62,18.08,12.4-3.84,17.48-6.71,17.48-6.71S804.07,519.25,748.05,453.85Z" style="fill:#905ec0;opacity:0.4;mix-blend-mode:multiply"/><path d="M880.32,573.36c-1.92-.84-29.76,7.11-28.7,8.59s29-1.81,35.32,1.78-3.68,16.55-1.52,16.4,61.2-5.51,64.22-5.88-41.82-14.92-50.41-16.68S880.32,573.36,880.32,573.36Z" style="fill:#3340c0;opacity:0.4;mix-blend-mode:multiply"/><path d="M991.46,579l0,0s3.94-65.88,3.88-78.87-14.76-55.43-64.19-99.66-96.12-67.89-114-72.54c-17.15-4.42-78.22,4-81.88,4.5,29.65-7.3,74.94-13.47,80.25-11.84,3.93,1.18,83.61,44.49,106.85,65.65,22.47,20.46,70.92,87.49,75.06,93,6.15,8.21-.08,63-4.85,92.91v.06C992.18,574.61,991.82,576.88,991.46,579Z" style="fill:#5e2e84;opacity:0.5;mix-blend-mode:multiply"/><path d="M741,440.1c-5.94-2.06-.44,17.86.38,20.18s10-10.32,10.53-13.17S741,440.1,741,440.1Z" style="fill:#fff"/><path d="M725.4,507.08c11.73-1.63-3.92,58.81-5.83,59.39S709.87,509.25,725.4,507.08Z" style="fill:#fff"/><path d="M718.7,600.81c-12-11.76-17.16-247.25-9.75-258.1,2-2.94,10.38-6.1,21.6-9.09-.87,1.07-19,24-21.89,33.78-1.94,6.53,1.47,75.26,1.74,165.43.09,31.61,9.88,47.71,17.22,56.43,7,8.37,31.92,17.38,67.56,13,85-10.43,148.91-6.69,164.72-9.42,24.91-4.31,32.19-19.63,32.67-20.68-1.56,9.82-3,17.1-3.73,19.43C985.81,600.83,730.72,612.61,718.7,600.81Z" style="fill:#5e2e84;opacity:0.5;mix-blend-mode:multiply"/><path d="M669.9,859.61c-27.26,17-466.25-80.38-483-99.05-4.52-5.07-6.59-22-7-44.18l-.06-.07c0-2.84-.1-5.75-.09-8.84l.06-.36c-.09-58.29,9-145.08,14.45-154.18,4-6.75,120.45-134.86,170.23-168.35,48.13-32.38,194.41-91.8,206.46-97,18-7.68,116.81,28.74,170.07,51.14l.12,0c4.33,1.83,8.39,3.53,12.08,5.14l0,.08c11.24,4.85,19.23,8.61,22.21,10.53C791.14,364.32,697.24,842.67,669.9,859.61Z" style="fill:url(#a94a130f-05ba-46ca-a741-9fe82cd92f62)"/><path d="M204.61,739.89C218.27,768,500.45,857.64,631,785.93c67.13-36.86,45-163.43,42.81-215.1-2.22-53.57-171,46.47-208.49,64.25-37.68,17.87,35,78.35,57.73,98.86,22.15,20,80-2.07,92.22-12.07s3.88-115.08-32.14-104.5c-36.35,10.67-22.9,54.84-49.34,45.37-26.94-9.64,59.76-91.8,97.95-65.9,36.92,25,34.24,109.89-38.42,147.6-73.22,38-152.72-2.73-165.6-117.37-14-124.52,160-87.58,248.69-89,85.41-1.38,52.66-162.59,19.78-202.76C662,293.51,499.18,306.68,371.65,388,243.78,469.48,142.47,611.92,204.61,739.89Z" style="fill:#b3b0ff;opacity:0.2;mix-blend-mode:multiply"/><path d="M194.18,553c-16.27,20.2,123.22-6.05,141.5-14.34S504.77,432.06,527.45,413.11,583.22,292,578.58,286.5,392,360.78,360.8,387.14,206.71,537.41,194.18,553Z" style="fill:#fff;mix-blend-mode:soft-light"/><path d="M193.15,753.45c10.82,12.22,187.79-5.37,196.94-10s-44.82-208-54.41-204.85-124.26,20.5-135.19,27.48S170.55,727.93,193.15,753.45Z" style="fill:#8de1ff;mix-blend-mode:soft-light"/><path d="M406.59,735.8c-15.21,9.78-51.08-184.55-49.55-197.45S518.62,419.6,535.88,418s142.48,102.1,147.51,110.89S493.94,679.61,406.59,735.8Z" style="fill:#a69ce7;opacity:0.2;mix-blend-mode:multiply"/><path d="M775.43,354.47c18.11,29.66-73.39,161.89-82.72,168.16S552.32,411.32,547.24,402.12s35.07-91.5,45.7-101.46S775.43,354.47,775.43,354.47Z" style="fill:#635ec0;opacity:0.4;mix-blend-mode:multiply"/><path d="M406.59,735.8c-17.22,10,242,121.66,258.22,121.52s34.37-300.78,26.52-314.51C683.39,528.91,594.72,626.05,406.59,735.8Z" style="fill:#3340c0;opacity:0.4;mix-blend-mode:multiply"/><path d="M406.59,735.8c-4.39,8.65,149.54,79,173.85,84.18,23.94,5.09,30.78-140.65,67.32-183.45,37-43.34,50.31-79.69,38.1-92.06-12.38-12.54-68.59,47.92-144,104.15C466.76,704.65,411,727,406.59,735.8Z" style="fill:#905ec0;opacity:0.2;mix-blend-mode:multiply"/><path d="M772.1,414.55c-12.32-8.66-79.38,118.07-79.21,141.29.17,22.86-7.17,270.7-8.58,274.73S753.44,573.26,772.1,414.55Z" style="fill:#4068ff;mix-blend-mode:soft-light"/><path d="M207.23,769.35c1.46-12.27,176.26-24.19,212.22-12.81,35.13,11.11,231,105.17,231,105.17S350.46,824.42,207.23,769.35Z" style="fill:#81f2ff;mix-blend-mode:soft-light"/><path d="M194.18,553s110.34,4,141.5-14.34,168.49-95.85,191.77-125.51c23.48-29.92,87.9-182.37-150.1-28.71C269.84,453.81,194.18,553,194.18,553Z" style="fill:#dbf2ff;mix-blend-mode:soft-light"/><path d="M186.87,760.56c13.36,6.37,177.1-12.24,198.05-22.25s-33-180-38.81-186.77-91.77,5.52-102.1,7.14,79.18-8,100.07,12c20.45,19.64,32.3,139.72,1.25,158.77S186.87,760.56,186.87,760.56Z" style="fill:#fff2ff;opacity:0.5;mix-blend-mode:soft-light"/><path d="M252.87,552.72s45.47-45.44,114.72-77.57c68.64-31.85,77.83-5.22,77.83-5.22s-83.9,58.67-112,69.89S252.87,552.72,252.87,552.72Z" style="fill:#fff"/><path d="M523,418.06c-2.82-3.73,18.66-27.44,25.65-27.78s17.4,25.88,10.67,31.92S523,418.06,523,418.06Z" style="fill:#dfe5ff"/><path d="M319,543.67c-12.24,7.29,34.95,33.23,38.64,30.56S378.14,518.43,374,518,319,543.67,319,543.67Z" style="fill:#dfe5ff"/><path d="M707.32,718.46c-19.2,16.33-13.38-129.13.64-166.62,14.29-38.22,37,13.24,34.28,34.65C739.56,607.63,707.32,718.46,707.32,718.46Z" style="fill:#fff2ff;mix-blend-mode:soft-light"/><path d="M678,549.78c-10.78-3.38.57-30,2.53-32.2s28.42-12.72,30.75-12-17.64,42.56-21.35,45.05S678,549.78,678,549.78Z" style="fill:#dde3ff"/><path d="M200.57,761.83c-10.1,7.63,205.48,62.79,249.05,64.44,42.66,1.62,5.12-62.12-33.15-73.6C377.22,740.9,200.57,761.83,200.57,761.83Z" style="fill:#72acef;opacity:0.4;mix-blend-mode:multiply"/><path d="M182.79,750.26c6.25,13.72,178.37,8.42,195.78-9.75s-21-166.28-21-166.28,40.8,153,44.91,157.31c2,2.11,72.72-40.7,139.53-86.49C610.38,598.2,675.35,548,675.35,548S551.88,654.87,406.59,735.8a742.32,742.32,0,0,0,65.79,38.43s-64.47-22.16-95.11-22.13c-31.06,0-166.83,12.63-173.77,13S182.79,750.26,182.79,750.26Z" style="fill:#c7d1ff"/><path d="M552.05,424.09c8.08,5.92,100.94,73,100.94,73l-92-79.66Z" style="fill:#c7d1ff"/><path d="M357.77,603.48c-7-30.79-58.94-42.05-110-34.59-52,7.58,31.36,152.47,76.81,154.71C369.05,725.79,357.77,603.48,357.77,603.48Z" style="fill:#8dffff;mix-blend-mode:soft-light"/><path d="M564.09,410.74c-.16-58.54,138.12-33.14,179.24-16.27,40,16.4-24,106.93-51.82,108.85C663.34,505.25,564.09,410.74,564.09,410.74Z" style="fill:#8dcaff;mix-blend-mode:soft-light"/><path d="M365.87,597.63c10.57,76.64,55.2-27.1,118.1-54.07,62.29-26.72,159.14.16,175-14.81S550.84,430.29,530.28,430c-20.74-.29-130.32,77.87-144.64,92S361.76,567.85,365.87,597.63Z" style="fill:#959cc0;opacity:0.2;mix-blend-mode:multiply"/><path d="M753.41,354c-5.47-.26,5.25,36.42-2.54,64.58-7.68,27.75-39.61,87-39.61,87s47.72-70.26,53.1-93.93C769.81,387.68,753.41,354,753.41,354Z" style="fill:#dde3ff"/><path d="M179.69,707.52s25.18,38.88,37.48,47.19S311.86,756,311.86,756s-70-7-95-29c-25.56-22.46-36.82-43-36.82-43Z" style="fill:#dde3ff"/><path d="M207.23,769.35s167-22.84,214.35-10.05c46,12.41,64.28,58.82,36.64,66.19C430.36,832.92,207.23,769.35,207.23,769.35Z" style="fill:#905ec0;opacity:0.4;mix-blend-mode:multiply"/><path d="M410.71,738.5c-5.44,2.75,105.38,65.79,134.23,61.49,28.55-4.25,50.76-77,82.87-136.51,33-61.13,56.16-53.93,54.68-78.24C681,560.51,678,549.78,678,549.78S557.41,664.3,410.71,738.5Z" style="fill:#905ec0;opacity:0.4;mix-blend-mode:multiply"/><path d="M692.33,547.47c-2.42,3.17-.3,58.4,2.92,57.11s9.79-54.53,19.33-64.69,29,14.34,29.71,10.25,17.57-116,18.25-121.74-46.65,70.78-53.81,85.9S692.33,547.47,692.33,547.47Z" style="fill:#3340c0;opacity:0.4;mix-blend-mode:multiply"/><path d="M753.16,343.91l0,.08s-120.37-37.2-144.49-43c-24.36-5.93-109.47,2.22-213.92,73.8S225.28,522.23,208.55,553.23c-16,29.8-28.14,146.84-28.8,153.88-.09-58.29,9-145.08,14.45-154.18,4-6.75,120.45-134.86,170.23-168.35,48.13-32.38,194.41-91.8,206.46-97,18-7.68,116.81,28.74,170.07,51.14l.12,0C745.41,340.6,749.47,342.3,753.16,343.91Z" style="fill:#5e2e84;opacity:0.5;mix-blend-mode:multiply"/><path d="M382,745.31c-6.52,10.08,32.91,8.91,37.59,8.44S405,730.46,400,728.26,382,745.31,382,745.31Z" style="fill:#fff"/><path d="M499.15,804.65c2.28-22.49,107.26,34,107.47,37.76S496.12,834.43,499.15,804.65Z" style="fill:#fff"/><path d="M669.9,859.61c-27.26,17-466.25-80.38-483-99.05-4.52-5.07-6.59-22-7-44.18,1.59,2.1,35.88,46.06,52.7,55.93,11.23,6.55,140.22,31.43,307.54,71.85,58.65,14.16,92.95,3.31,112.45-6.34,18.71-9.27,46.72-51.3,54.79-119.36,19.24-162.39,55.17-279.17,57.27-309.72,3.31-48.14-21.79-68.6-23.51-70,17.5,7.35,30.35,13.26,34.33,15.75C791.14,364.32,697.24,842.67,669.9,859.61Z" style="fill:#5e2e84;opacity:0.5;mix-blend-mode:multiply"/><path d="M697.38,851.55C685.46,832.39,753.86,523.9,767,512.11c3.56-3.17,15.48-4.63,31-4.94l0,0c2,0,4-.08,6.22-.07l.25.05c41-.07,102,6.33,108.35,10.15,4.74,2.8,94.77,84.64,118.31,119.63C1054,670.71,1095.71,773.5,1099.35,782c5.4,12.66-20.2,82.09-35.94,119.52l0,.08c-1.29,3-2.48,5.89-3.61,8.49l-.06,0c-3.41,7.91-6,13.52-7.4,15.61C1045.43,936.75,709.28,870.76,697.38,851.55Z" style="fill:url(#edacee33-5ea1-4ae2-88eb-7228464965d7)"/><path d="M781.5,524.58c-19.77,9.6-82.74,207.89-32.35,299.66,25.9,47.17,114.85,31.59,151.16,30.09,37.64-1.57-32.65-120.16-45.15-146.51s-55.06,24.62-69.48,40.56c-14.07,15.57,1.46,56.24,8.49,64.8s80.87,2.73,73.44-22.58c-7.51-25.54-38.54-16.09-31.89-34.67,6.78-18.93,64.51,42,46.32,68.83-17.6,26-77.23,24.06-103.73-27-26.71-51.46,1.91-107.33,82.48-116.38,87.5-9.82,61.55,112.44,62.56,174.76,1,60,114.25,37,142.48,13.9,29.36-24,20.11-138.47-37-228.09C971.54,552.1,871.44,480.91,781.5,524.58Z" style="fill:#b3b0ff;opacity:0.2;mix-blend-mode:multiply"/><path d="M912.87,517.25c-14.19-11.44,4.25,86.59,10.08,99.43s74.88,118.83,88.2,134.76,85.13,39.19,89,35.94-52.2-131.13-70.72-153S923.8,526.05,912.87,517.25Z" style="fill:#fff;mix-blend-mode:soft-light"/><path d="M772,516.52c-8.59,7.61,3.77,132,7,138.39s146.18-31.49,144-38.23-14.41-87.32-19.32-95S789.91,500.64,772,516.52Z" style="fill:#8de1ff;mix-blend-mode:soft-light"/><path d="M784.38,666.51c-6.87-10.69,129.69-35.9,138.76-34.81s83.44,113.54,84.55,125.67S935.94,857.5,929.77,861,823.87,727.9,784.38,666.51Z" style="fill:#a69ce7;opacity:0.2;mix-blend-mode:multiply"/><path d="M1052.35,925.71c-20.84,12.73-113.76-51.58-118.17-58.13s78.23-98.66,84.69-102.23,64.3,24.65,71.3,32.12S1052.35,925.71,1052.35,925.71Z" style="fill:#635ec0;opacity:0.4;mix-blend-mode:multiply"/><path d="M784.38,666.51C777.32,654.41,698.88,836.6,699,848s211.37,24.15,221,18.64S861.5,798.71,784.38,666.51Z" style="fill:#3340c0;opacity:0.4;mix-blend-mode:multiply"/><path d="M784.38,666.51c-6.08-3.08-55.53,105.09-59.16,122.17-3.57,16.83,98.84,21.63,128.92,47.31,30.45,26,56,35.36,64.69,26.78s-33.67-48.2-73.19-101.18C806.27,708.8,790.56,669.64,784.38,666.51Z" style="fill:#905ec0;opacity:0.2;mix-blend-mode:multiply"/><path d="M1010.13,923.37c6.09-8.66-83-55.79-99.28-55.66-16.07.12-190.24-5-193.07-6S898.6,910.25,1010.13,923.37Z" style="fill:#4068ff;mix-blend-mode:soft-light"/><path d="M760.8,526.42c8.63,1,17,123.86,9,149.13-7.81,24.68-73.91,162.3-73.91,162.3S722.11,627.07,760.8,526.42Z" style="fill:#81f2ff;mix-blend-mode:soft-light"/><path d="M912.87,517.25S910,594.78,923,616.68s67.35,118.4,88.2,134.76c21,16.5,128.16,61.77,20.17-105.47C982.54,570.42,912.87,517.25,912.87,517.25Z" style="fill:#dbf2ff;mix-blend-mode:soft-light"/><path d="M767,512.11c-4.47,9.39,8.6,124.45,15.63,139.18S909.08,628.08,913.87,624s-3.88-64.49-5-71.74,5.65,55.63-8.45,70.31c-13.8,14.38-98.19,22.71-111.57.89S767,512.11,767,512.11Z" style="fill:#fff2ff;opacity:0.5;mix-blend-mode:soft-light"/><path d="M913,558.49s31.93,32,54.51,80.61c22.38,48.24,3.67,54.7,3.67,54.7s-41.23-59-49.12-78.7S913,558.49,913,558.49Z" style="fill:#fff"/><path d="M1007.67,748.29c2.62-2,19.28,13.1,19.52,18s-18.19,12.23-22.43,7.5S1007.67,748.29,1007.67,748.29Z" style="fill:#dfe5ff"/><path d="M919.4,604.92c-5.12-8.6-23.35,24.57-21.48,27.16s39.21,14.44,39.52,11.51S919.4,604.92,919.4,604.92Z" style="fill:#dfe5ff"/><path d="M796.57,877.84c-11.48-13.49,90.74-9.4,117.09.46,26.85,10-9.31,26-24.36,24.09C874.45,900.5,796.57,877.84,796.57,877.84Z" style="fill:#fff2ff;mix-blend-mode:soft-light"/><path d="M915.1,857.23c2.38-7.58,21.09.4,22.63,1.77s8.94,20,8.43,21.62-29.91-12.4-31.66-15S915.1,857.23,915.1,857.23Z" style="fill:#dde3ff"/><path d="M766.09,521.74c-5.36-7.1-44.12,144.4-45.28,175-1.14,30,43.65,3.6,51.71-23.3C780.8,645.87,766.09,521.74,766.09,521.74Z" style="fill:#72acef;opacity:0.4;mix-blend-mode:multiply"/><path d="M774.22,509.24c-9.64,4.39-5.92,125.34,6.85,137.58s116.85-14.74,116.85-14.74-107.54,28.67-110.55,31.56c-1.48,1.42,28.61,51.1,60.79,98.05,32.92,48,68.21,93.69,68.21,93.69s-75.12-86.76-132-188.87a518.44,518.44,0,0,0-27,46.24s15.57-45.31,15.55-66.84c0-21.83-8.88-117.24-9.16-122.12S774.22,509.24,774.22,509.24Z" style="fill:#c7d1ff"/><path d="M1003.43,768.73c-4.16,5.68-51.33,70.94-51.33,70.94l56-64.68Z" style="fill:#c7d1ff"/><path d="M877.37,632.21c21.63-4.94,29.55-41.43,24.31-77.34-5.33-36.51-107.15,22-108.72,54C791.41,640.13,877.37,632.21,877.37,632.21Z" style="fill:#8dffff;mix-blend-mode:soft-light"/><path d="M1012.81,777.19c41.14-.11,23.29,97.07,11.44,126-11.53,28.09-75.15-16.83-76.5-36.41C946.4,846.94,1012.81,777.19,1012.81,777.19Z" style="fill:#8dcaff;mix-blend-mode:soft-light"/><path d="M881.48,637.9c-53.86,7.43,19,38.79,38,83,18.77,43.78-.12,111.83,10.4,123s69.19-76,69.4-90.42-54.72-91.58-64.66-101.64S902.4,635,881.48,637.9Z" style="fill:#959cc0;opacity:0.2;mix-blend-mode:multiply"/><path d="M1052.71,910.23c.19-3.84-25.59,3.69-45.38-1.78-19.5-5.39-61.17-27.83-61.17-27.83s49.37,33.53,66,37.31C1029,921.76,1052.71,910.23,1052.71,910.23Z" style="fill:#dde3ff"/><path d="M804.26,507.07s-27.33,17.69-33.16,26.33-.93,66.54-.93,66.54,5-49.21,20.35-66.73c15.79-18,30.25-25.87,30.25-25.87Z" style="fill:#dde3ff"/><path d="M760.8,526.42s16.05,117.35,7.07,150.63c-8.72,32.31-41.34,45.17-46.52,25.74S760.8,526.42,760.8,526.42Z" style="fill:#905ec0;opacity:0.4;mix-blend-mode:multiply"/><path d="M782.49,669.41c-1.94-3.83-46.24,74.05-43.22,94.33,3,20.06,54.08,35.67,95.93,58.23,43,23.17,37.9,39.47,55,38.43,17.37-1.06,24.91-3.17,24.91-3.17S834.62,772.5,782.49,669.41Z" style="fill:#905ec0;opacity:0.4;mix-blend-mode:multiply"/><path d="M916.73,867.31c-2.23-1.7-41-.21-40.14,2.05s38.32,6.89,45.46,13.59-10.07,20.39-7.2,20.88,81.5,12.34,85.55,12.82S950.66,883.87,940,878.83,916.73,867.31,916.73,867.31Z" style="fill:#3340c0;opacity:0.4;mix-blend-mode:multiply"/><path d="M1059.78,910.06l-.06,0s26.14-84.58,30.21-101.53c4.17-17.12-1.55-76.93-51.86-150.33S934.46,539.1,912.68,527.34c-20.94-11.22-103.19-19.78-108.14-20.23,41-.07,102,6.33,108.35,10.15,4.74,2.8,94.77,84.64,118.31,119.63C1054,670.71,1095.71,773.5,1099.35,782c5.4,12.66-20.2,82.09-35.94,119.52l0,.08C1062.1,904.62,1060.91,907.46,1059.78,910.06Z" style="fill:#5e2e84;opacity:0.5;mix-blend-mode:multiply"/><path d="M777.7,649.25c-7.09-4.58-6.27,23.13-5.94,26.42s16.37-10.25,17.92-13.81S777.7,649.25,777.7,649.25Z" style="fill:#fff"/><path d="M736,731.55c15.8,1.61-23.86,75.39-26.53,75.53S715.07,729.43,736,731.55Z" style="fill:#fff"/><path d="M697.38,851.55C685.46,832.39,753.86,523.9,767,512.11c3.56-3.17,15.48-4.63,31-4.94-1.48,1.12-32.37,25.21-39.31,37-4.6,7.89-22.08,98.54-50.48,216.12-10,41.22-2.33,65.32,4.45,79,6.51,13.15,36,32.84,83.88,38.5,114.11,13.52,196.18,38.77,217.65,40.25,33.83,2.33,48.2-15.31,49.17-16.52-5.17,12.3-9.32,21.33-11.07,24.12C1045.43,936.75,709.28,870.76,697.38,851.55Z" style="fill:#5e2e84;opacity:0.5;mix-blend-mode:multiply"/><path d="M842.67,895.35c-11,19.72-313.9,109.6-330.57,103.85-4.51-1.57-11.56-11.28-19.39-24.74l-.06,0c-1-1.73-2-3.5-3.07-5.4l-.08-.24c-19.94-35.79-43.93-92.22-43.7-99.67.14-5.5,28-123.93,47.19-161.49,18.53-36.31,88.15-122.7,93.79-130,8.45-10.86,81.58-22.17,121.94-26.57l.08,0c3.29-.35,6.36-.69,9.18-1l0,0c8.56-.85,14.75-1.26,17.24-1.1C748.28,549.68,853.69,875.63,842.67,895.35Z" style="fill:url(#e29d0af4-9864-4374-944a-a4a57a07cd65)"/><path d="M516,980.46c18,12.63,221.93-28.54,277.72-117.13,28.68-45.54-28.11-115.75-47-146.77-19.64-32.15-89.22,86.86-106.2,110.58s48.25,36.19,69.18,41.06c20.44,4.75,48.47-28.56,52.55-38.86s-36.86-72-55.38-53.26c-18.7,19,4.63,41.51-14.85,44.71-19.84,3.26,5.42-76.79,37.71-73.9,31.23,2.79,58.52,55.85,26.73,103.8-32,48.32-94.77,50.4-141.78-15.66-51-71.74,68.45-108.37,122.46-139.49,52-30-23.09-117.87-57-131.33-35.27-14-130.84,49.61-181.48,143C447.81,800.94,434.13,923,516,980.46Z" style="fill:#b3b0ff;opacity:0.2;mix-blend-mode:multiply"/><path d="M445.8,869.15c-3.11,18,73.65-45.73,82.05-57.06s67.57-123.14,75-142.51-7-93.46-11.75-95.24-89.33,109.27-99.5,136.11S448.19,855.32,445.8,869.15Z" style="fill:#fff;mix-blend-mode:soft-light"/><path d="M513.53,992.69c10.82,3.82,113.56-67.33,117.61-73.28S532.67,806.87,527.85,812.09s-69.36,55-73.69,63S490.94,984.72,513.53,992.69Z" style="fill:#8de1ff;mix-blend-mode:soft-light"/><path d="M638.66,909.06c-6,11.2-94.32-96-97.77-104.43s58.78-128,68.85-134.91,122.37,14.15,128.45,17.83S673.17,844.75,638.66,909.06Z" style="fill:#a69ce7;opacity:0.2;mix-blend-mode:multiply"/><path d="M735.26,549c21.25,12,10.11,124.5,6.52,131.54S617.56,660,611.3,656.07s-9.65-68.18-6.52-77.92S735.26,549,735.26,549Z" style="fill:#635ec0;opacity:0.4;mix-blend-mode:multiply"/><path d="M638.66,909.06c-7.16,12.05,190.21-7.77,200.1-13.38s-81.44-196.54-91-202.29S716.83,777.48,638.66,909.06Z" style="fill:#3340c0;opacity:0.4;mix-blend-mode:multiply"/><path d="M638.66,909.06c.26,6.82,118.83-2.43,135.53-7.55,16.44-5-29.05-96.92-21.19-135.68,8-39.24,3.74-66.13-8-69.56-11.88-3.48-25.81,52.84-53,113.09C665,869.41,638.4,902.14,638.66,909.06Z" style="fill:#905ec0;opacity:0.2;mix-blend-mode:multiply"/><path d="M753.71,587c-10.53-1.11-8.52,99.62-.5,113.83,7.9,14,87.91,168.78,88.41,171.74S796.36,690.92,753.71,587Z" style="fill:#4068ff;mix-blend-mode:soft-light"/><path d="M527.61,997.66c-3.3-8,100-75,126-80.24,25.37-5.14,177.77-14.13,177.77-14.13S634.39,982.66,527.61,997.66Z" style="fill:#81f2ff;mix-blend-mode:soft-light"/><path d="M445.8,869.15S515,834,527.85,812.09s70.85-116.35,75-142.51c4.23-26.4-8.17-142-102,33.54C458.48,782.43,445.8,869.15,445.8,869.15Z" style="fill:#dbf2ff;mix-blend-mode:soft-light"/><path d="M512.1,999.21c10.38-.65,104.65-67.92,114.11-81.21s-81.66-99.32-87.54-101.53-54.51,34.68-60.3,39.2,45.91-31.94,65.58-26.74c19.27,5.1,67.5,74.84,54.91,97.13S512.1,999.21,512.1,999.21Z" style="fill:#fff2ff;opacity:0.5;mix-blend-mode:soft-light"/><path d="M481.78,849s12.44-43.43,44-86.78c31.32-43,46.05-29.75,46.05-29.75s-31.55,64.66-45,81.13S481.78,849,481.78,849Z" style="fill:#fff"/><path d="M601.81,674.15c-3-1.33,2.11-23.22,6.29-25.81s19.52,10,17.44,16S601.81,674.15,601.81,674.15Z" style="fill:#dfe5ff"/><path d="M519.29,820.9c-5,8.65,32.81,8.5,34.17,5.6s-6.4-41.3-9.11-40.14S519.29,820.9,519.29,820.9Z" style="fill:#dfe5ff"/><path d="M817.53,795.86c-6.22,16.59-52.25-74.78-56.42-102.6-4.25-28.35,27.25-4.48,32.88,9.61C799.55,716.77,817.53,795.86,817.53,795.86Z" style="fill:#fff2ff;mix-blend-mode:soft-light"/><path d="M742,702.22c-7.78,1.6-9.89-18.63-9.43-20.65s13.13-17.5,14.81-17.85,3.67,32.17,2.24,35S742,702.22,742,702.22Z" style="fill:#dde3ff"/><path d="M521,995.31c-3.61,8.14,147.67-31.49,175-45.33,26.77-13.55-18-39.91-45.47-33.91C622.35,922.21,521,995.31,521,995.31Z" style="fill:#72acef;opacity:0.4;mix-blend-mode:multiply"/><path d="M506.08,994.27c8.52,6.3,112.47-55.65,117-72.75s-69.59-95-69.59-95,77.25,80.12,81.23,81.35c2,.6,30.81-49.82,56.25-100.73C717,755,739.75,702,739.75,702s-39.41,107.78-101.09,207a518.27,518.27,0,0,0,53.53,1.18s-47.17,8.37-66,18.84c-19.07,10.61-98.2,64.65-102.33,67.26S506.08,994.27,506.08,994.27Z" style="fill:#c7d1ff"/><path d="M621.75,667.93c7,.88,86.93,10.46,86.93,10.46L625,660.83Z" style="fill:#c7d1ff"/><path d="M563.54,844.41c-14.81-16.53-50.55-5.74-79.41,16.27-29.34,22.37,71.26,83,100,68.87C612.18,915.72,563.54,844.41,563.54,844.41Z" style="fill:#8dffff;mix-blend-mode:soft-light"/><path d="M624.59,655.62c-20.06-35.91,73.57-67.46,104.59-71.11,30.16-3.56,21.75,73.87,5.28,84.55C717.8,679.85,624.59,655.62,624.59,655.62Z" style="fill:#8dcaff;mix-blend-mode:soft-light"/><path d="M566.53,838.05c32.63,43.49,24.67-35.48,54.12-73.5,29.17-37.65,97.84-54.16,102.47-68.76s-100-23.63-112.73-16.8-53.53,92.29-57.51,105.86S553.85,821.16,566.53,838.05Z" style="fill:#959cc0;opacity:0.2;mix-blend-mode:multiply"/><path d="M721.56,556.18c-3.45,1.7,15.64,20.59,20.46,40.55,4.75,19.66,5.35,67,5.35,67s5.36-59.44.59-75.82C743.13,571.31,721.56,556.18,721.56,556.18Z" style="fill:#dde3ff"/><path d="M489.6,969.06s28.73,15.31,39.12,16.22,58.63-31.49,58.63-31.49-45.43,19.55-68.22,14.59c-23.37-5.09-37.31-13.9-37.31-13.9Z" style="fill:#dde3ff"/><path d="M527.61,997.66s94.82-71,128.28-79.27c32.48-8,59.55,14.23,45.08,28.18S527.61,997.66,527.61,997.66Z" style="fill:#905ec0;opacity:0.4;mix-blend-mode:multiply"/><path d="M642.11,909.32c-2.4,3.55,87.19,4.49,103.45-8,16.09-12.35,5-64.59,4.37-112.14-.59-48.8,16.12-52.29,6.92-66.72C747.5,707.79,742,702.22,742,702.22S707,813.7,642.11,909.32Z" style="fill:#905ec0;opacity:0.4;mix-blend-mode:multiply"/><path d="M750,695.91c-.41,2.78,19.72,36,21.26,34.1s-12.57-36.85-10.18-46.35,22.72-1.08,21.75-3.83-28.75-77.25-30.29-81-4.54,59.4-3.78,71.12S750,695.91,750,695.91Z" style="fill:#3340c0;opacity:0.4;mix-blend-mode:multiply"/><path d="M718,550.09l0,0S631.38,568.31,614.59,573c-17,4.67-66.51,38.69-106.28,118.3s-53.88,148.4-53.59,173.15c.35,23.75,32.78,99.82,34.78,104.37-19.94-35.79-43.93-92.22-43.7-99.67.14-5.5,28-123.93,47.19-161.49,18.53-36.31,88.15-122.7,93.79-130,8.45-10.86,81.58-22.17,121.94-26.57l.08,0C712.09,550.7,715.16,550.36,718,550.09Z" style="fill:#5e2e84;opacity:0.5;mix-blend-mode:multiply"/><path d="M626.82,923.28c-.57,8.42,23.26-5.74,26-7.62s-16.91-9.34-20.77-9S626.82,923.28,626.82,923.28Z" style="fill:#fff"/><path d="M719,919.81c-6.26-14.6,77.49-15.72,78.92-13.45S727.3,939.14,719,919.81Z" style="fill:#fff"/><path d="M842.67,895.35c-11,19.72-313.9,109.6-330.57,103.85-4.51-1.57-11.56-11.28-19.39-24.74,1.69.74,37.75,16.06,51.45,16.39,9.14.2,96.88-28.5,213.48-60.73,40.86-11.29,58.24-29.65,66.93-42.23,8.34-12.08,11.22-47.46-7-92C774,689.52,756.23,605.51,747.11,586c-14.38-30.71-36.78-34.72-38.31-35,13.26-1.45,23.17-2.21,26.47-2C748.28,549.68,853.69,875.63,842.67,895.35Z" style="fill:#5e2e84;opacity:0.5;mix-blend-mode:multiply"/></g></g></g></svg>