<svg xmlns="http://www.w3.org/2000/svg" xmlns:xlink="http://www.w3.org/1999/xlink" viewBox="0 0 1280 1280"><defs><linearGradient id="fa929eef-3a67-4ebe-a61e-fa5da25e52ef" x1="940.98" y1="943.86" x2="672.52" y2="288.84" gradientTransform="matrix(0.89, 0.05, -0.05, 1, -1.22, -37.8)" gradientUnits="userSpaceOnUse"><stop offset="0" stop-color="#ff5498"/><stop offset="0.35" stop-color="#ff291e"/><stop offset="1" stop-color="#98004d"/></linearGradient></defs><g style="isolation:isolate"><g id="fdb9e7af-5310-43a9-a877-f973e0c36fb1" data-name="Warstwa 2"><g id="a85513db-1142-4d52-a5b8-169b2f5281b1" data-name="Warstwa 1"><rect width="1280" height="1280" style="fill:none"/><path d="M638,1004c-58.64-4.59-428.32-250.53-424.57-449.44,1.08-57.33,205.38-207.81,205.38-207.81s301.77-51.26,473.13,5.09c39.53,13,223.54,152.12,220.41,184.08C1093.52,727.64,688.23,1007.92,638,1004Z" style="fill:url(#fa929eef-3a67-4ebe-a61e-fa5da25e52ef)"/><path d="M642,929.16c-85.78,16.4-419.32-247.17-370-400s605.05-161,738.89-71.34C1176.74,568.93,807.85,897.46,642,929.16Z" style="fill:#ff778f;opacity:0.81;mix-blend-mode:multiply"/><path d="M412.49,351.58c-9.28,1.64-55.55,58.38-56.44,74.79s228.36,95.5,280.09,101.87,290.34-86.76,290.34-86.76-45.28-93.62-57.9-95S683.36,303.69,412.49,351.58Z" style="fill:#ffa9ff;opacity:0.55"/><path d="M213.38,554.54c7.91,29.06,399.14,250.8,417.86,254.83s15.18-281.44,15.18-281.44S369.68,453.88,345,441,213.38,554.54,213.38,554.54Z" style="fill:#ffffdb;opacity:0.84;mix-blend-mode:soft-light"/><path d="M649.56,804.74c21.83,19.31,412.14-238,437.44-253.39S926.48,441.48,926.48,441.48s-261.84,85-272.67,110.06S649.56,804.74,649.56,804.74Z" style="fill:#ffa9ff;opacity:0.55"/><path d="M571.34,510.88s-47.8-10.27,68.42-4.18c56.4,3,81,10.61,81,10.61S659,538.89,652.83,538.45,571.34,510.88,571.34,510.88Z" style="fill:#ffffdb"/><path d="M638.33,996.89S650,803,649.61,789.16s-4.6-229.4,4.2-237.62,40.37-24.73,40.37-24.73S673,529.24,660.66,585.6s6.3,212.47,6.47,220.94S638.33,996.89,638.33,996.89Z" style="fill:#ffffdb;mix-blend-mode:overlay"/><path d="M761.64,331.83s-9.79,6.49,28.91,12.43c40.75,6.27,50.67-4,50.67-4A354.67,354.67,0,0,0,761.64,331.83Z" style="fill:#ffffdb"/><path d="M636.12,827.08c-3.77-11-378.29-219.39-378.29-219.39s22.22,87.2,120,206.23S638,1004,638,1004Z" style="fill:#c7008f;mix-blend-mode:multiply"/><path d="M649.88,784.45c-2-13,42.93-19,44.58-11.63s-19.27,47.36-35.12,58.41C646.48,840.2,649.88,784.45,649.88,784.45Z" style="fill:#ffffdb"/><path d="M429.78,361.13c-27.06,4.46-45.37,50.88-44.63,58.92s270.12,58.67,324.91,68.31S884.89,441,898.38,432.42c6.86-4.38-24.09-43.25-114.13-64.35C697.26,347.69,525.42,345.35,429.78,361.13Z" style="fill:#ff004d;opacity:0.30000000000000004;mix-blend-mode:multiply"/><path d="M227.53,569.45S289.31,657.79,365,703.58,631.24,809.37,631.24,809.37,298.09,626.62,227.53,569.45Z" style="fill:#ffffdb;mix-blend-mode:overlay"/><path d="M701.77,786.88S820.29,784.72,909,721.14s159.7-158.08,159.7-158.08S822.49,719.74,701.77,786.88Z" style="fill:#ffe7db;opacity:0.9;mix-blend-mode:soft-light"/></g></g></g></svg>