<svg xmlns="http://www.w3.org/2000/svg" xmlns:xlink="http://www.w3.org/1999/xlink" viewBox="0 0 1280 1280"><defs><linearGradient id="ea1c0ca4-e2e7-41b5-8869-bb893370de33" x1="856.67" y1="968.26" x2="856.67" y2="366.16" gradientUnits="userSpaceOnUse"><stop offset="0.01" stop-color="#48001b"/><stop offset="1" stop-color="#702c11"/></linearGradient><linearGradient id="a5f1e97d-9cbf-4af4-b17b-f4dc4eebcba1" x1="789.64" y1="770.9" x2="789.64" y2="515.59" gradientTransform="matrix(0.66, -0.52, 0.04, 1, 197.38, 342.93)" gradientUnits="userSpaceOnUse"><stop offset="0" stop-color="#403d5b"/><stop offset="0.57" stop-color="#352349"/><stop offset="1" stop-color="#210633"/></linearGradient><linearGradient id="eda6b47e-29be-492d-b0d8-4db4fad6e319" x1="956.1" y1="835.59" x2="956.1" y2="405.08" gradientTransform="matrix(0.66, -0.52, 0.04, 1, 197.38, 342.93)" gradientUnits="userSpaceOnUse"><stop offset="0" stop-color="#625484"/><stop offset="1" stop-color="#675574"/></linearGradient><linearGradient id="ab4aab85-7c3e-4fa3-8f44-5226c31552b0" x1="676.45" y1="905.57" x2="1110.34" y2="530.03" gradientTransform="matrix(0.66, -0.52, 0.04, 1, 197.38, 342.93)" gradientUnits="userSpaceOnUse"><stop offset="0" stop-color="#1d2048"/><stop offset="0.4" stop-color="#1e1136"/><stop offset="1" stop-color="#2a1036"/></linearGradient><linearGradient id="a6e1f2d2-d24b-40d3-ba5d-bb00ae5b1d18" x1="862.15" y1="696.68" x2="862.15" y2="683.59" gradientTransform="matrix(0.67, -0.46, 0.06, 0.99, 190.71, 304.85)" gradientUnits="userSpaceOnUse"><stop offset="0" stop-color="#524f6a"/><stop offset="1" stop-color="#5a4668"/></linearGradient><linearGradient id="efe0486f-eefe-4921-b0b0-c9a60b7a3a13" x1="659.54" y1="754.31" x2="1038.68" y2="544.1" xlink:href="#ab4aab85-7c3e-4fa3-8f44-5226c31552b0"/><linearGradient id="b7be70cc-3d8d-4317-ac9e-51c3d70cdc7a" x1="770.51" y1="987.63" x2="735.9" y2="318.47" gradientUnits="userSpaceOnUse"><stop offset="0" stop-color="#681c48"/><stop offset="0.01" stop-color="#691d47"/><stop offset="0.39" stop-color="#803637"/><stop offset="0.73" stop-color="#8e462d"/><stop offset="1" stop-color="#934b29"/></linearGradient><linearGradient id="b0c7fe62-4f54-4838-8bed-9a7c81ee376a" x1="646" y1="764.86" x2="646" y2="518.66" gradientUnits="userSpaceOnUse"><stop offset="0.01" stop-color="#48001b"/><stop offset="1" stop-color="#511611"/></linearGradient><linearGradient id="b0bd4556-30ac-4853-8e3f-fd8ff1898b17" x1="631.51" y1="748.04" x2="631.51" y2="546.52" gradientUnits="userSpaceOnUse"><stop offset="0.01" stop-color="#360014"/><stop offset="1" stop-color="#2a0211"/></linearGradient><linearGradient id="f57d09f7-97ee-497e-950d-3fd196c28c4e" x1="913.66" y1="1011.97" x2="913.66" y2="726.38" gradientTransform="matrix(0.9, 0.07, -0.14, 1, 139.23, -49.91)" xlink:href="#eda6b47e-29be-492d-b0d8-4db4fad6e319"/><linearGradient id="f8a23ddc-b3dd-481d-aae7-e3477b678ea4" x1="851.46" y1="1020.34" x2="851.46" y2="727.83" gradientTransform="matrix(0.9, 0.07, -0.14, 1, 139.23, -49.91)" gradientUnits="userSpaceOnUse"><stop offset="0" stop-color="#161236"/><stop offset="1" stop-color="#361e47"/></linearGradient><linearGradient id="a8f7d5b1-5d36-449b-a38f-7dbc95126266" x1="691.91" y1="1008.12" x2="691.91" y2="752.92" xlink:href="#b7be70cc-3d8d-4317-ac9e-51c3d70cdc7a"/><linearGradient id="a0aa4066-0e1f-44ab-b8db-7a95f5019624" x1="795.22" y1="843.41" x2="795.22" y2="748.29" gradientTransform="matrix(1, 0, 0, 1, 0, 0)" xlink:href="#eda6b47e-29be-492d-b0d8-4db4fad6e319"/><linearGradient id="ac843d46-52be-4ced-8fbf-4a0a78fafbcd" x1="1000.59" y1="674.99" x2="1000.59" y2="674.49" gradientTransform="matrix(1, 0, 0, 1, 0, 0)" xlink:href="#eda6b47e-29be-492d-b0d8-4db4fad6e319"/><linearGradient id="a7f8941d-c943-4718-a52f-ac252996e3ec" x1="789.68" y1="771.02" x2="789.68" y2="748.37" gradientUnits="userSpaceOnUse"><stop offset="0" stop-color="#161236"/><stop offset="1" stop-color="#301741"/></linearGradient><linearGradient id="ef8a0acc-3a8c-461a-98b6-94d3aec47aae" x1="754.51" y1="429.44" x2="754.51" y2="386.37" gradientTransform="matrix(0.9, -0.08, 0.01, 0.74, 64.41, 190.54)" gradientUnits="userSpaceOnUse"><stop offset="0" stop-color="#883411"/><stop offset="0.99" stop-color="#48001b"/></linearGradient><linearGradient id="ae6bf295-64f0-4bbc-856d-869e9adbb874" x1="428.82" y1="985.57" x2="428.82" y2="778.19" xlink:href="#ea1c0ca4-e2e7-41b5-8869-bb893370de33"/><linearGradient id="fd63da67-31b3-4860-b7ec-de92e67798df" x1="255.22" y1="778.19" x2="255.22" y2="775.62" xlink:href="#ea1c0ca4-e2e7-41b5-8869-bb893370de33"/><linearGradient id="ba8a3397-6b7b-4265-94b3-15fe6e21b82d" x1="555.64" y1="1058.6" x2="555.64" y2="767.04" gradientTransform="matrix(0.99, 0.22, -0.15, 0.98, 86.49, -140.04)" xlink:href="#eda6b47e-29be-492d-b0d8-4db4fad6e319"/><linearGradient id="e2279e26-f331-4333-a794-76aa36c29870" x1="358.08" y1="1069.17" x2="735.73" y2="742.3" gradientTransform="matrix(0.99, 0.22, -0.15, 0.98, 86.49, -140.04)" xlink:href="#ab4aab85-7c3e-4fa3-8f44-5226c31552b0"/><linearGradient id="b4693441-dfb8-4514-a634-f52298f2486d" x1="422.29" y1="941.95" x2="422.29" y2="785.47" gradientTransform="matrix(1, 0, 0, 1, 0, 0)" xlink:href="#a5f1e97d-9cbf-4af4-b17b-f4dc4eebcba1"/><linearGradient id="a9676564-0ea2-4a8c-a903-bf2f405262d8" x1="281.66" y1="964.16" x2="668.53" y2="629.31" gradientTransform="matrix(1, 0, 0, 1, 0, 0)" xlink:href="#ab4aab85-7c3e-4fa3-8f44-5226c31552b0"/><linearGradient id="e5317e9c-8741-4ec4-b271-da971f202493" x1="453.57" y1="955.89" x2="453.57" y2="940.87" gradientTransform="matrix(1, 0.06, 0.02, 1, -7.98, -42.11)" gradientUnits="userSpaceOnUse"><stop offset="0" stop-color="#524f6a"/><stop offset="1" stop-color="#796985"/></linearGradient><linearGradient id="bbf1ade3-d8a8-4e56-9e80-7556b0cf1b63" x1="423.12" y1="775.62" x2="423.12" y2="369.79" xlink:href="#ea1c0ca4-e2e7-41b5-8869-bb893370de33"/><linearGradient id="b81864c5-7b1c-4097-a3f9-6eb1eca36c8a" x1="161.86" y1="457.57" x2="161.86" y2="196.42" xlink:href="#a5f1e97d-9cbf-4af4-b17b-f4dc4eebcba1"/><linearGradient id="bbe59efb-b2cf-4923-af13-7822f66390ca" x1="351.06" y1="543.43" x2="351.06" y2="83.38" xlink:href="#eda6b47e-29be-492d-b0d8-4db4fad6e319"/><linearGradient id="e03bbde9-bbe2-456f-8b3a-53df053be3b3" x1="50.75" y1="653.34" x2="597.41" y2="180.19" xlink:href="#ab4aab85-7c3e-4fa3-8f44-5226c31552b0"/><linearGradient id="ac11dd83-9125-4ee0-bf10-271f552f636f" x1="242.12" y1="417.76" x2="242.12" y2="404.36" xlink:href="#a6e1f2d2-d24b-40d3-ba5d-bb00ae5b1d18"/><linearGradient id="af53eb07-ab95-44b3-b01c-5b9f98609ab6" x1="37" y1="455.44" x2="427.14" y2="239.12" xlink:href="#ab4aab85-7c3e-4fa3-8f44-5226c31552b0"/><linearGradient id="af820036-320e-4afd-b21f-a23e9f2621f9" x1="799.57" y1="542.67" x2="799.57" y2="488.59" gradientTransform="matrix(1, 0, 0, 1, 0, 0)" xlink:href="#eda6b47e-29be-492d-b0d8-4db4fad6e319"/><clipPath id="a7d27979-4633-4427-aafe-13ad9b667763"><path d="M956,758s-267.64,26.51-293.4,26.26-285.08-17.71-285.08-17.71L376,741.19,615.91,569.26l269.38-7L1026.23,678Z" style="fill:none"/></clipPath><linearGradient id="a7a23aa0-c607-48ef-83dc-eae0784b3da2" x1="661.95" y1="599.82" x2="594.27" y2="434.7" gradientTransform="matrix(0.36, -0.81, 0.92, 0.4, -211.3, 1013.86)" gradientUnits="userSpaceOnUse"><stop offset="0" stop-color="#ff5498"/><stop offset="0.35" stop-color="#ff291e"/><stop offset="0.38" stop-color="#c91120"/><stop offset="1" stop-color="#64004d"/></linearGradient><linearGradient id="bda09901-10b3-40dc-9319-a839beb54d9f" x1="692.22" y1="851.06" x2="613.29" y2="658.49" gradientTransform="matrix(0.57, 0.68, -0.76, 0.65, 815.09, -221.05)" xlink:href="#a7a23aa0-c607-48ef-83dc-eae0784b3da2"/><linearGradient id="b66abb6c-d484-4913-ba7a-ef58f9057446" x1="682.79" y1="817.7" x2="603.86" y2="625.13" gradientTransform="matrix(-0.5, 0.73, -0.83, -0.56, 1632.8, 556.45)" xlink:href="#a7a23aa0-c607-48ef-83dc-eae0784b3da2"/><linearGradient id="fa733b8d-71da-47ec-a48c-96d3754437a8" x1="707.81" y1="826.95" x2="628.88" y2="634.38" gradientTransform="matrix(0.78, -0.43, 0.48, 0.87, -195.63, 407.03)" gradientUnits="userSpaceOnUse"><stop offset="0" stop-color="#ff5498"/><stop offset="0.35" stop-color="#ff291e"/><stop offset="1" stop-color="#98004d"/></linearGradient><linearGradient id="f1b99011-0eea-434f-8eaa-83e7d5729450" x1="916.35" y1="729.5" x2="837.42" y2="536.92" gradientTransform="matrix(0.77, 0.44, -0.49, 0.87, 495.79, -212.75)" xlink:href="#fa733b8d-71da-47ec-a48c-96d3754437a8"/><linearGradient id="b9e3a6da-654d-45e5-a480-9ed35bcddf3a" x1="827.44" y1="629.11" x2="827.44" y2="397.94" gradientTransform="matrix(0.8, -0.26, 0.25, 0.96, 0.51, 196.73)" gradientUnits="userSpaceOnUse"><stop offset="0" stop-color="#d65752"/><stop offset="0.3" stop-color="#e66e3e"/><stop offset="0.74" stop-color="#f88926"/><stop offset="1" stop-color="#ff931d"/></linearGradient><radialGradient id="edce74a0-2277-442b-8a1a-6185cf3648b7" cx="440.09" cy="714.5" r="108.76" gradientTransform="translate(-55.28) scale(1.19 1)" gradientUnits="userSpaceOnUse"><stop offset="0" stop-color="red"/><stop offset="0.18" stop-color="#d70000"/><stop offset="0.57" stop-color="#730000"/><stop offset="1"/></radialGradient></defs><g style="isolation:isolate"><g id="ad1835e4-4ac6-42a8-ab97-f683a640b8a8" data-name="Warstwa 2"><g id="a5139381-a3bc-4f95-9940-c5d208d6af2b" data-name="Warstwa 1"><rect width="1280" height="1280" style="fill:none"/><path d="M669.94,316.35l94.82-.68s10.38-16.69,33-25.22,86.83-13.09,107.65-3.84S948,357.08,948,357.08s-217.51-33-215.77-33.65S669.94,316.35,669.94,316.35Z" style="fill:#68b3db"/><path d="M982.75,968.15c-9.46,1.7-208.48-17.47-224.49-21.11s-105.14-242.7-82.58-406.72c9.71-70.61,187.05-363.81,326,17.78q1.79,5,3.58,10.18L776.91,746.92l263.42,12.6C1049.7,869.4,988.53,967.1,982.75,968.15Z" style="fill:url(#ea1c0ca4-e2e7-41b5-8869-bb893370de33)"/><path d="M798.53,415.34c-8.47,1.57-17,5.5-25.37,12.12-40.65,31.9-81.51,131.59-77.49,189.89,1.7,24.69,13.55,68.32,27.09,110q18.78-12.81,37.45-26.11c-13.06-41.48-24.39-84.64-25.92-109.17C731,540.38,762.89,456.25,798.53,415.34Z" style="fill:url(#a5f1e97d-9cbf-4af4-b17b-f4dc4eebcba1)"/><path d="M1050.77,542,942.34,560.9c-2.51-31.54-6-60.1-10.39-77.21-17.69-69.31-70-120.75-119.34-82a107.29,107.29,0,0,0-14.1,13.67c-8.46,1.58-16.93,5.5-25.34,12.12-40.67,32-81.5,131.56-77.53,190,1.61,23.52,12.48,64.23,25.25,104.13l-12.84,9.31c-10.2-31.11-19.4-63.45-26-94-25.11-116.25,29.07-257.5,93.59-323.68l.06,0c3.06-3.26,6.25-6.37,9.4-9.11,10.27-9.26,89.24-21,111.5-16.85C1035.48,312.86,1051,507.33,1050.77,542Z" style="fill:url(#eda6b47e-29be-492d-b0d8-4db4fad6e319)"/><path d="M711,666.06c1.23,4.55,8.92,33.22,17.87,57.15,59.38-40.82,117.77-85.74,176.54-130.11-3.17-33-7.17-60-7.17-60S706,647.76,711,666.06Z" style="fill:url(#ab4aab85-7c3e-4fa3-8f44-5226c31552b0)"/><path d="M711.56,662.87s1.25-5.43,31.74-32.46S896.59,523.94,896.59,523.94l1.65,9.13S762.72,619.3,738.65,639.62,711.56,662.87,711.56,662.87Z" style="fill:url(#a6e1f2d2-d24b-40d3-ba5d-bb00ae5b1d18)"/><path d="M695.68,600c0,31.38,47.62,30.44,47.62,30.44L896.59,523.94S871.7,394.1,796.51,411.29C720.6,428.65,695.7,582.51,695.68,600Z" style="fill:#ab6377;mix-blend-mode:multiply"/><path d="M811.5,294.72s56.15-5,91.78,46.72C938.13,392,942,407.1,949.12,418.72s79.3,37.18,83.49,32.37-16-92.47-72.78-134.29C917.72,285.77,841.18,275.21,811.5,294.72Z" style="fill:#f6f4ea;opacity:0.2;mix-blend-mode:soft-light"/><path d="M672.89,474.83c-11.33,29.18,13.43,70.59,15.84,73.75s19.95-104,88.63-135c68.38-30.86,95.36,17.89,122.07,92.65,26,72.7,45.11-25.54,42.24-71.61-2.92-46.76-79.8-141.48-132.35-129.49C756.42,317.19,696.38,414.37,672.89,474.83Z" style="fill:#772781;opacity:0.5;mix-blend-mode:multiply"/><path d="M811,589.56s17.27-16.17,44-36.7S894.39,531,894.39,531s-10.54,11.08-37,29.19S811,589.56,811,589.56Z" style="fill:#65637d"/><path d="M663.12,607.67c-4.24-135.39,74.39-252.24,74.39-252.24s-88.61,107.94-97.86,235.5c-4.06,56,10.24,118.24,28.53,172.07,5.32-3.31,10.63-6.6,15.93-10C673.45,707.44,664.64,656.33,663.12,607.67Z" style="fill:#81ceff;mix-blend-mode:soft-light"/><path d="M867.78,291.89c-11.23.57,11.12,8.35,44.16,16.37S926.93,288.94,867.78,291.89Z" style="fill:#c5cfea;mix-blend-mode:soft-light"/><path d="M970.45,377.88c-19-1.52.69,27,7.25,27.7S1010.28,381.09,970.45,377.88Z" style="fill:#c5cfea;opacity:0.30000000000000004;mix-blend-mode:soft-light"/><path d="M963.82,551.38C950.33,563,939.92,572,939.92,572l-34.62,24.9c-2.81-35.65-6.85-68.8-11.88-87.88-15-57.17-53.86-102.1-94.91-93.65-8.46,1.58-16.93,5.5-25.34,12.12-40.67,32-81.5,131.56-77.53,190,1.72,24.69,13.6,68.24,27.1,109.94a1.42,1.42,0,0,1,.14.48l-50,35.94c-11.48-33.5-21.93-68.69-29.35-101.68C616.29,540.55,707.26,374.63,775.63,313.2l.06,0C844.45,251.52,935.41,343,955.38,465.88,959.56,491.76,962.25,521.15,963.82,551.38Z" style="fill:url(#efe0486f-eefe-4921-b0b0-c9a60b7a3a13)"/><path d="M672.86,763.76s83.28-4,104.25-11.35S1050.77,542,1050.77,542s-80-3.46-86.95-1.16S672.86,763.76,672.86,763.76Z" style="fill:#1a0d2d"/><path d="M610.6,520.07H944.89S918.36,369.76,841.82,333.36c-59-28.06-304.38-12.94-304.38-12.94S596.31,395.33,610.6,520.07Z" style="fill:url(#b7be70cc-3d8d-4317-ac9e-51c3d70cdc7a)"/><polygon points="944.89 520.07 672.86 763.76 347.1 764.86 605.23 518.66 944.89 520.07" style="fill:url(#b0c7fe62-4f54-4838-8bed-9a7c81ee376a)"/><polygon points="387.17 743.75 656.71 748.04 875.85 549.64 587.34 546.51 387.17 743.75" style="fill:url(#b0bd4556-30ac-4853-8e3f-fd8ff1898b17)"/><path d="M1061.49,751.76l-.08-.08c-1-.33-2.06,3.31,0,0-10.74,1.49-29.72-2.1-42.78-.78-.08,0,0,2.28-1.35,0-8,.16-14.3-2.28-16-2.36a.26.26,0,0,0,.08-.17,3.08,3.08,0,0,0-.58.17,1.24,1.24,0,0,0,.5.17v.08c-.09.49-.17,1-.25,1.48-8.51.75-17.36,1.57-26.61,2.24-3.23,24.87-7.44,51.48-12,76.11v.08c-8.92,48.85-18.84,90.09-23.71,95.71-1.33,1.57-5.21,3-10.91,4.21a3.07,3.07,0,0,1-.91.17c-2.65.66-5.71,1.15-9.09,1.65-13.31,2.15-31.49,3.72-50.83,5-48.43,3.06-104.21,3.47-108.43,1-1.32-.74-3.22-6.12-5.37-14.79a10.7,10.7,0,0,0-.33-1.33.29.29,0,0,0-.08-.24c-.42-1.91-.83-4-1.33-6.12-1.24-5.45-2.47-11.74-3.8-18.68-1-5.62-2.06-11.73-3.22-18.18-1.9-11.57-3.88-24.3-5.7-37.68-3.39-23.89-6.53-49.76-8.76-74.55-17.36.5-34.55,1.07-51.49,1.49l-18.18.49c4.21,38.93,10.16,78,16.61,113.31,2.4,13.14,4.79,25.7,7.35,37.52.34,2,.75,3.88,1.16,5.78v.09c6.86,31.9,13.64,57.93,19.09,73.88v.08c.09.25.17.5.25.75.58,1.57,1.08,3.14,1.65,4.46,2.65,7.11,5,11.16,6.61,11.65,4,1.24,13.23,1.82,25.87,1.9h.42c27.35.17,70.74-1.82,114-4.87,67.28-4.8,134.22-12.32,139.84-18.35,8.51-9.09,47.44-127.85,68.67-241.73Z" style="fill:url(#f57d09f7-97ee-497e-950d-3fd196c28c4e)"/><path d="M974.39,752.51c-1.41.16-2.81.24-4.22.41-13.88,1-28.43,2.07-43.55,3-2.48,20.49-5.62,42.14-9,62.89a17.41,17.41,0,0,1-.41,2c-.75,5-1.57,10.08-2.48,15-2.32,13.06-4.63,25.54-6.94,36.86-1.66,8.1-3.31,15.62-4.88,22.31-.66,2.81-1.32,5.46-1.9,7.94v.08c-1.16,4.63-2.31,8.68-3.31,12.23,0,.08-.08.25-.08.33a13.75,13.75,0,0,0-.41,1.4c-1.9,6.2-3.56,10.34-4.88,11.82-2.23,2.56-11.73,4.88-25.37,6.7-49.17,6.77-151.65,8.84-157.44,5.53-1.57-.91-3.88-7.76-6.52-18.76-.42-1.73-.83-3.55-1.33-5.45-2.31-10.17-4.87-23-7.44-37.52-2.23-12.31-4.38-25.79-6.52-39.92V839c-3.56-23.55-6.86-48.67-9.26-72.72l-18.18.49c-18,.5-35.7.91-52.65,1.24C612.32,808,618.94,848,626,884.16c2.48,12.56,5,24.71,7.52,36.11.58,2.81,1.24,5.54,1.82,8.27,7.85,34.38,15.54,61.9,21.4,77.35a10.27,10.27,0,0,0,.67,1.66c2.81,7.18,5.12,11.32,6.86,11.81,16.77,4.71,115.45-.57,189.08-8,43.47-4.47,78.27-9.67,82.32-14.05,3.22-3.39,10.16-21.16,18.59-47.94a1.2,1.2,0,0,0,.17-.49,2,2,0,0,0,.16-.66c.58-1.66,1.16-3.39,1.66-5.13,1-3.22,2.06-6.61,3-10.08v-.08c.66-2.23,1.33-4.38,2-6.7,3-10.33,6.11-21.48,9.25-33.3a.29.29,0,0,0,.09-.25c3.3-12.31,6.61-25.29,9.75-38.84.16-.5.25-.91.33-1.16s.16-.58.25-.91a.3.3,0,0,0,.08-.25c2.81-12.14,5.62-24.62,8.35-37.35-.09,0-.09-.08,0-.17,4.38-21,8.34-42.48,11.65-63.72C992.49,751,983.64,751.84,974.39,752.51Zm26.36-4a1.24,1.24,0,0,0,.5.17v-.17a.26.26,0,0,0,.08-.17A3.08,3.08,0,0,0,1000.75,748.54Z" style="fill:url(#f8a23ddc-b3dd-481d-aae7-e3477b678ea4)"/><path d="M926.62,755.9c15.12-.91,29.67-2,43.55-3-4.29,26.86-9.5,53.06-15,77.19-5.53,24.63-11.48,47.19-17.1,66.2-.17.66-.33,1.32-.5,1.9-3.47,11.65-6.78,21.9-9.83,30.41-5.13,14.46-9.51,24-12.32,26.86-15,15.45-129.58,37.19-209.09,47.19-1.15.16-2.31.25-3.38.41-17.61,2.15-33.31,3.72-45.62,4.47-5.87.41-11,.57-15.21.57-12.81-.08-134.79-120.24-228.51-238.51L417,771s82.48-.58,190.57-3c16.95-.33,34.63-.74,52.65-1.24l18.18-.49c16.94-.42,34.13-1,51.49-1.49C797.2,762.59,866.21,759.7,926.62,755.9Z" style="fill:url(#a8f7d5b1-5d36-449b-a38f-7dbc95126266)"/><path d="M699.07,1018.57s147-7.06,191-20.34c43.57-13.16,88.56-136.73,90.63-145.59s-6.44-26.84-6.44-26.84-28.64,8.63-84,11.84C834,840.89,687.63,839,687.63,839l21,56.79s203.41-3.66,212.26.63-7.26,53.7-18.34,63.79-195.69,27.68-195.69,27.68Z" style="fill:#ab6377;mix-blend-mode:multiply"/><path d="M642.19,1008.09s-30.54-113.51-25.35-121.65,302.74-14.8,315.31-13.94-3.44,70.28-21.94,83.93S642.19,1008.09,642.19,1008.09Z" style="fill:#ab6377;opacity:0.2;mix-blend-mode:multiply"/><path d="M604.61,921.79s222.57-11.06,274.2-16.4c51.3-5.3,60.71-9.61,60.71-9.61L924.8,914s-82.81,4.09-170.56,6c-89,1.93-153.38,13.65-153.38,13.65Z" style="fill:#4f0e0a"/><path d="M727.51,921.42s89,1,118.8-.65c31.65-1.71,74.32-6.23,74.32-6.23s-68,2.82-86.16,2.7S727.51,921.42,727.51,921.42Z" style="fill:#8b3e29"/><path d="M971.31,892.93c-3-2.69-18,9.62-21,26.46s2.4,29.39,4.53,29.75S993.46,912.52,971.31,892.93Z" style="fill:#1b0a37"/><path d="M971.31,892.93c-5.54-.65-16.22,8.84-16.41,23.73S967.67,927,975,917.91,975.3,893.39,971.31,892.93Z" style="fill:#ab6377;mix-blend-mode:multiply"/><path d="M950.28,919.39c1.88-4.39,11.35,17.35,11.05,20.82s-6.21,8.31-7.47,8.21S945.63,930.28,950.28,919.39Z" style="fill:#3a294e"/><path d="M893.45,799.41s15.57,18,25.13,19.63,34.8-11.64,34.8-11.64-19.19,11.11-27.68,13.5S901.82,817,893.45,799.41Z" style="fill:#685b7f"/><path d="M952.76,946.83c-1.29-3.18,11.8-7.25,11.8-7.25S953.77,955.54,952.76,946.83Z" style="fill:#65637d"/><path d="M978.42,887.29c-5.29-4.11,10.88-88.06,20.43-97s50.39-11.22,53.78-10.44-22.05,102.37-29.33,120.86S978.42,887.29,978.42,887.29Z" style="fill:#af7fb5;opacity:0.30000000000000004;mix-blend-mode:multiply"/><path d="M994.47,748.37a5.31,5.31,0,0,1,.74-.08c-7.76,33-19,66.94-28.67,77.52C946.78,847.63,602.08,843,602.08,843s-3-34.79-6.78-72.06a.32.32,0,0,1-.08-.25C810.34,763.17,982.16,749.37,994.47,748.37Z" style="fill:url(#a0aa4066-0e1f-44ab-b8db-7a95f5019624)"/><path d="M1001.66,675a20.5,20.5,0,0,1-2.15-.5A11.93,11.93,0,0,1,1001.66,675Z" style="fill:url(#ac843d46-52be-4ced-8fbf-4a0a78fafbcd)"/><path d="M994.47,748.37c-139,19.43-350.16,22.24-399.17,22.57-6.78.08-10.41.08-10.41.08,3.47-.08,6.94-.25,10.33-.33C810.34,763.17,982.16,749.37,994.47,748.37Z" style="fill:url(#a7f8941d-c943-4718-a52f-ac252996e3ec)"/><path d="M818.47,782.33c-19.36,6.28-29.81,14-19.13,19.78,18.26,9.82,32.38,23.74,64.38,16.39,5.6-1.31,11.58-2.54,17.54-3.89,28-6.26,56-13.61,43.29-28.11,0,0-12.72-18.17-56.22-14-6.82.62-13.69,1.57-20.23,2.74a218.87,218.87,0,0,0-29.63,7.13Z" style="fill:#4f2a6f;opacity:0.30000000000000004;mix-blend-mode:multiply"/><path d="M848.1,775.2l-4.17,1.17s22.06-3.72,42-1c19.76,2.75,36,8.36,30.93,19.37s-35.61,19.85-35.61,19.85c28-6.26,56-13.61,43.29-28.11,0,0-12.72-18.17-56.22-14C861.51,773.08,854.64,774,848.1,775.2Z" style="fill:#4f2a6f;opacity:0.5;mix-blend-mode:multiply"/><path d="M956.7,535.91s-29.7,25-35.06,26.59-321.79,8.85-321.79,8.85L627,540.49Z" style="fill:#1a0d2d"/><polygon points="656.71 748.04 649.08 547.6 875.85 549.64 656.71 748.04" style="fill:#ab6377;opacity:0.5;mix-blend-mode:multiply"/><path d="M638.64,412.69c-1.14-20.41,79.25,20,174.16,27.53,91.87,7.29,46.81,75.62-84.75,72C590.65,508.36,638.64,412.69,638.64,412.69Z" style="fill:#ab6377;opacity:0.2;mix-blend-mode:multiply"/><path d="M563.76,329.19s40.94,8.89,91,60.94c47.94,49.85,248.74,33,248.15,28.69s-14.53-72.17-82.39-84.71C750.76,321.22,671.45,320.52,563.76,329.19Z" style="fill:#ffd8ba;opacity:0.30000000000000004;mix-blend-mode:soft-light"/><path d="M576.29,459s134,4.94,214.26-3.59c90.69-9.63,137.16-.22,137.16-.22l.89,6.46S839,461.12,784.82,461c-54.76-.16-101.46,3.79-136.93,3.41-35.71-.38-69.12-2.48-69.12-2.48Z" style="fill:#661f0a"/><path d="M477.47,346.45s195.9-3.54,285.37-2.5c87.8,1,102.89,8.29,102.89,8.29L880,362s-87.78-16.32-157.94-14.82c-71.11,1.53-177,11.56-190.45,11.67s-31.43-.39-31.43-.39Z" style="fill:#661f0a"/><path d="M657.31,355.57s62.94-1.34,97.21-2.56c34-1.21,63.64-.15,63.64-.15s-28.42-6.32-77-4.75A748.91,748.91,0,0,0,657.31,355.57Z" style="fill:#b0703f"/><path d="M846.14,454.08A288.94,288.94,0,0,0,888.53,461C912,463.06,928,455.2,928,455.2S894.25,445.07,846.14,454.08Z" style="fill:#ab6377;mix-blend-mode:multiply"/><path d="M712.16,418.93c-34.36,7.7,34.88,28.72,68.57,24.12C814.16,438.48,781,403.53,712.16,418.93Z" style="fill:url(#ef8a0acc-3a8c-461a-98b6-94d3aec47aae)"/><path d="M710,422.09c-14.6,6.07,25.67,20.42,59.72,13.79C803.58,429.29,753.09,404.18,710,422.09Z" style="fill:#904f81;opacity:0.58;mix-blend-mode:multiply"/><path d="M705.81,428.6s18.12,6.62,48,7.82c29.61,1.19,32.26,5.48,32.26,5.48s-8.88,4.43-35.41,1.67C723.91,440.78,705.81,428.6,705.81,428.6Z" style="fill:#b5643f"/><path d="M539,424.9S414.39,306.28,366.56,306.25c-19.46,0-123.12,78.89-171.93,261.33C171.06,655.7,293.71,966.89,314,992.81c20.14,25.71,251.54,15.68,251.54,15.68L320.05,747.42Z" style="fill:#68b3db"/><path d="M593,985.46c-9.18,1.73-256.53-17.77-272.07-21.49-8.92-2.15-41.57-84.38-63.3-185.78l337.76,2C604.44,892.56,598.57,984.38,593,985.46Z" style="fill:url(#ae6bf295-64f0-4bbc-856d-869e9adbb874)"/><path d="M257,775.62c.17.83.41,1.74.58,2.57h-4.71Z" style="fill:url(#fd63da67-31b3-4860-b7ec-de92e67798df)"/><path d="M627.48,781.22c3.39,71.65-.5,153.88-7.19,161.07-4.21,4.38-40.16,3.14-81-.25l-.91-.08c-55-.91-171.24-15-178.26-19.17-6.45-3.72-34.13-74.63-56.2-144.47l-18.76-.16c35,108.92,81.82,214.13,92.15,218.1,15,5.62,88.51,14.29,161.57,20.57,78.1,6.7,155.7,10.67,161.32,5.29,8.34-8,30.49-126,31.57-240Z" style="fill:url(#ba8a3397-6b7b-4265-94b3-15fe6e21b82d)"/><path d="M658.47,787.5c-19.83,1.65-35.12,2.89-35.12,2.89l-50.58-.66c3.06,68.68-.16,142.64-6.45,149.42-2.14,2.23-12.23,3.06-27,2.89l-.91-.08c-55-.91-171.24-15-178.26-19.17-6.2-3.64-32.15-69.43-53.8-136.78l-73.06-1c35.54,105.37,80.66,204.29,90.66,208.18,19.5,7.35,131.73,18.76,215,23.63,49.5,2.9,88.84,3.64,92.81-.24C640,1008.49,659.55,897.83,658.47,787.5Z" style="fill:url(#e2279e26-f331-4333-a794-76aa36c29870)"/><path d="M360.09,922.79C367.14,927,483.46,941,538.38,942c-55.25-4.59-119.24-13-124.38-16.07C407.83,922.23,382,855,360.84,787q-27.25-.46-54.64-1.53C327.86,852.91,353.89,919.17,360.09,922.79Z" style="fill:url(#b4693441-dfb8-4514-a634-f52298f2486d)"/><path d="M315.11,785.83c8.63,23.51,18.52,44.75,27.13,48.52,57.51,25.15,231.55,26.34,231.55,26.34,1.94-21.59,1.06-49.46-.62-74.6C487.2,787.05,401.71,788.83,315.11,785.83Z" style="fill:url(#a9676564-0ea2-4a8c-a903-bf2f405262d8)"/><path d="M315.11,785.83l.62,1.74S419,789.48,499.88,787C438.47,787.68,377.08,788,315.11,785.83Z" style="fill:#ab6363;mix-blend-mode:multiply"/><path d="M311.2,774.83l3.91,11c62,2.15,123.36,1.85,184.77,1.15,30.29-.94,57.48-2.5,74.93-5C574.81,782,437,788.66,311.2,774.83Z" style="fill:#ab6363;mix-blend-mode:multiply"/><path d="M232.5,782.8s40.06,3.19,72.12,4.13l2.3-1.43c-19.83-.76-39.72-1.73-59.69-3.08Z" style="fill:#ab6363;mix-blend-mode:multiply"/><path d="M311.2,774.83l-6.43,6.09-57.54,1.5c20,1.35,39.86,2.32,59.69,3.08l6.57-4.09Z" style="fill:#ab6363;mix-blend-mode:multiply"/><path d="M339.17,832.29s24,39.93,58.2,59.42c34,19.37,170,1.95,172.79-2.4s3.63-28.62,3.63-28.62S455.6,853.33,339.17,832.29Z" style="fill:#ab6377;mix-blend-mode:multiply"/><path d="M360.09,922.79s35.65-.13,55.73.46S566.3,939.17,566.3,939.17s-2.24,7-64.06,4S360.09,922.79,360.09,922.79Z" style="fill:url(#e5317e9c-8741-4ec4-b271-da971f202493)"/><path d="M644.82,1012.88c-6.88-4.54,4.64-100.42,17.95-114.24s60.42-21.94,63.78-20.9-16.3,114.34-26.46,129.17S644.82,1012.88,644.82,1012.88Z" style="fill:#af7fb5;opacity:0.30000000000000004;mix-blend-mode:multiply"/><path d="M602.15,1017.49s37.23-42.53,47.16-82c0,0-.35,70.27-4.49,77.36S602.15,1017.49,602.15,1017.49Z" style="fill:#332049"/><path d="M302.44,958s-31-81.08-52.57-175.39c-7.7-.51-15.43-1.15-23.16-1.76C255.26,866,293.92,942.32,302.44,958Z" style="fill:#81ceff;mix-blend-mode:soft-light"/><path d="M667.86,901.86c-5.13,7.12-11.47,14.52,3.91,13.65s11.38,12.09,5.94,18.77-9.57-31.63-16.59-1.66-11.73,71.66-3.14,76.77,24.64,15.45,34.75-11.14,1-17.44,1.95-30,5.71,21.62,13.94-.8S721.41,903,718.16,893,673.68,893.77,667.86,901.86Z" style="fill:#f6f4ea;opacity:0.30000000000000004;mix-blend-mode:soft-light"/><path d="M672.58,808.65c-10.58-7.68-.86,26.44-5.1,47s3.75,10.41,8.53,10.61,13.8-38.22,22.52-21.55,26.45,19.59,23.94-17.91S672.58,808.65,672.58,808.65Z" style="fill:#f6f4ea;opacity:0.30000000000000004;mix-blend-mode:soft-light"/><path d="M631.17,796.19C616.22,791.37,607,805.79,593,814s4.23,28-2.71,82.23-30.09,117.62,2.65,89.14,44-9.35,51.5-85.09S637.16,798.12,631.17,796.19Z" style="fill:#f6f4ea;opacity:0.2;mix-blend-mode:soft-light"/><path d="M357.61,938.88c-23.42-10.07-20.48,22.91-25.64,39.06s35.91,11.31,40.68,9.23-16.49-8.61,2-12.81,29.43-2,24,7.19,24,19.07,44.14,13.6,58.61-26.3,44-35.94-71.33-22.52-87.27-23.5S357.61,938.88,357.61,938.88Z" style="fill:#f6f4ea;opacity:0.30000000000000004;mix-blend-mode:soft-light"/><path d="M731.78,782.13s-228.87-20.92-309.49-22.86-189,25.75-189,25.75,380.46,19.49,420.07,18.65S731.78,782.13,731.78,782.13Z" style="fill:#7e687f"/><path d="M606.61,576.53,260.52,775.62c-16.46-73.8-26.83-157.52-17.16-227.68C253.29,475.71,460.82,175.8,603,566.12Q604.78,571.2,606.61,576.53Z" style="fill:url(#bbf1ade3-d8a8-4e56-9e80-7556b0cf1b63)"/><path d="M369,420.07c-8.66,1.61-17.35,5.62-26,12.4-41.57,32.62-83.37,134.6-79.26,194.23,1.74,25.26,13.87,69.89,27.72,112.53q19.22-13.1,38.3-26.71C316.45,670.09,304.87,626,303.3,600.85,299.92,548,332.55,461.92,369,420.07Z" style="fill:url(#b81864c5-7b1c-4097-a3f9-6eb1eca36c8a)"/><path d="M653.15,549.59,516.11,569c-2.56-32.26-6.12-61.47-10.63-79-18.09-70.9-71.57-123.52-122.07-83.92a108.94,108.94,0,0,0-14.42,14c-8.66,1.61-17.32,5.62-25.92,12.39-41.6,32.7-83.37,134.57-79.31,194.32,1.65,24,12.77,65.69,25.83,106.5l-13.13,9.53C266,711,256.61,677.89,249.85,646.68c-25.68-118.91,29.73-263.39,95.74-331.09l.05,0c3.14-3.34,6.4-6.52,9.62-9.32,10.51-9.47,91.29-21.44,114.05-17.23C611.39,315.24,653.42,514.17,653.15,549.59Z" style="fill:url(#bbe59efb-b2cf-4923-af13-7822f66390ca)"/><path d="M279.47,676.53c1.27,4.65,9.13,34,18.29,58.46,60.73-41.75,206.34-141.2,266.45-186.58-3.24-33.75-93.2-7.92-93.2-7.92S274.38,657.81,279.47,676.53Z" style="fill:url(#e03bbde9-bbe2-456f-8b3a-53df053be3b3)"/><path d="M280.05,673.27s1.28-5.56,32.47-33.21S469.31,531.15,469.31,531.15l1.7,9.34s-138.63,88.21-163.25,109S280.05,673.27,280.05,673.27Z" style="fill:url(#ac11dd83-9125-4ee0-bf10-271f552f636f)"/><path d="M263.81,608.93c0,32.1,48.71,31.13,48.71,31.13L469.31,531.15S443.86,398.34,367,415.93C289.3,433.68,263.82,591.06,263.81,608.93Z" style="fill:#ab6377;mix-blend-mode:multiply"/><path d="M382.27,296.69s57.44-5.13,93.89,47.78c35.65,51.76,39.63,67.17,46.89,79s46.61-5.66,50.9-10.59,18.11-50.88-40-93.66C490.92,287.53,412.63,276.73,382.27,296.69Z" style="fill:#f6f4ea;opacity:0.2;mix-blend-mode:soft-light"/><path d="M240.5,480.92c-11.6,29.84,13.73,72.2,16.19,75.44s20.42-106.42,90.66-138.12C417.3,386.68,444.9,436.55,472.22,513c26.56,74.37,46.15-26.13,43.2-73.25-3-47.83-81.62-144.72-135.38-132.45C325.93,319.67,264.52,419.08,240.5,480.92Z" style="fill:#772781;opacity:0.5;mix-blend-mode:multiply"/><path d="M381.72,598.27s17.67-16.54,45-37.53,40.34-22.35,40.34-22.35-10.77,11.33-37.82,29.85S381.72,598.27,381.72,598.27Z" style="fill:#65637d"/><path d="M230.5,616.8c-4.34-138.49,76.1-258,76.1-258S216,469.2,206.49,599.67c-4.15,57.31,10.48,121,29.19,176,5.43-3.38,10.87-6.74,16.29-10.21C241.07,718.86,232.06,666.57,230.5,616.8Z" style="fill:#81ceff;mix-blend-mode:soft-light"/><path d="M439.85,293.8c-11.49.57,11.37,8.54,45.17,16.74S500.35,290.77,439.85,293.8Z" style="fill:#c5cfea;mix-blend-mode:soft-light"/><path d="M486.49,315.78c-19.41-1.56,2.95,13.71,9.66,14.47S527.23,319.06,486.49,315.78Z" style="fill:#c5cfea;mix-blend-mode:soft-light"/><path d="M569.75,547.8c-13.8,11.9-56.11,32.46-56.11,32.46l-35.42,25.47c-2.87-36.46-7-70.37-12.15-89.88C450.71,457.36,411,411.4,369,420.05c-8.66,1.61-17.32,5.62-25.92,12.39-41.6,32.7-83.37,134.57-79.31,194.32,1.76,25.25,13.92,69.8,27.72,112.45a1.12,1.12,0,0,1,.14.49l-51.16,36.77c-11.74-34.27-22.43-70.26-30-104-27.84-124.32,65.21-294,135.15-356.87l.05,0C456.52,224.27,563.76,482.12,569.75,547.8Z" style="fill:url(#af53eb07-ab95-44b3-b01c-5b9f98609ab6)"/><path d="M240.46,776.47s85.19-4.08,106.64-11.61,306-215.27,306-215.27-81.83-3.53-88.94-1.18S240.46,776.47,240.46,776.47Z" style="fill:#1a0d2d"/><path d="M491.17,367c-6,3.85-11.68,44.12.5,64.15,12.08,19.86,30,19.91,32.76,16S535.22,338.69,491.17,367Z" style="fill:#1b0a37"/><path d="M491.17,367c-7,10.6-10.33,39.85,3.24,52.73s24.28-16.76,24.32-39.08C518.76,358.13,496.19,359.32,491.17,367Z" style="fill:#ab6377;mix-blend-mode:multiply"/><path d="M491.67,431.1c-1.92-7.4,29.12-7.91,32-4.39s.55,19.26-1,21.67S496.43,449.38,491.67,431.1Z" style="fill:#442c4e"/><path d="M510,448c.24-1.28,11.91-3.55,13.08-3.13s1.36,2.24,1.36,2.24.14,1.06-4.47,2.11S510,448,510,448Z" style="fill:#65637d"/><path d="M235.68,775.68s23.31-17.11,28.13-23.6-17.55-204.24-14.07-246.81,6.16-58.76,6.16-58.76-47.4,84.11-49.79,160.16S235.68,775.68,235.68,775.68Z" style="fill:#81ceff;mix-blend-mode:soft-light"/><path d="M686.28,792.11s266.83-15.91,379.46-43.29c0,0-220.9-14.51-318.76-9.59s-362.51,20.3-362.51,20.3S635.61,793.72,686.28,792.11Z" style="fill:#7e687f"/><path d="M384.47,768.12s260,17.73,290.08,15.23S963,759.57,963,759.57,784.79,747.69,722.71,748,384.47,768.12,384.47,768.12Z" style="fill:#1a0d2d"/><path d="M642.28,489.2s304.8-1.66,308.78.49,6.47,41.55,5.64,46.22-303.87,6.76-303.87,6.76Z" style="fill:url(#af820036-320e-4afd-b21f-a23e9f2621f9)"/><path d="M659.24,440.56s-10.93,9.07-12.9,18.67,11,78.85,11,78.85l18.53-1Z" style="fill:#ab6377;mix-blend-mode:multiply"/><path d="M938.19,423.28c-4.05,2.59-7.9,29.82.34,43.36s20.26,13.46,22.15,10.83S968,404.17,938.19,423.28Z" style="fill:#1b0a37"/><path d="M938.19,423.28c-4.7,7.16-7,26.93,2.19,35.64s16.41-11.33,16.44-26.42S941.58,418.11,938.19,423.28Z" style="fill:#ab6377;mix-blend-mode:multiply"/><path d="M938.53,466.64c-1.3-5,19.68-5.34,21.63-3s.38,13-.67,14.65S941.74,479,938.53,466.64Z" style="fill:#442c4e"/><path d="M950.91,478.07c.16-.86,8.05-2.4,8.84-2.12s.93,1.52.93,1.52.09.71-3,1.42S950.91,478.07,950.91,478.07Z" style="fill:#65637d"/><path d="M715.26,316.82s102,8.29,127.88,17.19a136.23,136.23,0,0,0-53.4-18.34C759,312.11,715.26,316.82,715.26,316.82Z" style="fill:#68b3db"/><g style="clip-path:url(#a7d27979-4633-4427-aafe-13ad9b667763)"><path d="M574,755.58c-6.28,13.43-97.09,78.87-143.69,60.35-13.44-5.33-30.84-66.88-30.84-66.88s14.65-75.75,43.14-111.2c6.57-8.17,55.71-39.27,63-35.69C549.2,623.58,579.41,744.06,574,755.58Z" style="fill:url(#a7a23aa0-c607-48ef-83dc-eae0784b3da2)"/><path d="M556.73,748c-3.73,21.7-95.49,77-127.18,51.86s15.64-157.05,48.66-180.68C519.12,589.88,564,706.05,556.73,748Z" style="fill:#ff778f;opacity:0.81;mix-blend-mode:multiply"/><path d="M400.09,751c-.43,2.33,8.85,18.28,12.65,19.95s42.78-45.43,48.86-57.07,5.26-76.2,5.26-76.2-26.1,2.38-27.53,5.24S412.8,682.79,400.09,751Z" style="fill:#ffa9ff;opacity:0.55"/><path d="M430.34,815.93c7.56.71,94.56-72,97.17-76s-65.07-28.52-65.07-28.52-42,58.74-47.22,63.42S430.34,815.93,430.34,815.93Z" style="fill:#ffffdb;opacity:0.84;mix-blend-mode:soft-light"/><path d="M528,735.18c6.49-3.44-19.62-118.35-21-125.68s-40.16,28.14-40.16,28.14-3.15,69.31,1.81,74.09S528,735.18,528,735.18Z" style="fill:#ff6da9;opacity:0.55"/><path d="M447.53,733.27s-8.11,12.63,6.19-20.11C460.66,697.27,465.5,691,465.5,691s-.45,20.06-1.25,21.79S447.53,733.27,447.53,733.27Z" style="fill:#ffffdb"/><path d="M572.39,754.86s-44.73-19.94-48-21.07-54.54-19.25-55.7-22.06S466.41,700,466.41,700s-1.31,5.22,10.9,13.12S528,730.48,530,731.2,572.39,754.86,572.39,754.86Z" style="fill:#ffffdb;mix-blend-mode:overlay"/><path d="M426.38,666.82s.66,2.88,5.49-5.72c5.09-9.06,3.56-12.31,3.56-12.31A88.7,88.7,0,0,0,426.38,666.82Z" style="fill:#ffffdb"/><path d="M532.12,740.33c-2.92-.08-85.3,69.82-85.3,69.82s22.55,2.49,59.3-10S574,755.58,574,755.58Z" style="fill:#c7008f;mix-blend-mode:multiply"/><path d="M523.28,733.31c-3.24-.68-.68-11.82,1.21-11.55s9.47,8.74,10.67,13.46C536.14,739.05,523.28,733.31,523.28,733.31Z" style="fill:#ff9f97"/><path d="M403.88,747.73c-1.35,6.78,8,15.21,9.95,15.75s37.78-58.54,44.91-70.62,4.33-45.45,3.49-49.4c-.42-2-12.34,1.86-25.3,21.23C424.41,683.41,408.63,723.76,403.88,747.73Z" style="fill:#ff004d;opacity:0.30000000000000004;mix-blend-mode:multiply"/><path d="M435.11,813.92s26.32-6.75,43.84-20.56,48.56-53.45,48.56-53.45S454.85,802.33,435.11,813.92Z" style="fill:#ffffdb;mix-blend-mode:overlay"/><path d="M528.45,721.28s10-28.16,2.85-54.72-23.14-51.7-23.14-51.7S523.31,686.84,528.45,721.28Z" style="fill:#ffe7db;opacity:0.9;mix-blend-mode:soft-light"/><path d="M522.93,778.25c-10.87-13.45-33-142.09,10.19-181.48,12.46-11.35,85.88,1.87,85.88,1.87s71.92,54.09,94.51,102.07c5.21,11.07,12.68,78.47,5.22,84.26C674,819.7,532.25,789.79,522.93,778.25Z" style="fill:url(#bda09901-10b3-40dc-9319-a839beb54d9f)"/><path d="M539.73,764c-20.84-15-32-139.49,10.65-159.83S707,700.85,714.91,747.55C724.7,805.41,580,793,539.73,764Z" style="fill:#ff778f;opacity:0.81;mix-blend-mode:multiply"/><path d="M616.69,598.28c-2.22-1.65-23.69-.06-27.37,3.06s25.75,68.07,34.84,80.4,77.19,44.47,77.19,44.47,10.84-28.59,8.58-31.55S681.65,646.45,616.69,598.28Z" style="fill:#ffa9ff;opacity:0.55"/><path d="M533.12,596.77c-4.61,7.56,27.09,135.92,30,140.73s63.17-53.63,63.17-53.63S586.2,609.81,584,601.94,533.12,596.77,533.12,596.77Z" style="fill:#ffffdb;opacity:0.84;mix-blend-mode:soft-light"/><path d="M567.82,740.47c.29,8.57,134.09,39.94,142.5,42.22s-9-56.48-9-56.48-71.05-38.75-78.6-36S567.82,740.47,567.82,740.47Z" style="fill:#ff6da9;opacity:0.55"/><path d="M611,657.06s-9.09-15,17.92,16.76c13.11,15.39,17.16,23.66,17.16,23.66s-20.79-10.73-22.2-12.45S611,657.06,611,657.06Z" style="fill:#ffffdb"/><path d="M524.52,776.9s43.76-36.69,46.64-39.56,48.06-47.34,51.59-47.12,13.44,3.63,13.44,3.63-4.81-4.05-19.33,4.72-44.1,44.27-45.87,46S524.52,776.9,524.52,776.9Z" style="fill:#ffffdb;mix-blend-mode:overlay"/><path d="M691.46,668.85s-3.36-.77,3.18,8.69c6.9,10,11.09,10,11.09,10A104,104,0,0,0,691.46,668.85Z" style="fill:#ffffdb"/><path d="M560.34,742.12c1.58-3-29.59-125.12-29.59-125.12S516.62,639.37,511,684.31s12,93.94,12,93.94Z" style="fill:#c7008f;mix-blend-mode:multiply"/><path d="M572.22,736.44c2.36-3.05,12.73,5.33,11.49,7.17s-14,5.46-19.57,4.31C559.63,747,572.22,736.44,572.22,736.44Z" style="fill:#ff9f97"/><path d="M618.15,603.9c-6.42-4.87-20,.6-21.6,2.38s42.05,69.54,51.06,83.19,45.44,27.77,50,28.91c2.32.58,4.36-13.88-9.32-37.38C675.06,658.31,640.84,621.14,618.15,603.9Z" style="fill:#ff004d;opacity:0.30000000000000004;mix-blend-mode:multiply"/><path d="M532.79,602.81s-6.38,31-.86,56.46,31.2,78.23,31.2,78.23S534.84,629.43,532.79,602.81Z" style="fill:#ffffdb;mix-blend-mode:overlay"/><path d="M582.19,748s24.4,24.88,55.9,31,66,2.16,66,2.16S620.92,760.23,582.19,748Z" style="fill:#ffe7db;opacity:0.9;mix-blend-mode:soft-light"/><path d="M624.08,550.44c10.1-14,128.33-69.38,177.73-38.08,14.25,9,20.87,83.33,20.87,83.33s-33.18,83.65-73.49,118.1c-9.3,8-72.34,33-79.9,27.29C624,707.09,615.42,562.48,624.08,550.44Z" style="fill:url(#b66abb6c-d484-4913-ba7a-ef58f9057446)"/><path d="M642.26,562.89c9-24.06,126.11-67.64,157-31.92s-51.9,176.59-94.85,196.54C651.16,752.23,624.92,609.39,642.26,562.89Z" style="fill:#ff778f;opacity:0.81;mix-blend-mode:multiply"/><path d="M822.42,593.37c1-2.58-6.19-22.87-10.18-25.6s-58.85,42.81-68.34,54.84-22.52,86.19-22.52,86.19,30.44,2.91,32.69-.06S793.11,668.74,822.42,593.37Z" style="fill:#c700b3;mix-blend-mode:multiply"/><path d="M801.81,512.36c-8.5-2.44-123.94,62-127.8,66.1s68.39,46.77,68.39,46.77,60.85-58.23,67.85-62.47S801.81,512.36,801.81,512.36Z" style="fill:#ffffdb;opacity:0.84;mix-blend-mode:soft-light"/><path d="M672.37,583.77c-8.18,2.54-3.12,139.88-3.1,148.59s52.11-23.56,52.11-23.56,18.62-78.76,14-85.31S672.37,583.77,672.37,583.77Z" style="fill:#ff6da9;opacity:0.55"/><path d="M764.22,603.38s12-12.72-11.43,21.71c-11.39,16.7-18.3,22.8-18.3,22.8s4.87-22.89,6.15-24.7S764.22,603.38,764.22,603.38Z" style="fill:#ff156d"/><path d="M625.8,551.62s47,32.53,50.48,34.54,58.34,33.86,59.06,37.33,0,13.92,0,13.92,2.63-5.71-9.65-17.4-54.35-30.85-56.5-32.1S625.8,551.62,625.8,551.62Z" style="fill:#ffffdb;mix-blend-mode:overlay"/><path d="M774.09,684.12s-.14-3.45-7.54,5.36c-7.79,9.29-6.73,13.34-6.73,13.34A103.94,103.94,0,0,0,774.09,684.12Z" style="fill:#ffffdb"/><path d="M668.81,577c3.34.73,112.87-61.57,112.87-61.57s-25.31-7.72-70.14-1.31-87.46,36.33-87.46,36.33Z" style="fill:#c7008f;mix-blend-mode:multiply"/><path d="M677.42,587c3.57,1.47-1.77,13.69-3.88,13s-9-12.07-9.32-17.74C663.93,577.59,677.42,587,677.42,587Z" style="fill:#ff9f97"/><path d="M817.38,596.26c3-7.48-5.86-19.17-8-20.21s-56,58.92-66.76,71.21S727.84,698.42,728,703.12c0,2.39,14.54.55,33.58-18.86C779.93,665.52,806.75,622.7,817.38,596.26Z" style="fill:#ff004d;opacity:0.30000000000000004;mix-blend-mode:multiply"/><path d="M795.91,513.64s-31.63,2-54.69,14.08S674,578.46,674,578.46,770.77,522.65,795.91,513.64Z" style="fill:#ffffdb;mix-blend-mode:overlay"/><path d="M668.89,599.62s-17.55,30.11-15.1,62.09S669.13,726,669.13,726,667.34,640.2,668.89,599.62Z" style="fill:#ffe7db;opacity:0.9;mix-blend-mode:soft-light"/><path d="M727.13,862.19c-15.32,8-145.81,4.46-175.93-45.68-8.68-14.45,18.73-83.84,18.73-83.84s67.17-59.87,118.66-72.59c11.87-2.93,79.43,3,83.64,11.46C797.49,722.23,740.28,855.33,727.13,862.19Z" style="fill:url(#fa733b8d-71da-47ec-a48c-96d3754437a8)"/><path d="M716.47,842.92C697.66,860.4,573.42,846.8,561.85,801s125.6-134.56,172.94-133.12C793.44,669.7,752.83,809.13,716.47,842.92Z" style="fill:#ff778f;opacity:0.81;mix-blend-mode:multiply"/><path d="M569.12,734.86c-2,1.86-4.72,23.22-2.38,27.44s71.8-11.85,85.68-18.34S711.2,677,711.2,677,685.31,660.76,682,662.4,629.13,680.65,569.12,734.86Z" style="fill:#ffa9ff;opacity:0.55"/><path d="M551.2,816.51c6.51,6,138.59.17,143.88-1.75s-40.15-72.48-40.15-72.48-80.5,24.75-88.66,25.4S551.2,816.51,551.2,816.51Z" style="fill:#ffffdb;opacity:0.84;mix-blend-mode:soft-light"/><path d="M698.92,810.75c8.46,1.4,65.53-123.62,69.42-131.42S711.2,677,711.2,677s-52,62-50.74,70S698.92,810.75,698.92,810.75Z" style="fill:#ffa9ff;opacity:0.55"/><path d="M633.56,749.75S620.05,754.65,650,738c14.51-8.07,21.82-10,21.82-10s-12,15-13.61,15.87S633.56,749.75,633.56,749.75Z" style="fill:#ffffdb"/><path d="M726.12,860.37s-27.36-50.13-29.62-53.51-37-56.44-36-59.86,6.19-12.46,6.19-12.46-4.9,3.92.83,19.88,34.73,52,36.1,54S726.12,860.37,726.12,860.37Z" style="fill:#ffffdb;mix-blend-mode:overlay"/><path d="M653,675.44s-1.42,3.14,9.14-1.42c11.13-4.8,12-8.9,12-8.9A104.49,104.49,0,0,0,653,675.44Z" style="fill:#ffffdb"/><path d="M699.06,818.41c-2.65-2.15-128.49,4.4-128.49,4.4s19.15,18.25,62.1,32.63,94.46,6.75,94.46,6.75Z" style="fill:#c7008f;mix-blend-mode:multiply"/><path d="M695.84,805.64c-2.53-2.92,7.72-11.44,9.29-9.86s2.59,14.81.37,20C703.69,820.06,695.84,805.64,695.84,805.64Z" style="fill:#ffffdb"/><path d="M574.92,734.54c-6,5.34-3.36,19.76-1.92,21.65s76.45-27.56,91.61-33.71,36.16-39.08,38.18-43.33c1-2.16-12.75-7-38.48,1.79C639.46,689.44,596.28,715.68,574.92,734.54Z" style="fill:#ff004d;opacity:0.30000000000000004;mix-blend-mode:multiply"/><path d="M557.05,818s29.19,12.36,55.2,12,82.83-15.2,82.83-15.2S583.56,821.24,557.05,818Z" style="fill:#ffffdb;mix-blend-mode:overlay"/><path d="M709.14,798.14s29.19-19,41.35-48.72,15.11-64.31,15.11-64.31S728.74,762.57,709.14,798.14Z" style="fill:#ffe7db;opacity:0.9;mix-blend-mode:soft-light"/><path d="M799.9,817.93c-14.84-8.86-80.1-121.92-53.14-173.82,7.78-15,81.24-27.92,81.24-27.92s86.18,25.91,124,63.13c8.71,8.58,39,69.25,34,77.26C956,804.64,812.63,825.54,799.9,817.93Z" style="fill:url(#f1b99011-0eea-434f-8eaa-83e7d5729450)"/><path d="M810.75,798.75c-24.74-6.88-78.18-119.86-45.23-153.66s180.39,36.6,203.94,77.7C998.63,773.7,858.57,812.06,810.75,798.75Z" style="fill:#ff778f;opacity:0.81;mix-blend-mode:multiply"/><path d="M825.71,616.65c-2.65-.78-22.25,8.12-24.63,12.33s47.68,55,60.48,63.41,87.8,15.06,87.8,15.06.3-30.57-2.85-32.57S903.31,639.41,825.71,616.65Z" style="fill:#ffe7db;opacity:0.9"/><path d="M746.76,644.11c-1.71,8.68,72.39,118.18,76.79,121.68s40.75-72.14,40.75-72.14-63.22-55.65-68-62.26S746.76,644.11,746.76,644.11Z" style="fill:#ffffdb;opacity:0.84;mix-blend-mode:soft-light"/><path d="M829,767c3.23,7.94,139.63-8.86,148.31-9.62s-27.93-49.9-27.93-49.9-80.06-11.81-86.19-6.62S829,767,829,767Z" style="fill:#ffa9ff;opacity:0.45"/><path d="M820.56,653.05s1.11-4.49,34.05,21l32.94,25.51s-23.22-2.89-25.14-4S820.56,653.05,820.56,653.05Z" style="fill:#ffffdb"/><path d="M800.93,816.11s28.4-49.55,30.1-53.24,28.75-61,32.14-62S877,699.59,877,699.59s-5.91-2.13-16.51,11.11-26.09,56.78-27.15,59S800.93,816.11,800.93,816.11Z" style="fill:#ffffdb;mix-blend-mode:overlay"/><path d="M911.49,652.63s-6,.76,10.57,12.43c17.48,12.29,24.45,9.82,24.45,9.82A183.54,183.54,0,0,0,911.49,652.63Z" style="fill:#ffffdb"/><path d="M822.53,771.1c.44-3.39-71-107.19-71-107.19s-5.53,25.87,4.69,70,43.68,84,43.68,84Z" style="fill:#c7008f;mix-blend-mode:multiply"/><path d="M831.72,761.67c1.16-3.69,13.79.59,13.26,2.75s-11.26,10-16.88,10.8C823.54,775.91,831.72,761.67,831.72,761.67Z" style="fill:#ffffdb"/><path d="M829,621.42c-7.71-2.36-18.59,7.48-19.45,9.69s63.49,50.73,76.66,60.42,52.24,10.37,56.91,9.86c2.38-.25-.7-14.53-21.66-31.85C901.23,652.81,856.27,629.76,829,621.42Z" style="fill:#ff004d;opacity:0.30000000000000004;mix-blend-mode:multiply"/><path d="M748.55,649.88s4.73,31.34,18.69,53.29,56.31,62.62,56.31,62.62S759.67,674.15,748.55,649.88Z" style="fill:#ffffdb;mix-blend-mode:overlay"/><path d="M845.07,769.08s31.5,14.91,63.15,9.74S970.93,758,970.93,758,885.63,767.16,845.07,769.08Z" style="fill:#ffe7db;opacity:0.9"/></g><path d="M698.84,593.12c-16-11.66-43.42-163-41.08-168.84s39.53-41.9,59-44.3,161.34-3,173.57-.38c20.57,4.45,37.72,165.12,29.39,175.12-4.77,5.72-142.8,13.1-160.18,11.95C745,565.72,706.75,598.87,698.84,593.12Z" style="fill:url(#b9e3a6da-654d-45e5-a480-9ed35bcddf3a)"/><path d="M657.76,424.28c-.94-4.16,50.59-45.37,59-44.3s45.49,181.33,39.92,184.69-55.7,32.8-57.83,28.45C670.67,535.68,658.71,428.46,657.76,424.28Z" style="fill:#770081;opacity:0.63;mix-blend-mode:multiply"/><path d="M717.37,386.17c-11.91-7.58-47,28.9-54.22,40.14s7.87,80.05,28.58,111.05c21.06,31.51,53.89-7,48.59-62.26C735.16,421.32,719.85,387.75,717.37,386.17Z" style="fill:#b62781;opacity:0.30000000000000004;mix-blend-mode:multiply"/><path d="M759.53,566.67s38.75-12.6,81.39-18.17,77.38,3,74.51,7.82S852.26,566.67,759.53,566.67Z" style="fill:#b62781;opacity:0.30000000000000004;mix-blend-mode:multiply"/><path d="M716.75,380s16.13,2.76,80.78,2.09c65-.67,83.08,2.82,87.12,1.46l4-1.35S809.46,372.29,716.75,380Z" style="fill:#ffd8ba;opacity:0.5;mix-blend-mode:soft-light"/><path d="M863.71,454c1.82,13.85-3,33.62-16.42,39.66-5.23,2.39-11.82,2.68-19.94-.44-1-.39-2-.87-3.09-1.34a16.45,16.45,0,0,1-2.17-1.12,11.76,11.76,0,0,1-1.41-.72,56.43,56.43,0,0,1-12.57-9.54c-20-19.58-23.81-50.18-.27-60.86a39.9,39.9,0,0,1,9.63-2.94C831.7,414,860.2,427,863.71,454Z" style="fill:#982c29"/><path d="M847.29,493.61c2.73,11.45-1,25.09-8.64,24-7.3-1-12.57-12.49-14-22.77-.23-1-.27-2.07-.39-3-.4-7,1.09-12.74,5.14-13.09a15.16,15.16,0,0,1,7.62,1.05C842.51,482,845.88,487.43,847.29,493.61Z" style="fill:#982c29"/><path d="M840.15,455.76a50.11,50.11,0,0,1-3.13,24c-2.13,5.44-5.27,10.24-9.67,13.38a11.41,11.41,0,0,1-2.7,1.68c-.23-1-.27-2.07-.39-3a16.45,16.45,0,0,1-2.17-1.12,11.76,11.76,0,0,1-1.41-.72,56.43,56.43,0,0,1-12.57-9.54c-20-19.58-23.81-50.18-.27-60.86C821.79,423.64,837.77,435.86,840.15,455.76Z" style="fill:#5e002c"/><path d="M822.09,490.71a11.76,11.76,0,0,1-1.41-.72,56.43,56.43,0,0,1-12.57-9.54C815.06,480.66,819.56,484.94,822.09,490.71Z" style="fill:#59002c"/><path d="M798.89,425.82c-5.45,4.63-9.52,25.51,7,40.3s34.66-5.77,30.3-20.89S812.86,414,798.89,425.82Z" style="fill:#ab6377;mix-blend-mode:multiply"/><path d="M731.15,418.09c-9.48-4.64-17.93,30.67,2,48.93C753.22,485.48,753.83,429.18,731.15,418.09Z" style="fill:#982c22"/><path d="M729,417.76c-6.27-.42-10.16,22.92.41,34.63s17.74-3.8,11.89-17.68S733.34,418.05,729,417.76Z" style="fill:#b34377;mix-blend-mode:multiply"/><path d="M725,455.08c.07-6.09,18.66,4.78,20,11.76C745.88,471.67,732.86,474.24,725,455.08Z" style="fill:#ff833d"/><path d="M737.11,386.21c-14.6,1,6.95,27.1,19.09,54.4,12.32,27.69,25.57-23.87,64.29-27s51.74,39.73,60.76,77.16c9.19,38.16,37.52-23.55,27.22-61.58-10.12-37.31-14.33-41.29-20.4-44.66S833.06,379.63,737.11,386.21Z" style="fill:#d789ba;opacity:0.30000000000000004;mix-blend-mode:multiply"/><path d="M847.29,493.61l-17.83.29s-4.93,1.26-4.69,2.17,5,22.61,16.23,20.75S847.29,493.61,847.29,493.61Z" style="fill:#ce6377;mix-blend-mode:multiply"/><path d="M698.84,593.12c3.75,4.94,167.31-3.06,176.69-5.53s42.64-30,44.18-32.87-145.42,3.84-162.52,8S698.84,593.12,698.84,593.12Z" style="fill:#5e002c"/><path d="M725,589.56c-9.18-3.83,39.9-21.84,99.79-27.32s65.11,4.43,67.31,4.43-23.85,18.49-77,22.89S725,589.56,725,589.56Z" style="fill:#ffd8ba;opacity:0.30000000000000004;mix-blend-mode:soft-light"/><ellipse cx="469.31" cy="714.5" rx="129.65" ry="108.76" style="opacity:0.5;mix-blend-mode:screen;fill:url(#edce74a0-2277-442b-8a1a-6185cf3648b7)"/><path d="M477.68,773.19s26.53-16.91,30.79-23.13-4.57-22.7-4.57-22.7l4-56.38s.92,83.25,14.61,105.95Z" style="fill:#8d117d;opacity:0.8;mix-blend-mode:multiply"/><path d="M623,611.1S646.79,648,653.57,654s22.37,10.88,22.37,10.88L636.2,683.79S625,646.63,623,611.1Z" style="fill:#8d117d;opacity:0.8;mix-blend-mode:multiply"/><path d="M733.6,779c-7.75-2.65,15.56-55.09,15.56-55.09l21.39,50.88Z" style="fill:#8d117d;opacity:0.8;mix-blend-mode:multiply"/><path d="M572,730.84s16.69-24.11,29.73-33.52c15.91-11.49,25.41-7.88,25.41-7.88Z" style="fill:#8d117d;opacity:0.8;mix-blend-mode:multiply"/><path d="M863.27,673s-3.65,28.26-18.27,29c18,3.18,18.27,20.63,18.27,20.63s.26-17.45,18.27-20.63C866.93,701.23,863.27,673,863.27,673Z" style="fill:#fff"/></g></g></g></svg>