<svg xmlns="http://www.w3.org/2000/svg" xmlns:xlink="http://www.w3.org/1999/xlink" viewBox="0 0 1280 1280"><defs><radialGradient id="f22e916e-150b-4a2b-805d-ddfac7bc03eb" cx="640" cy="640" r="559.32" gradientTransform="translate(640 -265.1) rotate(45)" gradientUnits="userSpaceOnUse"><stop offset="0" stop-color="#fc8b00"/><stop offset="0.12" stop-color="#fc8b00" stop-opacity="0.81"/><stop offset="0.3" stop-color="#fc8b00" stop-opacity="0.57"/><stop offset="0.47" stop-color="#fc8b00" stop-opacity="0.37"/><stop offset="0.63" stop-color="#fc8b00" stop-opacity="0.21"/><stop offset="0.78" stop-color="#fc8b00" stop-opacity="0.09"/><stop offset="0.91" stop-color="#fc8b00" stop-opacity="0.02"/><stop offset="1" stop-color="#fc8b00" stop-opacity="0"/></radialGradient><linearGradient id="b2e0614d-8163-43bc-aef7-5ef8af9ba00e" x1="338.64" y1="1155.34" x2="928.05" y2="1155.34" gradientTransform="translate(443.15 -287.25) rotate(30)" gradientUnits="userSpaceOnUse"><stop offset="0.01" stop-color="#781916"/><stop offset="0.31" stop-color="#963333"/><stop offset="1" stop-color="#450e0e"/></linearGradient><linearGradient id="b0e31792-df93-48d1-8c45-a873a8816e7f" x1="338.64" y1="1131.24" x2="369.66" y2="1131.24" gradientTransform="translate(443.15 -287.25) rotate(30)" gradientUnits="userSpaceOnUse"><stop offset="0" stop-color="#616dbe"/><stop offset="0.6" stop-color="#c3c7e6"/><stop offset="1" stop-color="#fff"/></linearGradient><linearGradient id="bc08fcc8-8924-4874-8352-5ba2f0a97321" x1="456.52" y1="1189.36" x2="574.4" y2="1189.36" gradientTransform="translate(443.15 -287.25) rotate(30)" gradientUnits="userSpaceOnUse"><stop offset="0" stop-color="#ab665d"/><stop offset="1" stop-color="#2b2321"/></linearGradient><linearGradient id="ad17c1dd-3070-4f6b-8bda-e48eb003db65" x1="759.65" y1="1181.67" x2="843.85" y2="1181.67" xlink:href="#bc08fcc8-8924-4874-8352-5ba2f0a97321"/><linearGradient id="f1b3b643-b993-4b77-8137-897c3bc15913" x1="882.71" y1="1134.99" x2="928.05" y2="1134.99" gradientTransform="translate(443.15 -287.25) rotate(30)" gradientUnits="userSpaceOnUse"><stop offset="0" stop-color="#fff"/><stop offset="0.4" stop-color="#c3c7e6"/><stop offset="1" stop-color="#616dbe"/></linearGradient><radialGradient id="a0d5deaa-74a7-434e-96a4-a88244b902d5" cx="535.73" cy="1313.6" r="402.85" gradientTransform="translate(443.15 -287.25) rotate(30)" gradientUnits="userSpaceOnUse"><stop offset="0" stop-color="#bf4444"/><stop offset="1" stop-color="#57172e"/></radialGradient><radialGradient id="affa8fb6-d14c-4d74-8e00-dd2e2fa8cb77" cx="616.13" cy="981.36" r="344.85" gradientTransform="translate(443.15 -287.25) rotate(30)" gradientUnits="userSpaceOnUse"><stop offset="0" stop-color="#ffa536"/><stop offset="1" stop-color="#a11300"/></radialGradient><radialGradient id="a64065f4-ec29-49e2-8f28-92014d16f079" cx="609.7" cy="868.98" r="314.72" gradientTransform="translate(443.15 -287.25) rotate(30)" gradientUnits="userSpaceOnUse"><stop offset="0" stop-color="#e94e1b"/><stop offset="0.12" stop-color="#e44c1a"/><stop offset="0.25" stop-color="#d74819"/><stop offset="0.38" stop-color="#c04016"/><stop offset="0.53" stop-color="#a13613"/><stop offset="0.67" stop-color="#78280e"/><stop offset="0.82" stop-color="#471808"/><stop offset="0.97" stop-color="#0d0402"/><stop offset="1"/></radialGradient><radialGradient id="f146b0b2-7069-479b-80c7-1ed86b24725c" cx="534.97" cy="845.76" r="290.45" gradientTransform="translate(443.15 -287.25) rotate(30)" gradientUnits="userSpaceOnUse"><stop offset="0" stop-color="#f39200"/><stop offset="0.11" stop-color="#ee8f00"/><stop offset="0.24" stop-color="#e18700"/><stop offset="0.37" stop-color="#ca7a00"/><stop offset="0.51" stop-color="#ab6700"/><stop offset="0.66" stop-color="#824e00"/><stop offset="0.8" stop-color="#503000"/><stop offset="0.95" stop-color="#170e00"/><stop offset="1"/></radialGradient><radialGradient id="ba542755-2e13-4cd1-8b79-ab387127c07c" cx="533.08" cy="863.14" r="362.29" gradientTransform="translate(443.15 -287.25) rotate(30)" gradientUnits="userSpaceOnUse"><stop offset="0" stop-color="#ffa536"/><stop offset="1" stop-color="#d14a00"/></radialGradient><radialGradient id="f0129873-ab14-477a-9274-e447f1597c73" cx="616.4" cy="441.94" r="267.14" xlink:href="#affa8fb6-d14c-4d74-8e00-dd2e2fa8cb77"/><radialGradient id="f8a5a2a0-1135-467c-a8c2-48ad4cdf5e72" cx="482.33" cy="800.78" r="306.54" xlink:href="#a64065f4-ec29-49e2-8f28-92014d16f079"/><radialGradient id="fe6f91c8-5cb5-4e0e-8a72-daa8593610e3" cx="494.29" cy="875.45" r="188.19" xlink:href="#f146b0b2-7069-479b-80c7-1ed86b24725c"/><radialGradient id="b2264036-89d9-4d4f-939a-fcf80e0a18fc" cx="619.93" cy="884.37" r="155.51" xlink:href="#a64065f4-ec29-49e2-8f28-92014d16f079"/><radialGradient id="e7ebf9ea-70b9-45c2-9a78-e691b9b00f39" cx="611.29" cy="918.22" r="94.35" xlink:href="#f146b0b2-7069-479b-80c7-1ed86b24725c"/><radialGradient id="f60152d8-b7ae-4386-bffe-1a31a51299ac" cx="743.77" cy="936.36" r="138.31" gradientTransform="translate(443.15 -287.25) rotate(30)" gradientUnits="userSpaceOnUse"><stop offset="0" stop-color="#c30"/><stop offset="1" stop-color="#fff"/></radialGradient><radialGradient id="aa36bc44-7a11-448d-b24d-f72b3caa4923" cx="627.18" cy="479.12" r="197.72" xlink:href="#a64065f4-ec29-49e2-8f28-92014d16f079"/><radialGradient id="a313c3e4-4d25-4e14-b415-b340a9c96c11" cx="660.03" cy="463.74" r="287.54" xlink:href="#ba542755-2e13-4cd1-8b79-ab387127c07c"/><radialGradient id="b79ff75a-eada-4f58-bd97-d64633807035" cx="604.25" cy="394" r="214.04" xlink:href="#a64065f4-ec29-49e2-8f28-92014d16f079"/><radialGradient id="a958d4d7-84db-4969-8277-b0e7a6f91b3b" cx="577.17" cy="415.07" r="161.44" xlink:href="#f146b0b2-7069-479b-80c7-1ed86b24725c"/><radialGradient id="a1aacc97-6ade-4da7-a30e-28b005dc5bfe" cx="723.55" cy="430.23" r="277" xlink:href="#f60152d8-b7ae-4386-bffe-1a31a51299ac"/><radialGradient id="a51322e8-d257-46a2-9d09-d70ce5560375" cx="294.44" cy="430.11" r="1110.95" gradientTransform="translate(443.15 -287.25) rotate(30)" gradientUnits="userSpaceOnUse"><stop offset="0" stop-color="#ccf0ef"/><stop offset="1" stop-color="#5e73e6"/></radialGradient><radialGradient id="f4fa5f37-9521-4691-b9eb-d2c227ea78fa" cx="1119.4" cy="771.23" r="656.3" gradientTransform="translate(443.15 -287.25) rotate(30)" gradientUnits="userSpaceOnUse"><stop offset="0.37"/><stop offset="1" stop-color="#fff"/></radialGradient><radialGradient id="ed762602-0be3-4352-a86d-bd46fa7ee1d2" cx="626.8" cy="651.19" r="766.66" gradientTransform="translate(443.15 -287.25) rotate(30)" gradientUnits="userSpaceOnUse"><stop offset="0"/><stop offset="1" stop-color="#fff"/></radialGradient><radialGradient id="b968c766-139c-42bf-9572-c29c7f90b538" cx="610.01" cy="926.47" r="877" gradientTransform="translate(443.15 -287.25) rotate(30)" gradientUnits="userSpaceOnUse"><stop offset="0"/><stop offset="0.57" stop-color="#fff"/></radialGradient><radialGradient id="e4969d62-1169-46b4-95fa-5917a40d5c06" cx="789.23" cy="411.53" r="309.12" gradientTransform="translate(-182.57 341.34) rotate(-21.32)" xlink:href="#ed762602-0be3-4352-a86d-bd46fa7ee1d2"/><linearGradient id="b442e036-4240-48c4-bb39-93ad37ec6c84" x1="338.63" y1="338.33" x2="928.04" y2="338.33" xlink:href="#b2e0614d-8163-43bc-aef7-5ef8af9ba00e"/><linearGradient id="b5160a10-7f01-44d3-be64-5379fe87b31f" x1="338.63" y1="314.23" x2="369.65" y2="314.23" xlink:href="#b0e31792-df93-48d1-8c45-a873a8816e7f"/><linearGradient id="e9ffb69d-248e-4413-b1cf-4a75cd9204c2" x1="456.51" y1="372.35" x2="574.39" y2="372.35" xlink:href="#bc08fcc8-8924-4874-8352-5ba2f0a97321"/><linearGradient id="a1bc1f2a-967b-47fe-af9c-d52f5be34a6e" x1="759.64" y1="364.66" x2="843.84" y2="364.66" xlink:href="#bc08fcc8-8924-4874-8352-5ba2f0a97321"/><linearGradient id="f42187bc-ebdf-49ba-bf77-064f5a573d95" x1="882.7" y1="317.98" x2="928.04" y2="317.98" xlink:href="#f1b3b643-b993-4b77-8137-897c3bc15913"/><radialGradient id="aa87cc63-6179-47df-9b69-bee90f7a9df5" cx="397" cy="449.07" r="709.72" xlink:href="#a0d5deaa-74a7-434e-96a4-a88244b902d5"/></defs><g style="isolation:isolate"><g id="e0c01213-45c8-4404-a0bd-09110cd6eb7a" data-name="Warstwa 2"><g id="a46295ec-3401-4bb0-9203-34f984f1e4f2" data-name="Warstwa 1"><rect width="1280" height="1280" style="fill:none"/><circle cx="640" cy="640" r="559.32" transform="translate(-265.1 640) rotate(-45)" style="opacity:0.5;mix-blend-mode:screen;fill:url(#f22e916e-150b-4a2b-805d-ddfac7bc03eb)"/><path d="M707.92,1110.19,674,1168.89c-24.09,41.71-157.88,9.56-298.83-71.82S139.51,915.9,163.59,874.19l33.89-58.7,510.44,294.7Z" style="fill-rule:evenodd;fill:url(#b2e0614d-8163-43bc-aef7-5ef8af9ba00e)"/><path d="M171,923.47l33.89-58.7c-11.32-20.09-14.38-37.14-7.37-49.28l-33.89,58.7c-7,12.14-4,29.19,7.37,49.28Z" style="fill-rule:evenodd;opacity:0.5;mix-blend-mode:multiply;fill:url(#b0e31792-df93-48d1-8c45-a873a8816e7f)"/><path d="M264.68,934.86l-33.89,58.7c25.87,23.73,57.83,48.48,94.24,72.52l33.89-58.69c-36.41-24-68.37-48.8-94.24-72.53Z" style="fill-rule:evenodd;mix-blend-mode:screen;fill:url(#bc08fcc8-8924-4874-8352-5ba2f0a97321)"/><path d="M522.67,1094.25,488.78,1153c29.55,11.94,57.22,20.93,81.81,26.7l33.89-58.7c-24.58-5.76-52.26-14.76-81.81-26.7Z" style="fill-rule:evenodd;opacity:0.5;mix-blend-mode:screen;fill:url(#ad17c1dd-3070-4f6b-8bda-e48eb003db65)"/><path d="M645.4,1127.79l-33.89,58.7c31.6,2.7,54-2.8,62.52-17.6l33.89-58.7c-8.55,14.81-30.92,20.3-62.52,17.6Z" style="fill-rule:evenodd;opacity:0.5;mix-blend-mode:multiply;fill:url(#f1b3b643-b993-4b77-8137-897c3bc15913)"/><path d="M493.26,889.67c139.5,80.55,232.93,179.87,208.69,221.86s-157,10.74-296.48-69.81S172.53,861.85,196.77,819.87s157-10.74,296.49,69.8Z" style="fill:#e26f80;fill-rule:evenodd;mix-blend-mode:screen"/><path d="M496.3,887.31c141,81.38,235.7,181.17,211.62,222.88s-157.87,9.56-298.83-71.82S173.4,857.2,197.48,815.49s157.87-9.56,298.82,71.82Z" style="fill-rule:evenodd;fill:url(#a0d5deaa-74a7-434e-96a4-a88244b902d5)"/><path d="M237.32,832.09a48.1,48.1,0,0,0,8,38c8.44,12.06,18.89,23.56,28.74,33.54,42.25,42.8,97.06,80.61,149,110.59s112.08,58.53,170.27,73.73c13.56,3.54,28.75,6.83,43.41,8.12a48.13,48.13,0,0,0,46.76-24.34l33.43-57.89c28.8-49.9,36.61-107.24,26.08-163.54q-1.57-8.43-3.67-16.75l-1-4.81-501,3.36Z" style="fill-rule:evenodd;fill:url(#affa8fb6-d14c-4d74-8e00-dd2e2fa8cb77)"/><path d="M293.05,882.93l386.39-5.88c-3.15,50.3-25.78,116-54.43,153.41-17.22,22.5-41,22.39-66.26,16.7-93.27-21-181.53-63.82-255.15-124.83-17.07-14.15-14.77-27.23-10.55-39.4Z" style="fill-rule:evenodd;mix-blend-mode:screen;fill:url(#a64065f4-ec29-49e2-8f28-92014d16f079)"/><path d="M326.4,895.11l283-15.64c-3.59,26.49-18.13,71.25-41.7,86.67-23.06,15.09-54.82,12.23-85.72,7.11-26.1-4.32-52.18-9.47-77.46-17.24-37.54-11.55-86.4-36-78.08-60.9Z" style="fill-rule:evenodd;opacity:0.6000000000000001;mix-blend-mode:screen;fill:url(#f146b0b2-7069-479b-80c7-1ed86b24725c)"/><path d="M737.38,826c2.35,5.09,1.58,9.24.25,15.2-10,44.57-75,52.27-122.21,47.72-76-7.3-132.14,33.83-208,36.53-64.66,2.3-170.32-27-170.32-89.91,0-8.12,5.26-16,14-23.52,31.5-27,104.38-54.5,163-69.45,78.19-20,155-27.21,187.4-29,43.48-2.44,118.41,74.51,136,112.46Z" style="fill-rule:evenodd;fill:url(#ba542755-2e13-4cd1-8b79-ab387127c07c)"/><path d="M622.13,561.89c14.61,21.05,20.38,38.61,17.87,51.69-1.17,6.08-.84,16.09,3.66,18.69s13.17-2.21,17.86-6.26c10.07-8.72,28.16-12.51,53.7-10.38,28.66,2.39,57,.9,85.8,0a289.06,289.06,0,0,0,86.68-16c39.74-14,75-36.87,102.33-67.85l-388.87-3.71c6.51,11.52,13.36,22.83,21,33.8Z" style="fill-rule:evenodd;fill:url(#f0129873-ab14-477a-9274-e447f1597c73)"/><path d="M513.11,727.75c-78.9,13.94-148.35,30-219.2,67.78-63.45,33.8,32.22,52.62,57,54.8,83.3,7.35,66.69-5.42,124-54.8,9.11-7.84,18-16.44,28.84-21.63,32.47-15.53,74.45-11,109.6-11.54,9.67-.14,52.24,1.87,34.61-21.63-23.74-31.66-104.72-18.3-134.83-13Z" style="fill-rule:evenodd;opacity:0.6000000000000001;mix-blend-mode:screen;fill:url(#f8a5a2a0-1135-467c-a8c2-48ad4cdf5e72)"/><path d="M494,736.05c-50.37,6.42-129.59,24.39-169.81,51.55-40.5,27.36,11.29,39.76,36.77,40,50.48.51,52.55-14.59,86.89-40,27-20,48.21-26.88,72.47-40.74,13.37-7.64,1-11-7.21-11.54a97.71,97.71,0,0,0-19.11.73Z" style="fill-rule:evenodd;opacity:0.6000000000000001;mix-blend-mode:screen;fill:url(#fe6f91c8-5cb5-4e0e-8a72-daa8593610e3)"/><path d="M474.17,911.26c13.49-3.22,26.41-8.5,39.66-12.62,32.27-10,44.91-15.16,79.67-15.86,15.15-.31,39.24,5.45,41.3-5.51,3-16.14-24.81-37.81-51.38-52.2-36.44-19.73-58.75-21.93-93.31,7-14.89,12.47-26.38,28.3-34.37,42.57-18.07,32.28-24,46.7,18.43,36.59Z" style="fill-rule:evenodd;opacity:0.5;mix-blend-mode:screen;fill:url(#b2264036-89d9-4d4f-939a-fcf80e0a18fc)"/><path d="M512.75,820.41a114.52,114.52,0,0,0-39.66,36.05c-30.8,44.59,17.29,35.89,47.23,27.4,14.81-4.2,31-15.11,33.53-31.37,4.38-27.74-15.48-46.21-41.1-32.08Z" style="fill-rule:evenodd;opacity:0.30000000000000004;mix-blend-mode:screen;fill:url(#e7ebf9ea-70b9-45c2-9a78-e691b9b00f39)"/><path d="M643.75,787.11c-12.13,3.11-23.39,8.13-27.44,15-21,35.9,82.89,92.17,107.79,45.32,3.71-7,3.62-15.77-2.24-25.72a101.19,101.19,0,0,0-21.63-25.6c-19.09-16.19-32.75-15.14-56.48-9Z" style="fill-rule:evenodd;opacity:0.5;mix-blend-mode:multiply;fill:url(#f60152d8-b7ae-4386-bffe-1a31a51299ac)"/><path d="M617.38,538.57,888.05,550c-37,36.41-87.17,53.71-157.65,53.86-21.2,0-40.13-1.49-56.9-8.12-29.83-11.79-44.19-34-56.12-57.14Z" style="fill-rule:evenodd;mix-blend-mode:screen;fill:url(#aa36bc44-7a11-448d-b24d-f72b3caa4923)"/><path d="M811.53,433.75c91,0,185.67,49.58,185.67,82.29s-89.58,59.22-200.09,59.22S597,548.74,597,516s123.47-82.29,214.51-82.29Z" style="fill-rule:evenodd;fill:url(#a313c3e4-4d25-4e14-b415-b340a9c96c11)"/><path d="M818,438.44c-33-2.39-101.86,10.39-146.17,30.59-69.46,31.67-36.28,53.76,23,60.26,44.44,4.87,188.67,21.74,203-41.82,5.41-24.06-51.4-47-79.81-49Z" style="fill-rule:evenodd;mix-blend-mode:screen;fill:url(#b79ff75a-eada-4f58-bd97-d64633807035)"/><path d="M675,472.33c-31.15,16.7-8.19,24.87,20.92,28.76,42.67,5.72,95.35,11.31,119.68-32.73,4.7-8.5,4.09-14.38.68-18.35-6.21-7.22-21.68-8.17-31.32-7.25-30.5,2.92-83.19,15.21-110,29.57Z" style="fill-rule:evenodd;mix-blend-mode:screen;fill:url(#a958d4d7-84db-4969-8277-b0e7a6f91b3b)"/><path d="M947.71,478.29c36.16,34.71,5.25,60.19-31.13,72.42C868.71,566.8,794.36,573,746.19,573.32c16.26,1.27,33.32,1.94,50.92,1.94,110.51,0,200.09-26.52,200.09-59.22,0-26.79-63.47-64.89-136.46-77.81,30.09,7.83,66.71,20.62,87,40.06Z" style="fill-rule:evenodd;opacity:0.5;mix-blend-mode:multiply;fill:url(#a1aacc97-6ade-4da7-a30e-28b005dc5bfe)"/><path d="M706.69,615.1c102.4,22.93,205.2,4.43,268-67.6C873.58,627,706.69,615.1,706.69,615.1Z" style="fill:#fff;fill-rule:evenodd"/><path d="M680.88,708.49c69.16,76.12,91.54,175.73,54.87,262.82C761.3,848.19,680.88,708.49,680.88,708.49Z" style="fill:#fff;fill-rule:evenodd"/><path d="M515.84,1015.21c5.37,2.35,8.92,7.38,7.12,12s-7.91,6.43-13.28,4.07-8.85-8.12-6.44-12.68,7.23-5.78,12.6-3.43Z" style="fill:#f9b233;fill-rule:evenodd;opacity:0.75"/><path d="M576.14,785.82c-.4,3.18,1.57,5.43,5,6.66s6.29,1.1,6.72-2.36-2.05-5.69-5.58-6.71-5.71-.77-6.1,2.41Z" style="fill:#f9b233;fill-rule:evenodd;opacity:0.75"/><path d="M576.62,836.26c4.37-2.66,8.61-1.59,12.12,2s4.81,7.52,0,10.42-9.24,1.15-12.51-2.79-4-7,.34-9.65Z" style="fill:#f9b233;fill-rule:evenodd;opacity:0.75"/><path d="M567.47,691.33c4.37-2.67,8.61-1.59,12.12,2s4.81,7.51,0,10.41-9.24,1.16-12.51-2.79-4-7,.34-9.64Z" style="fill:#f9b233;fill-rule:evenodd"/><path d="M618.65,655.86c5.37-3.27,10.57-2,14.88,2.48s5.9,9.23.06,12.79-11.35,1.41-15.35-3.43-5-8.57.41-11.84Z" style="fill:#c94300;fill-rule:evenodd"/><path d="M430.57,894.72c-2.67-2.24-2.33-5.8-.25-8.25s6.84-1.14,8.84,1.15,1.48,7.18-.85,8.65-5.07.68-7.74-1.55Z" style="fill:#f9b233;fill-rule:evenodd;opacity:0.75"/><path d="M379.76,953.91c3.9-4.48,8.65-5.26,13.57-2.06a9.79,9.79,0,0,1,2.06,14.59c-3.89,4.48-10.53,4.37-16.33,1.88s-3.19-9.93.7-14.41Z" style="fill:#f9b233;fill-rule:evenodd;opacity:0.4"/><path d="M642.06,1042.26c6.7.07,9.81-3.21,9.87-8.42s-2.29-9.47-9.59-9.55-10,4-9.53,9.33,2.55,8.56,9.25,8.64Z" style="fill:#f9b233;fill-rule:evenodd;opacity:0.75"/><path d="M565,1047.58c4.87.54,8.08-2.9,8.5-7.86s-3.62-8.56-8.15-9-8.43,4.42-8.06,8.75,2.84,7.5,7.71,8.06Z" style="fill:#f9b233;fill-rule:evenodd;opacity:0.4"/><path d="M646.81,996.89c3.6,2.23,8.18,1.89,10.41-1.71a7.87,7.87,0,0,0-2.67-10.68c-3.61-2.23-8.63-1.45-10.55,2.49s-.79,7.67,2.81,9.9Z" style="fill:#f9b233;fill-rule:evenodd;opacity:0.75"/><path d="M467.45,985.08c4.32,3.31,9.35,1.87,12.58-2.6s1.47-10.21-2.61-13.19-10.55-.63-12.68,3.71-1.6,8.76,2.71,12.08Z" style="fill:#f9b233;fill-rule:evenodd;opacity:0.4"/><path d="M543.08,819.22c5,0,10.42-2.77,9.48-7.38s-4.12-8.42-9.12-8.48-9.21,4.1-9.23,8.26,3.88,7.55,8.87,7.6Z" style="fill:#f9b233;fill-rule:evenodd;opacity:0.75"/><path d="M599.82,1083.58c4.49,0,8.46-2.77,8.5-7.25a8.33,8.33,0,0,0-8.26-8.24c-4.49,0-8.63,3.4-8.21,8s3.47,7.4,8,7.45Z" style="fill:#f9b233;fill-rule:evenodd;opacity:0.75"/><path d="M524.45,962c1.85-2.07,4.67-1.71,6.57,0s.73,5.48-1.14,7-5.75,1-6.86-.9-.41-4,1.43-6.1Z" style="fill:#f9b233;fill-rule:evenodd;opacity:0.75"/><path d="M557.06,986.31c-1.08,4.09.58,8.37,4.67,9.45a7.88,7.88,0,0,0,9.44-5.67c1.08-4.1-1.13-8.67-5.46-9.36s-7.57,1.48-8.65,5.58Z" style="fill:#f9b233;fill-rule:evenodd;opacity:0.75"/><path d="M588.65,976c-1.91,5.1.93,9.49,6.16,11.28s10.19-1.57,11.85-6.35-2.48-10.27-7.25-11-8.85,1-10.76,6.11Z" style="fill:#f9b233;fill-rule:evenodd;opacity:0.4"/><path d="M410.11,998.92c3.81,2.81,6.95,2.22,9.13-.74s2.61-6.38-1.54-9.44-7.37-1.88-9.31,1.4-2.09,6,1.72,8.78Z" style="fill:#f9b233;fill-rule:evenodd;opacity:0.75"/><path d="M628.78,944.82c-5.76-1.15-10.09-5.82-8.94-11.58a10.91,10.91,0,0,1,12.8-8.31c5.76,1.14,10.13,6.68,8.35,12.5s-6.44,8.53-12.21,7.39Z" style="fill:#f9b233;fill-rule:evenodd;opacity:0.75"/><path d="M324.15,941c3.81,2.81,7,2.22,9.14-.74s2.6-6.38-1.54-9.44-7.37-1.88-9.32,1.4-2.09,6,1.72,8.78Z" style="fill:#f9b233;fill-rule:evenodd;opacity:0.75"/><path d="M508.2,768.36c5.36,2.35,8.92,7.38,7.11,12s-7.91,6.43-13.28,4.07-8.85-8.13-6.43-12.68,7.23-5.78,12.6-3.43Z" style="fill:#f9b233;fill-rule:evenodd;opacity:0.4"/><path d="M690.38,899.9c3.9-4.48,8.65-5.26,13.57-2A9.78,9.78,0,0,1,706,912.43c-3.89,4.48-10.53,4.38-16.33,1.88s-3.19-9.92.7-14.41Z" style="fill:#f9b233;fill-rule:evenodd;opacity:0.75"/><path d="M476.66,824.35c5.37,2.36,8.93,7.38,7.12,12s-7.91,6.43-13.28,4.08-8.85-8.13-6.43-12.69,7.22-5.77,12.59-3.43Z" style="fill:#f9b233;fill-rule:evenodd;opacity:0.75"/><path d="M641,689.59c6.63,2.91,11,9.11,8.78,14.86s-9.76,7.94-16.38,5-10.93-10-8-15.66,8.92-7.13,15.55-4.23Z" style="fill:#f99900;fill-rule:evenodd"/><path d="M700.31,961.59c1.85-2.06,4.68-1.71,6.57,0s.73,5.47-1.14,7-5.75,1-6.85-.9-.42-4,1.42-6.11Z" style="fill:#f9b233;fill-rule:evenodd;opacity:0.75"/><path d="M558.67,744.57c-.39,3.18,1.58,5.42,5,6.66s6.29,1.1,6.72-2.36-2.05-5.69-5.58-6.71-5.71-.77-6.11,2.41Z" style="fill:#f9b233;fill-rule:evenodd;opacity:0.75"/><path d="M616,772.51c-.39,3.18,1.58,5.42,5,6.65s6.29,1.1,6.72-2.36-2.05-5.69-5.58-6.7-5.71-.77-6.11,2.41Z" style="fill:#f9b233;fill-rule:evenodd;opacity:0.4"/><path d="M774,497.82c4.43.05,8.34-2.73,8.39-7.15a8.23,8.23,0,0,0-8.15-8.12c-4.43-.05-8.51,3.36-8.1,7.92s3.43,7.31,7.86,7.35Z" style="fill:#ffc82c;fill-rule:evenodd"/><path d="M788.41,545.14c2.29-2.55,5.79-2.11,8.14,0s.91,6.79-1.42,8.67-7.12,1.24-8.5-1.1-.51-5,1.78-7.58Z" style="fill:#ffc82c;fill-rule:evenodd"/><path d="M931.92,488.3c4.4.05,6.45-2.1,6.49-5.52s-1.51-6.23-6.31-6.28-6.57,2.6-6.25,6.13,1.67,5.62,6.07,5.67Z" style="fill:#ffc82c;fill-rule:evenodd"/><path d="M704.13,472.89c-2.68-4.32-7.55-4.73-11.86-1.88s-4.65,8.44-2.06,12.4,9,4,12.3.94,4.3-7.13,1.62-11.46Z" style="fill:#ffc82c;fill-rule:evenodd;opacity:0.5"/><path d="M610.08,518.11c-.69,5.75,2.36,11.24,8.11,11.92a10.75,10.75,0,0,0,11.71-9.45c.69-5.74-3.17-11.53-9.16-11.65s-10,3.44-10.66,9.18Z" style="fill:#ffc82c;fill-rule:evenodd;opacity:0.5"/><path d="M661.6,543.84c-.5,4.82,2.35,6.1,6.23,6.57s5.74.21,7.72-4.84-3.19-9.18-6.34-9.12a8,8,0,0,0-7.61,7.39Z" style="fill:#ffc82c;fill-rule:evenodd;opacity:0.5"/><path d="M698.71,576.31a7.22,7.22,0,0,1,8.63,1.5c2.52,2.56,2.5,5.89.1,7.33s-6.57.75-8.91-2-2.22-5.34.18-6.78Z" style="fill:#ffc82c;fill-rule:evenodd;opacity:0.5"/><path d="M707.36,524.5c3.67,2.47,5.32,7,2.85,10.64a8.23,8.23,0,0,1-11.32,2.07c-3.67-2.48-5.1-7.6-2.17-11.13s7-4.06,10.64-1.58Z" style="fill:#ffc82c;fill-rule:evenodd;opacity:0.5"/><path d="M769.57,466.51c-1.33,3.75-4.87,6.19-8.62,4.86a7.38,7.38,0,0,1-4.33-9.38c1.33-3.74,5.46-6.13,9.18-4.38a6.76,6.76,0,0,1,3.77,8.9Z" style="fill:#ffc82c;fill-rule:evenodd;opacity:0.5"/><path d="M737.44,503.5c0,3.15-1.85,6.52-4.74,5.87s-5.26-2.68-5.23-5.82,2.67-5.75,5.29-5.72,4.7,2.53,4.68,5.67Z" style="fill:#ffc82c;fill-rule:evenodd;opacity:0.5"/><path d="M758.39,536.9c-.58-2.67,1.34-4.72,3.81-5.24s4.79,2.58,4.92,5-2.53,5.16-4.68,5-3.47-2-4.05-4.67Z" style="fill:#ffc82c;fill-rule:evenodd;opacity:0.5"/><path d="M890.54,489.51c3.94-5.31,3.13-9.69-1-12.76s-8.9-3.65-13.19,2.13-2.63,10.28,1.93,13,8.31,2.93,12.25-2.37Z" style="fill:#ffc82c;fill-rule:evenodd;opacity:0.5"/><path d="M806.75,493.79c3,4.47,8.11,4.74,12.57,1.61s4.64-9,1.79-13.14-9.64-4-13-.6-4.3,7.65-1.35,12.13Z" style="fill:#ffc82c;fill-rule:evenodd;opacity:0.8"/><path d="M796.69,525c2.65,3.23,7,4.38,10.25,1.74a7.75,7.75,0,0,0,.93-10.81c-2.64-3.23-7.57-4.12-10.63-1.06s-3.2,6.9-.55,10.13Z" style="fill:#ffc82c;fill-rule:evenodd;opacity:0.5"/><path d="M846.24,594.28c3,2.79,6.78,2.44,10.6-.14s5.85-5.68,2.6-8.71-7.42-2.15-11.11.74-5.08,5.32-2.09,8.11Z" style="fill:#ffc82c;fill-rule:evenodd;opacity:0.5"/><path d="M884.71,548.15c2.64-3.55,2.7-8.35-.86-11A8.22,8.22,0,0,0,872.49,539c-2.64,3.55-2.28,8.86,1.66,11.2s7.93,1.51,10.56-2.05Z" style="fill:#ffc82c;fill-rule:evenodd;opacity:0.5"/><path d="M936.79,528.65c2.94-4,3.82-9.91-.41-11.83s-9.1-1.59-12,2.37-2.06,9.73,1.24,12.15,8.27,1.27,11.21-2.69Z" style="fill:#ffc82c;fill-rule:evenodd;opacity:0.8"/><path d="M968.46,539.88c2.07-2.27,1.5-5.16-.86-7.2a5.34,5.34,0,0,0-7.55.84c-1.87,2.15-.86,5.91,1.48,7.32a5.13,5.13,0,0,0,6.93-1Z" style="fill:#ffc82c;fill-rule:evenodd;opacity:0.5"/><path d="M599.13,189.72,1049,449.47,1021,498c-29.45,51-76.22,87.31-131.49,106.78a294.42,294.42,0,0,1-88.32,16.27c-28.82.92-57.62,2.4-86.43,0-15.68-1.3-45-1.54-54.23,14.52s5.57,41.3,14.54,54.23c16.48,23.75,29.6,49.43,43.21,74.85a294.47,294.47,0,0,1,30.07,84.63c10.77,57.6,2.72,116.25-26.72,167.26l-33.43,57.89a53.57,53.57,0,0,1-52,27c-14.91-1.31-29.86-4.5-44.32-8.28-30.88-8.06-61.13-19.45-90.25-32.47a935.31,935.31,0,0,1-158.25-91.37c-25.84-18.7-50.82-39.21-73.26-61.93-10.49-10.63-20.73-22-29.32-34.23a53.57,53.57,0,0,1-2.55-58.52l33.42-57.89c29.45-51,76.22-87.31,131.49-106.78a294.53,294.53,0,0,1,88.32-16.27c28.83-.92,57.63-2.4,86.43,0,15.68,1.31,45,1.54,54.24-14.52s-5.57-41.3-14.54-54.22c-16.48-23.75-29.6-49.43-43.21-74.86a294.33,294.33,0,0,1-30.08-84.62c-10.77-57.6-2.72-116.25,26.73-167.26l28-48.54Z" style="fill:#fff;fill-rule:evenodd;opacity:0.1"/><path d="M591.15,159.94l487.66,281.55-38.93,67.42c-32.27,55.9-83.36,95.39-143.12,116.44a316.19,316.19,0,0,1-94.87,17.5c-157.33,5-138.7-27.25-64.39,111.52a315.88,315.88,0,0,1,32.28,90.91c11.65,62.28,3,126.27-29.28,182.17l-38.92,67.42c-23,39.85-150.83,9.13-285.49-68.61S190.91,853.17,213.92,813.32l38.92-67.42C285.11,690,336.21,650.51,396,629.46A316.13,316.13,0,0,1,490.84,612c157.33-5,138.69,27.25,64.39-111.52A316,316,0,0,1,523,409.53c-11.65-62.28-3-126.27,29.27-182.17l38.93-67.42Zm10,37.22L575.82,241C547,290.88,539.2,348.22,549.73,404.52a289.17,289.17,0,0,0,29.52,83.05c13.62,25.43,26.48,50.69,42.88,74.32,36,51.88,18.3,82.53-44.62,77.29-28.67-2.39-57-.9-85.8,0a288.82,288.82,0,0,0-86.69,16c-54,19-99.77,54.47-128.58,104.36L243,817.41a48.11,48.11,0,0,0,2.3,52.67c8.44,12.06,18.89,23.56,28.74,33.54,42.25,42.8,97.06,80.61,149,110.59s112.08,58.53,170.27,73.73c13.56,3.54,28.75,6.83,43.41,8.12a48.13,48.13,0,0,0,46.76-24.34l33.42-57.9c28.81-49.89,36.62-107.23,26.09-163.53a288.85,288.85,0,0,0-29.51-83c-13.62-25.43-26.49-50.69-42.89-74.32-36-51.88-18.3-82.53,44.63-77.29,28.66,2.39,57,.9,85.8,0a289.06,289.06,0,0,0,86.68-16c54-19,99.77-54.47,128.58-104.37l25.3-43.82L601.12,197.16Z" style="fill-rule:evenodd;fill:url(#a51322e8-d257-46a2-9d09-d70ce5560375)"/><path d="M900.55,428.47C868.28,484.36,829.31,530.86,790,563.69c-19.67,16.41-39.45,29.41-58.54,38.47-91.15,43.24-72.51,11-64.38,111.52,1.7,21.05.33,44.68-4,69.94-8.76,50.49-29.54,107.49-61.81,163.39l-76.58,132.63c28.23,11.41,54.68,20,78.17,25.51l68.08-117.92c32.27-55.9,47-116.39,45.54-172.78A268.22,268.22,0,0,0,702.26,734c-41.21-119.66-59.85-87.38,64.39-111.52a268.24,268.24,0,0,0,76.71-28c49.55-26.94,94.59-69.94,126.86-125.83q19.46-33.72,38.92-67.42L939.48,361l-38.93,67.43Z" style="fill-rule:evenodd;opacity:0.35000000000000003;mix-blend-mode:screen;fill:url(#f4fa5f37-9521-4691-b9eb-d2c227ea78fa)"/><path d="M430.17,848.28c32.27-55.9,67.94-104.3,101.73-140.34,16.9-18,33.32-33,48.63-44.19,73.1-53.67,54.46-21.39,64.39-111.53,2.08-18.87,6.8-40.57,14-64.21,14.32-47.29,38.4-102.37,70.67-158.27l38.93-67.42-133-76.79L596.55,253c-32.27,55.9-44.78,117.67-39.62,176.2a280.63,280.63,0,0,0,20.72,84.23C630.9,640,649.54,607.72,513.26,624.91A281,281,0,0,0,430,649.08c-53.26,24.8-100.5,66.52-132.77,122.41L234.29,880.41c24.08,31.72,65,68.72,116.86,104.73l79-136.86Z" style="fill-rule:evenodd;mix-blend-mode:screen;fill:url(#ed762602-0be3-4352-a86d-bd46fa7ee1d2)"/><path d="M488.16,640.7c-48.84,4.53-105,38.52-144.24,80.69-14.21,15.26-48.66,63.45-50.28,84.94-2.44,32.43,67.65,72.1,76.45,57.83,31.36-50.89,58.38-106.55,121.46-172.08,9.63-10,21.07-17.5,31.68-27.07,14.36-12.94-19.81-25.72-35.07-24.31Z" style="fill-rule:evenodd;mix-blend-mode:screen;fill:url(#b968c766-139c-42bf-9572-c29c7f90b538)"/><g style="mix-blend-mode:screen"><path d="M668.64,304.29c-3.3-4.38-41-28.05-46.18-29-4.06-.76-7.88.7-12.67,6-14.19,15.51-25.62,46.54-29.42,61.39-12.71,49.58-10.68,108.32,19.55,147.05,3.26,4.17,10,11.65,15.26,11.5,2.42-.07,3.78-2.77,3-8.92a168.29,168.29,0,0,1,1.2-52.58C626.57,398.51,642.55,361,664,325.43,671.14,313.61,671.47,308.07,668.64,304.29Z" style="fill-rule:evenodd;fill:url(#e4969d62-1169-46b4-95fa-5917a40d5c06)"/></g><path d="M1116.41,402.65l-33.89,58.7c-24.08,41.72-157.87,9.56-298.82-71.82S548,208.37,572.09,166.65L606,108l510.43,294.69Z" style="fill-rule:evenodd;fill:url(#b442e036-4240-48c4-bb39-93ad37ec6c84)"/><path d="M579.46,215.93l33.88-58.7C602,137.15,599,120.09,606,108l-33.89,58.69c-7,12.14-4,29.2,7.37,49.28Z" style="fill-rule:evenodd;opacity:0.5;mix-blend-mode:multiply;fill:url(#b5160a10-7f01-44d3-be64-5379fe87b31f)"/><path d="M673.18,227.32,639.29,286c25.87,23.73,57.83,48.49,94.24,72.53l33.88-58.7c-36.4-24-68.36-48.79-94.23-72.53Z" style="fill-rule:evenodd;mix-blend-mode:screen;fill:url(#e9ffb69d-248e-4413-b1cf-4a75cd9204c2)"/><path d="M931.16,386.72l-33.89,58.7c29.55,11.93,57.23,20.93,81.81,26.69l33.89-58.7c-24.58-5.76-52.26-14.76-81.81-26.69Z" style="fill-rule:evenodd;opacity:0.5;mix-blend-mode:screen;fill:url(#a1bc1f2a-967b-47fe-af9c-d52f5be34a6e)"/><path d="M1053.9,420.26,1020,479c31.6,2.71,54-2.79,62.51-17.6l33.89-58.7c-8.54,14.81-30.92,20.31-62.51,17.61Z" style="fill-rule:evenodd;opacity:0.5;mix-blend-mode:multiply;fill:url(#f42187bc-ebdf-49ba-bf77-064f5a573d95)"/><path d="M901.75,182.14C1041.25,262.68,1134.69,362,1110.45,404s-157,10.73-296.49-69.81S581,154.32,605.27,112.33s157-10.73,296.48,69.81Z" style="fill:#e26f80;fill-rule:evenodd;mix-blend-mode:screen"/><path d="M904.8,179.77c141,81.38,235.69,181.17,211.61,222.88s-157.87,9.56-298.82-71.82S581.89,149.67,606,108,763.85,98.4,904.8,179.77Z" style="fill-rule:evenodd;fill:url(#aa87cc63-6179-47df-9b69-bee90f7a9df5)"/></g></g></g></svg>