<svg xmlns="http://www.w3.org/2000/svg" xmlns:xlink="http://www.w3.org/1999/xlink" viewBox="0 0 1280 1280"><defs><radialGradient id="f5f8c612-cdf1-42bd-9dc1-c3ee2f3e2cd9" cx="640" cy="640" r="560.79" gradientTransform="translate(640 -265.1) rotate(45)" gradientUnits="userSpaceOnUse"><stop offset="0" stop-color="#f33218"/><stop offset="0.05" stop-color="#e12e16" stop-opacity="0.93"/><stop offset="0.06" stop-color="#e12e16" stop-opacity="0.91"/><stop offset="0.25" stop-color="#e12e16" stop-opacity="0.64"/><stop offset="0.44" stop-color="#e12e16" stop-opacity="0.41"/><stop offset="0.61" stop-color="#e12e16" stop-opacity="0.23"/><stop offset="0.76" stop-color="#e12e16" stop-opacity="0.1"/><stop offset="0.9" stop-color="#e12e16" stop-opacity="0.03"/><stop offset="1" stop-color="#e12e16" stop-opacity="0"/></radialGradient><radialGradient id="af338b5a-a636-42b2-95ca-72585a42cd59" cx="203.81" cy="801.64" r="526.38" gradientTransform="translate(0 0.35)" gradientUnits="userSpaceOnUse"><stop offset="0" stop-color="#fff"/><stop offset="1" stop-color="#5e689e"/></radialGradient><radialGradient id="e757df8a-0bcd-4e2e-a9b6-72e4e12a6311" cx="472.13" cy="898.09" r="429.13" gradientTransform="translate(0 0.35)" gradientUnits="userSpaceOnUse"><stop offset="0" stop-color="#ff4f51"/><stop offset="1" stop-color="#8f0000"/></radialGradient><radialGradient id="b13d35e3-0d46-48af-a523-d62c2b670185" cx="476.37" cy="823.48" r="548.73" gradientTransform="translate(0 0.35)" gradientUnits="userSpaceOnUse"><stop offset="0" stop-color="#ff2b60"/><stop offset="0.61" stop-color="#690000"/><stop offset="0.89" stop-color="#cf0034"/></radialGradient><radialGradient id="f688e9b1-e8c0-4fb0-96ea-166993307de8" cx="501.65" cy="953.41" r="515.06" gradientTransform="translate(0 0.35)" gradientUnits="userSpaceOnUse"><stop offset="0" stop-color="#e71d73"/><stop offset="1"/></radialGradient><radialGradient id="bc0b0776-e983-4ef0-9e77-b351ddd85e1e" cx="393.78" cy="971.89" r="447.56" xlink:href="#f688e9b1-e8c0-4fb0-96ea-166993307de8"/><radialGradient id="ab31e311-7e1c-4527-8260-0840c1de9dda" cx="533.93" cy="748.37" r="365.81" xlink:href="#f688e9b1-e8c0-4fb0-96ea-166993307de8"/><radialGradient id="abbaca0e-7034-4599-b061-54c384e7b311" cx="446.29" cy="780.09" r="335.97" xlink:href="#f688e9b1-e8c0-4fb0-96ea-166993307de8"/><radialGradient id="ae9f9957-196d-49d0-a152-c175b2ec515d" cx="541.57" cy="496.55" r="1190.44" gradientTransform="translate(0 0.35)" gradientUnits="userSpaceOnUse"><stop offset="0" stop-color="#94d4d3"/><stop offset="1" stop-color="#4566c4"/></radialGradient><linearGradient id="ae4577d3-4c65-43ee-86c4-1012f497caaa" x1="832.87" y1="515.56" x2="896.97" y2="946.62" gradientUnits="userSpaceOnUse"><stop offset="0" stop-color="#fff"/><stop offset="1"/></linearGradient><radialGradient id="a87201d4-ebe0-4387-b546-d3c769cb7ca3" cx="600.87" cy="326.07" r="353.1" gradientTransform="translate(0 0.35)" xlink:href="#ae4577d3-4c65-43ee-86c4-1012f497caaa"/><radialGradient id="b5969ba9-1555-497a-8f3c-2b888ea00ebf" cx="713.23" cy="372.8" r="189.79" gradientTransform="translate(0 0.35)" xlink:href="#ae4577d3-4c65-43ee-86c4-1012f497caaa"/><radialGradient id="be625ece-2e84-4de3-bdb1-9e3f06d35ab4" cx="616.76" cy="883.46" r="510.51" gradientTransform="translate(0 0.35)" gradientUnits="userSpaceOnUse"><stop offset="0.37"/><stop offset="1" stop-color="#fff"/></radialGradient><radialGradient id="e3816af5-e794-4dca-8ae7-2889f77a6000" cx="574.46" cy="826.82" r="522.54" gradientTransform="translate(0 0.35)" gradientUnits="userSpaceOnUse"><stop offset="0"/><stop offset="1" stop-color="#fff"/></radialGradient><radialGradient id="a2eedf4a-aa96-45ab-8d7e-ab8074bb5dbf" cx="745.28" cy="388.65" r="136.53" gradientTransform="translate(0 0.35)" xlink:href="#ae4577d3-4c65-43ee-86c4-1012f497caaa"/><radialGradient id="b3c42427-b643-447d-a60e-46a93c4c6575" cx="765.28" cy="230.43" r="419.57" gradientTransform="translate(0 0.35)" gradientUnits="userSpaceOnUse"><stop offset="0" stop-color="#ccf0ef"/><stop offset="1" stop-color="#364e82"/></radialGradient><linearGradient id="b416ba39-a19b-49ad-8cb1-3284fbd9b201" x1="302.7" y1="988.14" x2="573.86" y2="1150.22" xlink:href="#ae4577d3-4c65-43ee-86c4-1012f497caaa"/><radialGradient id="acd219ac-3f60-4b12-919b-16cf17c34e24" cx="830.21" cy="347.66" r="163.56" xlink:href="#e3816af5-e794-4dca-8ae7-2889f77a6000"/><radialGradient id="ac3156a7-832f-4136-96ab-9105801d5c95" cx="750.85" cy="225.68" r="489.01" gradientTransform="translate(0 0.35)" gradientUnits="userSpaceOnUse"><stop offset="0" stop-color="#f2ffff"/><stop offset="1" stop-color="#6a79c2"/></radialGradient><radialGradient id="ee7992c8-1079-4ab8-a3d8-a2578918d681" cx="862.98" cy="164.76" r="205.57" gradientTransform="translate(0 0.35)" gradientUnits="userSpaceOnUse"><stop offset="0" stop-color="#ca9e67"/><stop offset="1"/></radialGradient><radialGradient id="f7a7409f-dd99-42f2-86d3-2a2c765351a8" cx="867.88" cy="137.82" r="150.34" xlink:href="#ee7992c8-1079-4ab8-a3d8-a2578918d681"/><linearGradient id="af79b672-94d9-4294-a652-ad9e652192c3" x1="884.7" y1="290.07" x2="851" y2="256.37" gradientUnits="userSpaceOnUse"><stop offset="0" stop-color="#b07a38"/><stop offset="1" stop-color="#704824"/></linearGradient><linearGradient id="bab8c985-a7d9-426f-8af3-92d5b9da9448" x1="974.78" y1="318.66" x2="946.06" y2="289.94" xlink:href="#af79b672-94d9-4294-a652-ad9e652192c3"/><radialGradient id="b1771f6a-c1d5-45d2-b856-ce30b6363d93" cx="882.68" cy="66.35" r="221.26" xlink:href="#ee7992c8-1079-4ab8-a3d8-a2578918d681"/><linearGradient id="addfee12-2d62-4f5c-ad85-c9ece76c89e8" x1="885.5" y1="155.14" x2="941.27" y2="155.14" gradientUnits="userSpaceOnUse"><stop offset="0" stop-color="#6b4e35"/><stop offset="1" stop-color="#87643a"/></linearGradient><linearGradient id="a9c75dac-9f19-4fb5-90a0-cce86e7cb61d" x1="926.6" y1="212.7" x2="966.92" y2="212.7" xlink:href="#addfee12-2d62-4f5c-ad85-c9ece76c89e8"/><linearGradient id="f278d784-07e8-4ff2-9751-19e52ff799de" x1="977.89" y1="234.04" x2="1022.86" y2="234.04" xlink:href="#addfee12-2d62-4f5c-ad85-c9ece76c89e8"/><linearGradient id="b97ef785-4e48-4fcf-8a88-198ea4fd8e40" x1="903" y1="208.55" x2="868.34" y2="173.88" xlink:href="#af79b672-94d9-4294-a652-ad9e652192c3"/><radialGradient id="bda7eccf-f00d-487d-a555-2ae41686ae1e" cx="618.28" cy="860.24" r="361.84" xlink:href="#f688e9b1-e8c0-4fb0-96ea-166993307de8"/></defs><g style="isolation:isolate"><g id="fbe832a0-bb28-4100-8ea3-04ee70344977" data-name="Warstwa 2"><g id="f3a5ba6a-fa2f-4711-aea8-8dfdca0fc8eb" data-name="Warstwa 1"><rect width="1280" height="1280" style="fill:none"/><circle cx="640" cy="640" r="560.79" transform="translate(-265.1 640) rotate(-45)" style="mix-blend-mode:screen;fill:url(#f5f8c612-cdf1-42bd-9dc1-c3ee2f3e2cd9)"/><path d="M499.82,964.26c83.6,48.23,130.8,122.91,105.44,166.81s-113.68,40.38-197.27-7.85S277.19,1000.3,302.55,956.41,416.23,916,499.82,964.26Z" style="fill-rule:evenodd;fill:url(#af338b5a-a636-42b2-95ca-72585a42cd59)"/><path d="M609.63,1125.29c-22.88,39.6-109.53,32.41-193.55-16.07S282.5,989.34,305.37,949.74c38.14,72.66,177.71,171.12,304.26,175.55Z" style="fill:#5accc9;fill-rule:evenodd;mix-blend-mode:multiply"/><path d="M748.63,365.28l-21.92,36.84c-30.8,51-17.07,37.25-65.59,74.64-29.37,22.64-54.83,30.52-90.35,36.92C464.13,532.89,366.41,574,309.93,671.76a266.84,266.84,0,0,0-35.73,130c-1.75,113.65,64.51,217.06,161.72,273.15s220,61.73,317.57,3.39a267,267,0,0,0,94.75-95.89c56.49-97.78,43.24-202.9,6.57-304.8-12.22-33.94-18.12-59.92-13.18-96.66,8.14-60.69,3.1-41.94,31.89-94.09l21-37.39c-26.94-7.43-54.14-20.13-77.74-33.74s-48.21-30.81-68.11-50.41Z" style="fill:#fff;fill-rule:evenodd;opacity:0.15"/><path d="M578.31,606.35C740.52,606.35,872,666.6,872,740.93S740.52,875.5,578.31,875.5,284.59,815.25,284.59,740.93s131.5-134.58,293.72-134.58Z" style="fill-rule:evenodd;fill:url(#e757df8a-0bcd-4e2e-a9b6-72e4e12a6311)"/><path d="M578.31,875.5c-162.22,0-293.72-60.25-293.72-134.57a64.13,64.13,0,0,1,3-19.31,269,269,0,0,0-13.39,80.1c-1.75,113.65,64.51,217.06,161.72,273.15s220,61.73,317.57,3.39a267,267,0,0,0,94.75-95.89c47.56-82.33,45.68-169.85,22-256.28A63.31,63.31,0,0,1,872,740.92c0,74.33-131.49,134.58-293.71,134.58Z" style="fill-rule:evenodd;fill:url(#b13d35e3-0d46-48af-a523-d62c2b670185)"/><path d="M822.63,798.88c0-69.68-123.31-126.18-275.4-126.18-120.61,0-223.11,35.53-260.39,85,18,66.42,141.64,117.82,291.47,117.82,99.94,0,188.23-22.87,241.28-57.81a60.46,60.46,0,0,0,3-18.81Z" style="fill-rule:evenodd;mix-blend-mode:screen;fill:url(#f688e9b1-e8c0-4fb0-96ea-166993307de8)"/><path d="M746.65,812.92c0-59.48-105.24-107.7-235.07-107.69-99.16,0-184,28.12-218.52,67.92C324.57,831.91,440.33,875.5,578.31,875.5c53.76,0,104.16-6.62,147.51-18.18,13.38-13.53,20.83-28.57,20.83-44.4Z" style="fill-rule:evenodd;mix-blend-mode:screen;fill:url(#bc0b0776-e983-4ef0-9e77-b351ddd85e1e)"/><path d="M578.31,875.5c-138,0-253.74-43.59-285.25-102.35a73.91,73.91,0,0,1-5.93-14.46A237.54,237.54,0,0,0,283,799.38c-1.53,99.72,56.6,190.45,141.9,239.67s193,54.16,278.64,3a234.25,234.25,0,0,0,83.14-84.14C813,912.41,822,865.13,820,817.43l-.39.26c-24.51,16.14-56.55,29.71-93.77,39.63-43.35,11.56-93.75,18.18-147.51,18.18Z" style="fill-rule:evenodd;mix-blend-mode:screen;fill:url(#ab31e311-7e1c-4527-8260-0840c1de9dda)"/><path d="M293.06,773.15c-.08-.16-.17-.32-.26-.48.09.16.18.32.26.48ZM578.31,875.5c-138,0-253.74-43.59-285.25-102.35.67-.77,1.35-1.53,2.05-2.29-.48-1.31-.92-2.63-1.3-4q-.54,2.88-1,5.77a196.4,196.4,0,0,0-2.34,27.39c-1.25,81.27,46.12,155.21,115.63,195.32s157.28,44.14,227.08,2.42a191,191,0,0,0,67.76-68.57,200.47,200.47,0,0,0,25.08-72l-.19.05c-43.35,11.56-93.75,18.18-147.51,18.18Z" style="fill-rule:evenodd;mix-blend-mode:screen;fill:url(#abbaca0e-7034-4599-b061-54c384e7b311)"/><path d="M897.25,499.91l25.08-45A154.84,154.84,0,0,1,907,452.48c-5.32-1.13-10.67-2.5-16-4.06l-20.57,36.66c-37.74,68.37-46.45,117.28-18.94,193.71,36.32,100.92,49.6,205-6.3,301.77a263.52,263.52,0,0,1-93.48,94.6c-96.46,57.65-217.8,52-313.9-3.42s-161.64-157.65-159.92-270a263.34,263.34,0,0,1,35.24-128.2C369,576.81,465.92,536.94,571.41,517.23c13.84-2.58,26.17-.81,35.5,6.18,28.14,21.12,49.23,56,94.27,76.88-26-20-65.19-65.57-65.44-91.79-.06-6.39,2-10.83,6.22-13.9,36.28-18.75,61.66-47.27,87.84-90.62l21.49-36.13c-4-3.85-7.88-7.79-11.51-11.82a152.66,152.66,0,0,1-9.86-12.1l-26.41,44.19C667.72,447.38,637.32,474.17,566,487c-116.81,21-219.44,67.22-279.51,171.2C199.9,808,260.76,1005.07,422.37,1098.33s362.8,47.39,449.34-102.42c60.07-104,48.77-215.9,8.61-327.51C855.77,600.21,863.79,560.51,897.25,499.91Z" style="fill-rule:evenodd;fill:url(#ae9f9957-196d-49d0-a152-c175b2ec515d)"/><path d="M856.57,515.63c-14.07,53.24-10.79,85.11-7.43,115,3.8,33.74,10.78,66.14,25,126.67-23-60.09-44.66-99-48.35-130.46-2.08-17.71,6.46-60,30.8-111.2Z" style="fill-rule:evenodd;mix-blend-mode:screen;fill:url(#ae4577d3-4c65-43ee-86c4-1012f497caaa)"/><path d="M827,397.9l69.8,40.27C841.42,534,765.28,593.73,726.73,571.49s-24.89-118,30.49-213.85L827,397.9Z" style="fill-rule:evenodd;opacity:0.5;mix-blend-mode:screen;fill:url(#a87201d4-ebe0-4387-b546-d3c769cb7ca3)"/><path d="M802.25,381.08,834.36,402c-38,61.2-83.12,101.45-100.85,89.9s-1.33-70.5,36.63-131.69l32.11,20.89Z" style="fill-rule:evenodd;opacity:0.5;mix-blend-mode:screen;fill:url(#b5969ba9-1555-497a-8f3c-2b888ea00ebf)"/><path d="M467.42,623.24c-6.89-6.51-15.23-14.72-24.66-14.27-33.95,1.65-74.77,43.77-92.27,69.66-42,62.12-57.59,139.24-29.54,202.42,8.22,18.51,62.7,51.66,63.82,39.36,2.53-27.55,1.91-55,21.6-90.19,25.05-44.83,59.31-75.2,84.94-94.84,33.23-25.47,35.35-34.13,22.89-52.21-16-23.17-41.41-54.85-46.78-59.93Zm147.1-46.31c34.71,38.42,33,61,17.18,79-29.9,33.86-77.16,18.1-107.8-19.76s-36.34-58-20.17-74.9c24.06-25.21,76.08-22.75,110.79,15.68Z" style="fill-rule:evenodd;mix-blend-mode:screen;fill:url(#be625ece-2e84-4de3-bdb1-9e3f06d35ab4)"/><g style="mix-blend-mode:screen"><path d="M592.8,579.92C570,556,537.16,553.15,522.7,567.59c-9.72,9.7-5.59,21.88,14.69,45.34s50.43,34.16,68.34,14.7C615.22,617.3,615.66,603.83,592.8,579.92ZM438,632c-4-2.46-8.59-2.49-15.8,1.06-21.35,10.51-46.16,38.5-56.28,52.58-33.79,47-55.82,109.74-39.88,163,1.72,5.73,5.74,16.37,11.36,18.39,2.58.92,5.13-1.36,6.78-8.18a190.37,190.37,0,0,1,22.9-54.9c24.56-40.39,56.85-73.37,94.08-102,12.39-9.53,15-15.21,13.58-20.36C473.1,675.54,443.09,635.11,438,632Z" style="fill-rule:evenodd;fill:url(#e3816af5-e794-4dca-8ae7-2889f77a6000)"/></g><path d="M795.74,381l16.47,11.18c-25.79,43.8-54.07,74.3-63.17,68.12s4.43-46.69,30.22-90.49L795.74,381Z" style="fill-rule:evenodd;opacity:0.5;mix-blend-mode:screen;fill:url(#a2eedf4a-aa96-45ab-8d7e-ab8074bb5dbf)"/><path d="M896.73,500.61c-9.31,16.12-54.33-5.74-100.55-48.83s-76.13-91.09-66.81-107.21l.3-.53c17.09,22.87,48.2,49.14,87.11,71.59,39.16,22.59,77.72,36.42,106.13,39.65l-26.18,45.33Z" style="fill:#7f8e99;fill-rule:evenodd;opacity:0.5;mix-blend-mode:multiply"/><path d="M969.8,458.6c-18.95,21.18-87.73,6.84-158.28-33.87s-117.34-93-108.51-120c7.77-23.76,31.07-56.48,46.52-73.24l130.37,74.9h0L1010,381.75c-6.85,21.94-23.44,58.11-40.21,76.85Zm-1.3-81.14L871.41,321.2l-97.39-56c-11.09,16.57-3.54,3.09-13.43,20.31C724,349.21,920.7,462.71,957.59,399.24c10-17.17,2.09-3.9,10.91-21.78Z" style="fill-rule:evenodd;fill:url(#b3c42427-b643-447d-a60e-46a93c4c6575)"/><path d="M961,401.2c11.19-19.26,6-11.71,12.64-25.29L873.36,317.82,772.81,260.05c-8.48,12.49-4.51,4.26-15.6,23.55C718,351.87,921.4,469.26,961,401.2Z" style="fill:#fff;fill-rule:evenodd;opacity:0.15"/><path d="M932.86,402.53c-10.49,12.29-52.25,2.73-95.64-22.31-41.84-24.14-70.47-54.19-67.59-69.94.84-4.61,8.37-21.83,18.45-43.28L959.9,366.14c-9.81,14.22-19.27,27.29-27,36.39Z" style="fill:#8e633f;fill-rule:evenodd"/><path d="M582.72,1128.58c-95.65,8.27-230.34-61.76-266.73-153.9,54.79,78.17,172.61,143.4,266.73,153.9Z" style="fill-rule:evenodd;mix-blend-mode:screen;fill:url(#b416ba39-a19b-49ad-8cb1-3284fbd9b201)"/><path d="M683.07,1104.69c106.58-43.35,171.26-126.39,198.09-233.77-3.55,124.51-80.29,217.65-198.09,233.77Z" style="fill:#fff;fill-rule:evenodd"/><path d="M724.58,332.77c-4.41-23.41,30.14-70.95,44.89-89.85l-19.94-11.46c-15.45,16.76-38.75,49.48-46.52,73.24-8.17,25,31.31,71.68,93.14,110.75-28.87-20.75-66-53.11-71.57-82.68Z" style="fill-rule:evenodd;mix-blend-mode:screen;fill:url(#acd219ac-3f60-4b12-919b-16cf17c34e24)"/><path d="M904,264.71c71.92,41.5,119.39,93.89,106,117s-82.5,8.25-154.43-33.25-119.39-93.9-106-117S832,223.21,904,264.71Z" style="fill-rule:evenodd;fill:url(#ac3156a7-832f-4136-96ab-9105801d5c95)"/><path d="M975.53,392.14c-29.37,1.55-77-13.35-125.61-41.38A399.23,399.23,0,0,1,804,320c-7.71,9.75-20.89,10.81-30.94,1.9-10.52-9.32-13.8-26.17-7.81-38.54-16.7-20.11-23.6-38.17-16.9-49.78a18.35,18.35,0,0,1,1.46-2.14c-8.72,23.05,40.3,73.68,112.23,115.19,42.44,24.48,83.65,40.48,113.51,45.56Z" style="fill:#fff;fill-rule:evenodd"/><path d="M968.83,353.8c-11.24,13.17-56,2.91-102.52-23.92-44.85-25.88-75.54-58.09-72.45-75,2.48-13.51,43.82-101.64,63.14-133.57L1031.31,270c-21,28.91-40.15,57.64-62.48,83.8Z" style="fill:#8e633f;fill-rule:evenodd"/><path d="M969.77,336.71c-10.13,11.73-51.27,1.93-94.21-22.85-41.42-23.89-69.93-53.31-67.31-68.49,2.1-12.16,38.16-89.76,55.47-118.31l158.85,135.48c-18.84,25.81-32.67,50.86-52.8,74.17Z" style="fill-rule:evenodd;mix-blend-mode:screen;fill:url(#ee7992c8-1079-4ab8-a3d8-a2578918d681)"/><path d="M939.8,201.19c-35.31,61.12-69.28,92.1-96.24,70.21S832.68,192.72,868,131.6l71.81,69.59Z" style="fill-rule:evenodd;mix-blend-mode:screen;fill:url(#f7a7409f-dd99-42f2-86d3-2a2c765351a8)"/><path d="M867.61,249.46c11.86,2.29,20.35,9.43,20.34,22.6s-7,25.39-16.45,28.48-20.45-12.9-22.62-28,6.87-25.36,18.73-23.07Z" style="fill-rule:evenodd;fill:url(#af79b672-94d9-4294-a652-ad9e652192c3)"/><path d="M979.74,288.23c5.71,8.93,1.29,27.71-9.94,34.63s-26.29,1.55-32.22-5.73.2-21.09,10.71-28.87,25.75-8.95,31.45,0Z" style="fill-rule:evenodd;fill:url(#bab8c985-a7d9-426f-8af3-92d5b9da9448)"/><path d="M958.1,171c-49.77-38.49-93.81-63.33-103.15-47.15-4.86,8.4.21,26,13.18,46.7-7.54,7.41-9.7,25.08.45,38,10.43,13.27,27.47,13.27,36.38,6.68,5.67,5.49,11.73,10.92,18.21,16.23,50.89,41.66,96.7,56.86,108.14,38.53C1040.65,253.82,1007.87,209.5,958.1,171Z" style="fill:#edcaa6;fill-rule:evenodd;opacity:0.25;mix-blend-mode:screen"/><path d="M960.05,167.64c48.69,40.36,80.6,86.18,71.26,102.36s-56.4-3.44-105.1-43.79S845.61,140,855,123.84s56.4,3.44,105.1,43.8Z" style="fill:#936e4e;fill-rule:evenodd"/><path d="M944.29,159.18c40.05,33.2,66.29,70.88,58.6,84.18s-46.38-2.82-86.43-36-66.27-70.88-58.59-84.18,46.37,2.83,86.42,36Z" style="fill-rule:evenodd;mix-blend-mode:screen;fill:url(#b1771f6a-c1d5-45d2-b856-ce30b6363d93)"/><path d="M918.47,146.34c15.14,11.29,25.14,24.39,22.33,29.25s-17.37-.34-32.51-11.63S883.16,139.56,886,134.7s17.36.34,32.5,11.64Z" style="fill-rule:evenodd;fill:url(#addfee12-2d62-4f5c-ad85-c9ece76c89e8)"/><path d="M951.28,204.88C962.13,213,968.9,223,966.4,227.32s-13.31,1.28-24.16-6.8-17.61-18.12-15.12-22.43,13.31-1.28,24.16,6.79Z" style="fill-rule:evenodd;fill:url(#a9c75dac-9f19-4fb5-90a0-cce86e7cb61d)"/><path d="M1005.54,225.1c12.08,9.76,19.56,21.68,16.72,26.61s-15,1-27-8.73-19.56-21.68-16.71-26.61,15-1,27,8.73Z" style="fill-rule:evenodd;fill:url(#f278d784-07e8-4ff2-9751-19e52ff799de)"/><path d="M901.27,209.85c-8,5.43-19.69,4-28.73-7.49s-9-25-1.87-30.7,21.5,0,30.89,11,7.73,21.74-.29,27.18Z" style="fill-rule:evenodd;fill:url(#b97ef785-4e48-4fcf-8a88-198ea4fd8e40)"/><path d="M844.17,923.4c-58.67,147.58-223.81,215.86-376.56,147,130.52-1.41,271.54-48.28,376.56-147Z" style="fill-rule:evenodd;mix-blend-mode:screen;fill:url(#bda7eccf-f00d-487d-a555-2ae41686ae1e)"/></g></g></g></svg>