<svg xmlns="http://www.w3.org/2000/svg" xmlns:xlink="http://www.w3.org/1999/xlink" viewBox="0 0 1280 1280"><defs><radialGradient id="a31479cc-3c2f-45dd-9d9c-2f6eed19dab5" cx="640" cy="640" r="475.82" gradientTransform="translate(640 -265.1) rotate(45)" gradientUnits="userSpaceOnUse"><stop offset="0" stop-color="#ff0b00"/><stop offset="0.13" stop-color="#ff0b00" stop-opacity="0.81"/><stop offset="0.31" stop-color="#ff0b00" stop-opacity="0.56"/><stop offset="0.48" stop-color="#ff0b00" stop-opacity="0.36"/><stop offset="0.64" stop-color="#ff0b00" stop-opacity="0.21"/><stop offset="0.78" stop-color="#ff0b00" stop-opacity="0.09"/><stop offset="0.91" stop-color="#ff0b00" stop-opacity="0.02"/><stop offset="1" stop-color="#ff0b00" stop-opacity="0"/></radialGradient><radialGradient id="a249a58d-7af9-4c0b-bfa0-78df00f3552e" cx="405.27" cy="156.94" r="94.31" gradientTransform="translate(394.62 -171.8) rotate(30)" gradientUnits="userSpaceOnUse"><stop offset="0" stop-color="#fccd10"/><stop offset="0.22" stop-color="#edab09"/><stop offset="0.45" stop-color="#e08e02"/><stop offset="0.58" stop-color="#db8300"/><stop offset="0.71" stop-color="#d67d00"/><stop offset="0.88" stop-color="#c86c00"/><stop offset="1" stop-color="#ba5b00"/></radialGradient><radialGradient id="e6473757-9879-4a91-a8f3-bb25a71330c4" cx="383.74" cy="127.09" r="114.79" gradientTransform="translate(394.62 -171.8) rotate(30)" gradientUnits="userSpaceOnUse"><stop offset="0" stop-color="#ffe58a"/><stop offset="1"/></radialGradient><radialGradient id="a668b657-95d6-4715-aa30-14d06699868e" cx="359.48" cy="103.42" r="113.31" xlink:href="#e6473757-9879-4a91-a8f3-bb25a71330c4"/><radialGradient id="b89a894b-f3a2-46db-a3c4-285e18ef94d5" cx="431.18" cy="163.94" r="108.84" xlink:href="#e6473757-9879-4a91-a8f3-bb25a71330c4"/><linearGradient id="ade35da6-f09d-4083-b2a5-eb7f2baededc" x1="588.56" y1="213.81" x2="703.93" y2="280.42" gradientUnits="userSpaceOnUse"><stop offset="0.05" stop-color="#ed9500"/><stop offset="0.4" stop-color="#fc0"/><stop offset="0.93" stop-color="#b36600"/></linearGradient><radialGradient id="a46dd888-2b52-4542-b0c7-e548591854d3" cx="680.1" cy="289.6" r="257.39" gradientUnits="userSpaceOnUse"><stop offset="0" stop-color="#e38812"/><stop offset="0.11" stop-color="#e6962d"/><stop offset="0.73" stop-color="#f8e1c3"/><stop offset="1" stop-color="#fff"/></radialGradient><radialGradient id="e04cbf6b-04b7-4b6d-8f64-6ca006d09c85" cx="614.24" cy="204.37" r="91.84" gradientUnits="userSpaceOnUse"><stop offset="0" stop-color="#fff0b0"/><stop offset="1"/></radialGradient><linearGradient id="bb400311-9834-4946-9a46-0f3fc826cdcf" x1="736.18" y1="701.52" x2="1071.21" y2="894.96" gradientUnits="userSpaceOnUse"><stop offset="0" stop-color="#9c0e0e"/><stop offset="0.69" stop-color="#fc3f00"/><stop offset="1" stop-color="#c4020b"/></linearGradient><linearGradient id="b4050a09-a50b-4f78-b358-e3205d3aaa3a" x1="844.19" y1="761.7" x2="1036.15" y2="872.53" gradientUnits="userSpaceOnUse"><stop offset="0"/><stop offset="0.13" stop-color="#3e1111"/><stop offset="0.31" stop-color="#902727"/><stop offset="0.47" stop-color="#cc3737"/><stop offset="0.58" stop-color="#f14141"/><stop offset="0.64" stop-color="#ff4545"/><stop offset="0.68" stop-color="#f24040"/><stop offset="0.77" stop-color="#d03333"/><stop offset="0.89" stop-color="#991d1d"/><stop offset="1" stop-color="#630808"/></linearGradient><linearGradient id="b4f5e81e-fe5f-468e-940a-99b2cf0bd7c5" x1="736.18" y1="701.52" x2="874.13" y2="781.17" gradientUnits="userSpaceOnUse"><stop offset="0" stop-color="#800c0c"/><stop offset="1" stop-color="#ffe4bf"/></linearGradient><linearGradient id="ab55c82d-9b60-4242-9387-3c0a824e3fa5" x1="736.34" y1="704.52" x2="1066.72" y2="895.27" gradientUnits="userSpaceOnUse"><stop offset="0.07" stop-color="#b36600"/><stop offset="0.6" stop-color="#fc0"/><stop offset="0.95" stop-color="#ed9500"/></linearGradient><linearGradient id="affc363f-7cbe-4a4a-b436-43169b21b045" x1="736.56" y1="704.65" x2="856.45" y2="773.87" gradientUnits="userSpaceOnUse"><stop offset="0.57" stop-color="#ffa163"/><stop offset="1" stop-color="#ffe4bf"/></linearGradient><linearGradient id="e453c39b-4e38-41c5-bb1c-4ae58bc237b2" x1="762.25" y1="649.05" x2="821.33" y2="683.17" gradientUnits="userSpaceOnUse"><stop offset="0" stop-color="#960007"/><stop offset="1" stop-color="#610000"/></linearGradient><linearGradient id="a7a0fb1b-753c-47d5-a405-afd51ecc3e81" x1="568.25" y1="480" x2="847.68" y2="641.33" gradientUnits="userSpaceOnUse"><stop offset="0" stop-color="#9c0e0e"/><stop offset="0.75" stop-color="#fc3f00"/><stop offset="1" stop-color="#c4020b"/></linearGradient><linearGradient id="b12b7e3a-dea4-4855-947c-d05c7cef2f14" x1="772.23" y1="597.77" x2="847.68" y2="641.33" gradientUnits="userSpaceOnUse"><stop offset="0"/><stop offset="0.68" stop-color="#ff7373"/><stop offset="0.74" stop-color="#f26d6d"/><stop offset="0.84" stop-color="#d05e5e"/><stop offset="0.97" stop-color="#994545"/><stop offset="1" stop-color="#8c3f3f"/></linearGradient><linearGradient id="b8ae8d30-9205-4f9c-b9ae-a989b5ff2015" x1="894.73" y1="790.9" x2="1024.85" y2="866.02" gradientUnits="userSpaceOnUse"><stop offset="0"/><stop offset="0.02" stop-color="#0f0e0b"/><stop offset="0.1" stop-color="#4e4936"/><stop offset="0.18" stop-color="#847c5b"/><stop offset="0.25" stop-color="#b0a67a"/><stop offset="0.33" stop-color="#d2c691"/><stop offset="0.4" stop-color="#ebdda2"/><stop offset="0.46" stop-color="#faebac"/><stop offset="0.51" stop-color="#fff0b0"/><stop offset="0.56" stop-color="#f9eaac"/><stop offset="0.62" stop-color="#e8daa0"/><stop offset="0.69" stop-color="#ccc08d"/><stop offset="0.77" stop-color="#a59b72"/><stop offset="0.85" stop-color="#736c4f"/><stop offset="0.93" stop-color="#373326"/><stop offset="1"/></linearGradient><linearGradient id="edfa8412-15df-415a-8963-e7f7f4143ae7" x1="569.64" y1="477.6" x2="792.26" y2="606.12" gradientUnits="userSpaceOnUse"><stop offset="0" stop-color="#ff3030"/><stop offset="1" stop-color="#ffe4bf"/></linearGradient><linearGradient id="bff141bd-72a6-4ff6-838b-d42364a72795" x1="427.36" y1="724.04" x2="984.26" y2="1045.56" gradientUnits="userSpaceOnUse"><stop offset="0" stop-color="#c4020b"/><stop offset="1" stop-color="#fc3f00"/></linearGradient><linearGradient id="b0e80316-8898-4506-8b46-47688e174bbd" x1="568.32" y1="479.89" x2="844.89" y2="639.57" xlink:href="#ab55c82d-9b60-4242-9387-3c0a824e3fa5"/><linearGradient id="b8245544-e531-4485-b6ae-d45c63b6e76b" x1="775.05" y1="599.24" x2="844.89" y2="639.57" gradientUnits="userSpaceOnUse"><stop offset="0"/><stop offset="1" stop-color="#fff0b0"/></linearGradient><linearGradient id="ac7e1e39-7b71-4c18-98f9-87af0311b5e0" x1="569.6" y1="477.67" x2="714.09" y2="561.08" gradientUnits="userSpaceOnUse"><stop offset="0" stop-color="#ffa163"/><stop offset="1" stop-color="#ffe4bf"/></linearGradient><linearGradient id="f29ff5a7-a3e4-4d9f-81ba-b6c160e5f4fa" x1="477.28" y1="423.99" x2="577.55" y2="481.89" gradientUnits="userSpaceOnUse"><stop offset="0" stop-color="#9c0e0e"/><stop offset="0.3" stop-color="#fc3f00"/><stop offset="1" stop-color="#c4020b"/></linearGradient><linearGradient id="f1c0e597-e928-4380-ac2b-07879cc42a7f" x1="476.11" y1="426.04" x2="493.64" y2="436.17" xlink:href="#b4f5e81e-fe5f-468e-940a-99b2cf0bd7c5"/><linearGradient id="e90eb9de-048a-4708-9e88-33297959c96f" x1="499.45" y1="427.63" x2="549.83" y2="456.72" gradientUnits="userSpaceOnUse"><stop offset="0"/><stop offset="0.09" stop-color="#3e1111"/><stop offset="0.21" stop-color="#902727"/><stop offset="0.31" stop-color="#cc3737"/><stop offset="0.38" stop-color="#f14141"/><stop offset="0.42" stop-color="#ff4545"/><stop offset="0.5" stop-color="#f24040"/><stop offset="0.64" stop-color="#d03333"/><stop offset="0.83" stop-color="#991d1d"/><stop offset="1" stop-color="#630808"/></linearGradient><linearGradient id="eea5ea4a-a10a-48d8-9ae7-662692f667e8" x1="551.75" y1="468.38" x2="576.95" y2="482.93" gradientUnits="userSpaceOnUse"><stop offset="0" stop-color="#ffe4bf"/><stop offset="1" stop-color="#800c0c"/></linearGradient><linearGradient id="e9a0fa20-1dd3-49fb-9a38-d5ab3fb280a9" x1="231.58" y1="862.59" x2="320.56" y2="913.97" gradientUnits="userSpaceOnUse"><stop offset="0" stop-color="#546578"/><stop offset="0.32" stop-color="#8da0b8"/><stop offset="1" stop-color="#546578"/></linearGradient><linearGradient id="e491f622-3e80-40e5-9bd6-cf23916bd9b4" x1="282.47" y1="892.36" x2="314.87" y2="911.07" gradientUnits="userSpaceOnUse"><stop offset="0" stop-color="#fff"/><stop offset="0.52" stop-color="#c3cee0"/><stop offset="1" stop-color="#8a9fc2"/></linearGradient><linearGradient id="ec37ca36-2e65-48b9-9dcd-5518ac6141b2" x1="230.38" y1="864.67" x2="279.85" y2="893.23" gradientUnits="userSpaceOnUse"><stop offset="0" stop-color="#8a9fc2"/><stop offset="0.48" stop-color="#c3cee0"/><stop offset="1" stop-color="#fff"/></linearGradient><radialGradient id="f57dd32a-7d40-4dc6-b2f9-daf181f3089b" cx="116.81" cy="1043.58" r="121.76" gradientUnits="userSpaceOnUse"><stop offset="0" stop-color="#adbdc9"/><stop offset="1" stop-color="#263754"/></radialGradient><radialGradient id="bbdaa71c-c7f4-4f1b-9139-0f3cadfb668a" cx="-2.89" cy="627.17" r="469.94" gradientUnits="userSpaceOnUse"><stop offset="0" stop-color="#fff"/><stop offset="0.11" stop-color="#fafafa"/><stop offset="0.23" stop-color="#ededed"/><stop offset="0.36" stop-color="#d6d6d6"/><stop offset="0.5" stop-color="#b7b7b7"/><stop offset="0.64" stop-color="#8e8e8e"/><stop offset="0.78" stop-color="#5c5c5c"/><stop offset="0.92" stop-color="#232323"/><stop offset="1"/></radialGradient><linearGradient id="bc6f0471-d563-43dc-a4bb-9050218ed69e" x1="479.38" y1="421.88" x2="519.07" y2="444.8" xlink:href="#ab55c82d-9b60-4242-9387-3c0a824e3fa5"/><linearGradient id="b9a3d036-1870-4a3e-bf7e-c6d7ff2233d3" x1="509.83" y1="430.3" x2="538.36" y2="446.77" xlink:href="#e04cbf6b-04b7-4b6d-8f64-6ca006d09c85"/><linearGradient id="ef1e628d-58b8-454c-be28-6eff186e3915" x1="478.94" y1="422.64" x2="495.08" y2="431.96" xlink:href="#ac7e1e39-7b71-4c18-98f9-87af0311b5e0"/><linearGradient id="ad1d59d0-2321-40a5-80a8-969d929500da" x1="553.25" y1="466.05" x2="578.33" y2="480.53" gradientUnits="userSpaceOnUse"><stop offset="0" stop-color="#ffe4bf"/><stop offset="1" stop-color="#ffa163"/></linearGradient><radialGradient id="f663ac74-9551-4cf2-b73f-adf05cd57705" cx="898.25" cy="458.78" r="88.28" gradientUnits="userSpaceOnUse"><stop offset="0" stop-color="#fcea10"/><stop offset="0.12" stop-color="#fcea10" stop-opacity="0.81"/><stop offset="0.3" stop-color="#fcea10" stop-opacity="0.57"/><stop offset="0.47" stop-color="#fcea10" stop-opacity="0.37"/><stop offset="0.63" stop-color="#fcea10" stop-opacity="0.21"/><stop offset="0.78" stop-color="#fcea10" stop-opacity="0.09"/><stop offset="0.91" stop-color="#fcea10" stop-opacity="0.02"/><stop offset="1" stop-color="#fcea10" stop-opacity="0"/></radialGradient></defs><g style="isolation:isolate"><g id="a433a93a-704b-4c31-9785-204d58d8053c" data-name="Warstwa 2"><g id="e38aae7d-16cf-4fc0-a328-75b62107af85" data-name="Warstwa 1"><rect width="1280" height="1280" style="fill:none"/><circle cx="640" cy="640" r="475.82" transform="translate(-265.1 640) rotate(-45)" style="opacity:0.75;mix-blend-mode:screen;fill:url(#a31479cc-3c2f-45dd-9d9c-2f6eed19dab5)"/><path d="M711.38,134.3A69.13,69.13,0,1,1,617,159.6a69.12,69.12,0,0,1,94.43-25.3Z" style="fill-rule:evenodd;fill:url(#a249a58d-7af9-4c0b-bfa0-78df00f3552e)"/><path d="M700.18,138.28a52.8,52.8,0,1,1-72.13,19.33,52.8,52.8,0,0,1,72.13-19.33Z" style="fill-rule:evenodd;mix-blend-mode:screen;fill:url(#e6473757-9879-4a91-a8f3-bb25a71330c4)"/><path d="M663.2,138.56c21.16-5.66,41.83,2.86,46.16,19s-9.3,33.89-30.46,39.56-41.84-2.85-46.17-19,9.3-33.89,30.47-39.57Z" style="fill-rule:evenodd;mix-blend-mode:screen;fill:url(#a668b657-95d6-4715-aa30-14d06699868e)"/><path d="M731.82,161.38a63.65,63.65,0,0,1-108.34,66.34,65.78,65.78,0,0,0,108.34-66.34Z" style="fill-rule:evenodd;mix-blend-mode:screen;fill:url(#b89a894b-f3a2-46db-a3c4-285e18ef94d5)"/><path d="M631.56,272.56c13.28,7.66,26.07,13.52,36,16.79,16.2,5.34,29.6,2.78,36.35-8.93s2.28-24.59-10.44-36c-7.81-7-19.28-15.13-32.55-22.79s-26.07-13.52-36-16.8c-16.2-5.33-29.6-2.77-36.36,8.93S586.29,238.4,599,249.76c7.81,7,19.28,15.13,32.55,22.8Z" style="fill:url(#ade35da6-f09d-4083-b2a5-eb7f2baededc)"/><path d="M667.58,289.35c-10-3.27-22.74-9.13-36-16.79s-24.74-15.82-32.55-22.8a45.69,45.69,0,0,1-10.86-13.63c-1.22-2.5-.9-5.78.85-8.81s4.43-4.94,7.2-5.12a45.65,45.65,0,0,1,17.23,2.57c10,3.28,22.74,9.14,36,16.8s24.74,15.82,32.55,22.79A45.72,45.72,0,0,1,692.86,278c1.22,2.5.9,5.78-.85,8.8s-4.43,4.94-7.2,5.13a45.47,45.47,0,0,1-17.23-2.58Z" style="fill-rule:evenodd;mix-blend-mode:multiply;fill:url(#a46dd888-2b52-4542-b0c7-e548591854d3)"/><path d="M597.76,216.92a6,6,0,0,1,.9-5.61c15.37-19,83.82,23.35,83.78,47-19.75-15.47-49.29-35.41-75-38.62-3.87-.49-8.87-1.17-9.65-2.76Z" style="fill-rule:evenodd;mix-blend-mode:screen;fill:url(#e04cbf6b-04b7-4b6d-8f64-6ca006d09c85)"/><path d="M957.6,1091.75c-142.82-101.54-240.27-114-309.22-164.45-8.37-6.13-14.06-11.86-17.54-17.24a23,23,0,0,1,0-25.56c79.25-121.2,157-257.29,225.75-391.6-4.38,10.85.07,23.38,20.45,38.3,68.94,50.48,166.39,62.91,309.21,164.44C1094,819.31,1003.71,977.87,957.6,1091.75Z" style="fill-rule:evenodd;fill:url(#bb400311-9834-4946-9a46-0f3fc826cdcf)"/><path d="M1146.67,668.93c-53.93-34.41-100.8-56.41-141.71-74.23-28.3,63.4-62.82,131.15-102.67,200.17-41.42,71.74-84.52,137.8-126.82,195.59,40.86,17.77,87.69,39.68,141.57,74,22-67.48,53.1-137.73,93.22-207.22,41.12-71.22,87.65-134.68,136.41-188.28Z" style="fill-rule:evenodd;opacity:0.75;mix-blend-mode:screen;fill:url(#b4050a09-a50b-4f78-b358-e3205d3aaa3a)"/><path d="M757.72,982.81c8.15-57,36.16-130.31,92.09-227.19,46.41-80.39,88.36-136,127.19-172.93-38.83-16.59-71.76-30.87-99.92-51.49-20.38-14.92-24.83-27.45-20.45-38.3-68.8,134.31-146.5,270.4-225.75,391.6a23,23,0,0,0,0,25.56c3.48,5.38,9.17,11.11,17.54,17.24,30.42,22.27,66.38,37.13,109.34,55.51Z" style="fill-rule:evenodd;mix-blend-mode:multiply;fill:url(#b4f5e81e-fe5f-468e-940a-99b2cf0bd7c5)"/><path d="M986.53,1026.4C858,936.6,768.2,921.45,703.09,876.06c-14.9-8.59-26.12-15.86-34.37-24.29-4.36-5.24-6.42-10.86-6.37-16.29Q653.7,849.21,645,862.72c-1,6.06.49,12.45,4.78,18.2,5.87,6.9,14.32,13.4,26,20.76,67,47.88,160.48,61.73,295.89,157.08q7-15.79,14.9-32.36Zm-9.91-406.51c-47.56-20.88-86.4-35.84-118.49-59.55-15.42-11.55-21.11-21.76-20.45-30.85q-8.65,16.56-17.47,33.1c.55,8.09,6.16,17,19,26.89,29.71,22.19,65.78,36.38,110.08,56,52.41,25.88,116.47,51.32,196.27,107.15q10-14.56,20.09-28.71c-75.51-53.23-137.48-80.09-189-104.06Z" style="fill-rule:evenodd;fill:url(#ab55c82d-9b60-4242-9387-3c0a824e3fa5)"/><path d="M839.19,589.48c25,18.66,54.45,31.66,89.54,47q11.63-14.81,22.89-27.44c-36.41-15.74-67.21-29.28-93.49-48.7-15.42-11.55-21.11-21.77-20.45-30.85q-8.65,16.56-17.47,33.1c.55,8.09,6.16,17,19,26.89ZM774.71,914.26c-26.79-11.94-50.5-23.48-71.62-38.2-14.9-8.59-26.12-15.86-34.37-24.29-4.36-5.24-6.42-10.86-6.37-16.29Q653.7,849.21,645,862.72c-1,6.06.49,12.45,4.78,18.2,5.87,6.9,14.32,13.4,26,20.76,25.51,18.24,54.88,31.55,89,46.3q4.06-16.08,10-33.72Z" style="fill-rule:evenodd;mix-blend-mode:multiply;fill:url(#affc363f-7cbe-4a4a-b436-43169b21b045)"/><path d="M715.17,845C770.7,771.7,904.68,552.19,945.42,445.84c-5.35,13.26-26.48,18.89-44.4,23.53s-39,10.26-44.39,23.53c-68.48,133.68-155.2,281-228.17,387.88,8.45-9,29-11.47,43.87-15.31,16.51-4.27,35.73-9.38,42.84-20.52Z" style="fill-rule:evenodd;fill:url(#e453c39b-4e38-41c5-bb1c-4ae58bc237b2)"/><path d="M718.64,847c55.53-73.26,186-294.76,226.78-401.11,4.19-10.93-.07-23.38-20.45-38.3-50.9-37.28-142.25-68.18-244.05-122.68L452.23,681c101.8,54.5,193.15,85.41,244.06,122.68,12,8.82,32.71,27.09,22.35,43.31Z" style="fill-rule:evenodd;fill:url(#a7a0fb1b-753c-47d5-a405-afd51ecc3e81)"/><path d="M925,407.54a303.27,303.27,0,0,0-31.47-19.81c-30.34,67-68,140.35-111.47,215.7-38.09,66-77.09,127.28-115,181.64a298.37,298.37,0,0,1,29.25,18.57c12,8.82,32.71,27.09,22.35,43.31,55.53-73.26,186-294.76,226.78-401.11,4.19-10.93-.07-23.38-20.45-38.3Z" style="fill-rule:evenodd;mix-blend-mode:screen;fill:url(#b12b7e3a-dea4-4855-947c-d05c7cef2f14)"/><path d="M975.32,658c36.3,17.13,77.72,36.12,125.38,65.27q11.11-14.12,22.46-27.53c-50.51-31.49-94.34-51.74-132.66-69.43Q983.15,642,975.32,658ZM941.71,997c-47.33-29.07-88.85-48.4-125.43-64.52q-10,14.85-20.11,29.14c38.52,16.86,82.41,37.35,132.66,68.73q6.07-16.6,12.88-33.35Z" style="fill-rule:evenodd;mix-blend-mode:screen;fill:url(#b8ae8d30-9205-4f9c-b9ae-a989b5ff2015)"/><path d="M826.12,354.53c-42.87-19.68-92.64-41.54-145.19-69.68L452.24,681c54.3,29.08,105.63,51.45,149.45,71.64,28.75-46.64,57.84-95.37,86.91-145.73,50.51-87.48,96.74-172.54,137.52-252.33Z" style="fill-rule:evenodd;mix-blend-mode:multiply;fill:url(#edfa8412-15df-415a-8963-e7f7f4143ae7)"/><path d="M454.25,677.45c43.82,23.47,85.72,42.6,123.2,59.67,49.77,22.67,91.95,41.88,121.19,63.29,10.74,7.86,17.34,15.22,20.73,22.14C723,830,723,837,720.43,843.44c-3.12,7.76-10.5,13.12-19.55,17.15-8.46,3.77-18.42,6.38-27.54,8.74-8.79,2.28-18.37,4.8-26.29,8.32-7.32,3.26-13.19,7.35-15.41,12.85-1.77,4.39-1.74,9.15.82,14.36,2.84,5.79,8.64,12.15,18.28,19.21,28.49,20.86,62.17,35.25,102.07,52.29,55.82,23.84,121.39,56.09,204.79,115.39-2.05,2-7.32,3.61-9.31,3.19-80.41-56.64-144.18-88-198.64-111.23C709.33,966.49,675.28,952,646,930.53c-10.74-7.87-17.34-15.23-20.74-22.14-3.66-7.49-3.67-14.42-1.06-20.9,3.13-7.75,10.5-13.11,19.56-17.15,8.46-3.76,18.41-6.37,27.54-8.74,8.79-2.27,18.37-4.79,26.28-8.31,7.33-3.26,13.2-7.35,15.42-12.86,1.77-4.38,1.73-9.14-.82-14.35-2.84-5.79-8.65-12.16-18.28-19.21-28.63-21-70.45-40-119.8-62.49-37.78-17.21-79.86-36.35-123.91-59.93l4-7Z" style="fill:url(#bff141bd-72a6-4ff6-838b-d42364a72795)"/><path d="M736.9,745.84c-51-37.38-145.78-70.09-249.51-125.79l-17.58,30.46C572.75,705.72,666.1,737.69,717.09,775c12.7,9.29,32.11,27.12,22.23,42.93,6.22-9.12,12.89-19.18,19.9-30,8.83-15.3-9.11-32.45-22.32-42.12ZM931.76,478.5c4.44-11.26-1.16-24.06-20.72-38.38-51-37.35-144.63-69.47-247.73-124.77l-17.6,30.48C749.66,401.66,844.77,434.58,895.85,472c18.86,13.8,25.71,27,20.93,38.62,5.42-11.2,10.45-21.94,15-32.1Z" style="fill-rule:evenodd;fill:url(#b0e80316-8898-4506-8b46-47688e174bbd)"/><path d="M931.76,478.5c4.44-11.26-1.16-24.06-20.71-38.38a308,308,0,0,0-32.4-20.32q-7.42,15.69-15.33,31.77A308.72,308.72,0,0,1,895.85,472c18.86,13.8,25.71,27,20.93,38.62,5.42-11.2,10.45-21.94,15-32.1ZM759.22,788c8.83-15.3-9.11-32.45-22.32-42.12a300.33,300.33,0,0,0-30.44-19.24Q696.7,741.56,687,756A299.72,299.72,0,0,1,717.09,775c12.7,9.29,32.11,27.12,22.23,42.93,6.22-9.12,12.89-19.18,19.9-30Z" style="fill-rule:evenodd;mix-blend-mode:screen;fill:url(#b8245544-e531-4485-b6ae-d45c63b6e76b)"/><path d="M645.71,345.84c53.16,28.55,104,51.11,147.84,71.34q8.31-15.74,16.37-31.23c-43.4-20-93.76-42.25-146.61-70.6l-17.6,30.49Zm-7.6,346.84c-44.44-20.55-96.34-43.42-150.72-72.62l-17.58,30.46c54.33,29.13,106,51.8,150.17,72.19q9-14.88,18.13-30Z" style="fill-rule:evenodd;mix-blend-mode:multiply;fill:url(#ac7e1e39-7b71-4c18-98f9-87af0311b5e0)"/><path d="M647.69,244.62c13.84,8,25.35,17,32.81,25s10.84,15.13,8.37,19.42h0L570.6,493.92,457.28,690.2l-50.15-29L357,632.31c39.29-64.55,78.07-129.4,115.7-194.91s79.32-140,116.12-206.08c2.43-4.32,10.2-5,20.82-2.57s24.19,7.88,38,15.87Z" style="fill-rule:evenodd;fill:url(#f29ff5a7-a3e4-4d9f-81ba-b6c160e5f4fa)"/><path d="M492.33,438.39C530.58,371.72,573,296.08,610.64,229l-1-.24c-10.4-2.38-18.07-1.77-20.66,2.3-35.39,63.53-75.68,135.56-111.81,198.59q-8.31,14.48-16.67,28.91-50.62,87.39-103.37,173.54c2.71-4.23,11-4.68,22.11-2,38.28-63.57,76.16-127.41,113.08-191.75Z" style="fill-rule:evenodd;mix-blend-mode:multiply;fill:url(#f1c0e597-e928-4380-ac2b-07879cc42a7f)"/><path d="M623.31,233c-38.18,67.87-81.24,144.28-120,211.77Q448.62,540,392,634.16a171.66,171.66,0,0,1,24.13,11.61c1.68,1,3.33,2,4.95,3Q476.4,555,530.84,460.62c39.15-68,82.83-144.85,121.64-213.13-1.56-1,.24,0-4.79-2.87A213.71,213.71,0,0,0,623.31,233Z" style="fill-rule:evenodd;mix-blend-mode:screen;fill:url(#e90eb9de-048a-4708-9e88-33297959c96f)"/><path d="M671.42,261.1C632.8,328.6,589.27,404.62,550.47,472q-55,95.32-110.57,190.32c13.47,11.35,20.69,22.19,17.38,27.93L570.6,493.92q2.25-3.87,4.48-7.76L688.87,289.08c2.47-4.29-.91-11.42-8.37-19.42a104.93,104.93,0,0,0-9.08-8.56Z" style="fill-rule:evenodd;mix-blend-mode:multiply;fill:url(#eea5ea4a-a10a-48d8-9ae7-662692f667e8)"/><path d="M416.08,645.77c27.69,16,46.13,35.88,41.2,44.43s-31.39,2.53-59.08-13.46S352.07,640.87,357,632.31s31.39-2.52,59.07,13.46Z" style="fill:#a71b00;fill-rule:evenodd"/><path d="M449.46,690c-38.26,63.51-46.62,75.61-83.72,139.74s-146.84,256.73-182.33,321.8l-44.5-25.7-44.48-25.68c38.33-63.42,150.48-254.62,187.84-318.61s43.69-77.25,79-142.47c2.08-3.84,8.87-4.5,18.24-2.39s21.41,6.94,33.7,14,22.48,15.11,29,22.2,9.46,13.33,7.2,17.08Z" style="fill-rule:evenodd;fill:url(#e9a0fa20-1dd3-49fb-9a38-d5ab3fb280a9)"/><path d="M442.26,672.91a109,109,0,0,0-16.62-14.24c-38.42,66.25-47.28,80.88-85.71,147.06-38.53,66.34-150.45,260.72-188.25,327.47l31.73,18.33c35.49-65.07,145.22-257.67,182.33-321.8S411.2,753.5,449.46,690c2.26-3.75-.64-10-7.2-17.08Z" style="fill-rule:evenodd;mix-blend-mode:multiply;fill:url(#e491f622-3e80-40e5-9bd6-cf23916bd9b4)"/><path d="M107.19,1107.52c39.26-65.92,152.42-259.57,191-325.88,37.81-65,44.83-79.06,81-145-9.2-2-15.84-1.34-17.9,2.46-35.32,65.22-41.66,78.48-79,142.47S132.76,1036.73,94.43,1100.15l12.76,7.37Z" style="fill-rule:evenodd;mix-blend-mode:multiply;fill:url(#ec37ca36-2e65-48b9-9dcd-5518ac6141b2)"/><path d="M146.85,1112.1c24.57,14.19,40.94,31.84,36.56,39.43s-27.85,2.24-52.42-12S90,1107.74,94.43,1100.15s27.85-2.24,52.42,11.95Z" style="fill-rule:evenodd;fill:url(#f57dd32a-7d40-4dc6-b2f9-daf181f3089b)"/><path d="M411.27,649.6a136.06,136.06,0,0,0-26.48-11.53c-103.38,180.08-228,403.13-221.27,407.21S306.61,831.42,411.27,649.6Z" style="fill-rule:evenodd;mix-blend-mode:screen;fill:url(#bbdaa71c-c7f4-4f1b-9139-0f3cadfb668a)"/><path d="M495.56,623.91c5.32-9.24-16.42-30.13-41.2-44.44-21.37-12.34-45.87-20.27-55.59-16.28q-9.42,15.7-18.88,31.37c8.66-4.94,33.25,2.26,56.66,15.77,26.18,15.12,46.25,35.46,41.22,44.38l17.79-30.8ZM612.26,306c11.68,6.74,48.28,32.16,41.18,44.45q9-15.57,17.82-30.86c7.29-12.63-31-38.55-41.19-44.45-9.5-5.49-46.54-23.54-57.1-15.36L556.07,290c11.4-6.38,45.63,9.87,56.19,16Z" style="fill-rule:evenodd;fill:url(#bc6f0471-d563-43dc-a4bb-9050218ed69e)"/><path d="M588.48,294.81A189.49,189.49,0,0,1,612.26,306c1.4.8,3.16,1.88,5.15,3.17l17.62-31c-2-1.28-3.69-2.32-4.95-3.05A193.89,193.89,0,0,0,606,263.82q-8.64,15.33-17.47,31Zm-128.64,288q-2.7-1.69-5.48-3.3a169.72,169.72,0,0,0-23.19-11.16Q422.1,583.66,413,599a169.37,169.37,0,0,1,23.59,11.35q2.67,1.54,5.25,3.15,9-15.35,18-30.71Z" style="fill-rule:evenodd;mix-blend-mode:screen;fill:url(#b9a3d036-1870-4a3e-bf7e-c6d7ff2233d3)"/><path d="M556.08,290c4.28-2.37,11.74-1.58,20,.65l17.39-31c-8.65-2.32-16.44-3-20.45.09-5.56,10-11.21,20.08-16.91,30.25ZM418.71,564.22c-8.49-2.23-15.64-2.79-19.93-1q-9.4,15.69-18.87,31.36c4-2.27,11.39-2,20.49.36q9.18-15.33,18.31-30.69Z" style="fill-rule:evenodd;mix-blend-mode:multiply;fill:url(#ef1e628d-58b8-454c-be28-6eff186e3915)"/><path d="M478.41,596.28,460.5,627c13,11,20.56,21.81,17.28,27.69q8.89-15.41,17.78-30.78s0,0,0-.06c3.37-6-4.51-16.81-17.18-27.57ZM636.08,322.84c11.45,9.55,21.31,20.61,17.4,27.54l17.78-30.8c4.06-7-6-18.17-17.46-27.69l-17.72,30.95Z" style="fill-rule:evenodd;mix-blend-mode:multiply;fill:url(#ad1d59d0-2321-40a5-80a8-969d929500da)"/><path d="M986.53,458.78a88.28,88.28,0,1,1-88.27-88.28A88.28,88.28,0,0,1,986.53,458.78Z" style="fill-rule:evenodd;opacity:0.75;mix-blend-mode:screen;fill:url(#f663ac74-9551-4cf2-b73f-adf05cd57705)"/></g></g></g></svg>