<svg xmlns="http://www.w3.org/2000/svg" xmlns:xlink="http://www.w3.org/1999/xlink" viewBox="0 0 1280 1280"><defs><radialGradient id="b7e3213e-16de-4307-b53a-2fc884c70b25" cx="640" cy="640.31" r="562.57" gradientUnits="userSpaceOnUse"><stop offset="0" stop-color="aqua"/><stop offset="0.15" stop-color="aqua" stop-opacity="0.83"/><stop offset="0.46" stop-color="aqua" stop-opacity="0.48"/><stop offset="0.72" stop-color="aqua" stop-opacity="0.22"/><stop offset="0.9" stop-color="aqua" stop-opacity="0.06"/><stop offset="1" stop-color="aqua" stop-opacity="0"/></radialGradient><radialGradient id="a68e7227-1d87-4057-875c-1fb8ae3d4cd3" cx="451.79" cy="395.38" r="859.81" gradientUnits="userSpaceOnUse"><stop offset="0" stop-color="#c4eeff"/><stop offset="0.33" stop-color="#4ccaff"/><stop offset="1" stop-color="#003eb0"/></radialGradient><radialGradient id="aace883c-e822-40c5-8956-0727aa3ac851" cx="164.17" cy="226.12" r="326.91" gradientUnits="userSpaceOnUse"><stop offset="0" stop-color="#a5e2ff"/><stop offset="1" stop-color="#218cf3"/></radialGradient><radialGradient id="a3869f00-9073-4ac9-9169-580981ac59c7" cx="439.57" cy="416.3" r="945.32" gradientUnits="userSpaceOnUse"><stop offset="0" stop-color="#a5e2ff"/><stop offset="1" stop-color="#08f"/></radialGradient><radialGradient id="f3e5b410-6e45-48a1-a719-6ea0a5de7f27" cx="592.37" cy="1170.47" r="657" gradientUnits="userSpaceOnUse"><stop offset="0" stop-color="#a5e2ff"/><stop offset="1" stop-color="#0069c2"/></radialGradient><radialGradient id="a32b2592-5310-4f0a-8426-cc22f5cea0b6" cx="1164.21" cy="546.84" r="477.31" gradientUnits="userSpaceOnUse"><stop offset="0" stop-color="#4ccaff"/><stop offset="1" stop-color="#003eb0"/></radialGradient><radialGradient id="f40c792f-f31a-4f7e-9eda-ecee513a4af1" cx="164.62" cy="876.74" r="416.97" xlink:href="#aace883c-e822-40c5-8956-0727aa3ac851"/><radialGradient id="a03cd692-6ede-4518-9339-845ee58b5232" cx="480.23" cy="1267.15" r="766.47" gradientUnits="userSpaceOnUse"><stop offset="0" stop-color="#77d6ff"/><stop offset="1" stop-color="#001fb0"/></radialGradient><radialGradient id="e8214bd6-8e2b-4d0e-ad35-28a99a345b06" cx="377.9" cy="1157.06" r="695.38" gradientUnits="userSpaceOnUse"><stop offset="0" stop-color="#a5e2ff"/><stop offset="1" stop-color="#0081ff"/></radialGradient><radialGradient id="a571f094-58bb-4463-855c-461566c6ac23" cx="935.8" cy="703.99" r="405.78" gradientUnits="userSpaceOnUse"><stop offset="0" stop-color="#00000d"/><stop offset="1" stop-color="#fff"/></radialGradient><radialGradient id="fbb63f7a-84c2-4d90-b2ab-aa9394b4780d" cx="525.52" cy="757.49" r="436.25" gradientUnits="userSpaceOnUse"><stop offset="0.31" stop-color="#00000d"/><stop offset="1" stop-color="#1cb4ff"/></radialGradient><radialGradient id="bd7aff92-11a0-490f-9547-0e4454594542" cx="919.55" cy="94.47" r="708.14" gradientUnits="userSpaceOnUse"><stop offset="0.57" stop-color="#00000d"/><stop offset="0.6" stop-color="#030613"/><stop offset="0.63" stop-color="#0d1524"/><stop offset="0.68" stop-color="#1c2f3f"/><stop offset="0.72" stop-color="#315466"/><stop offset="0.77" stop-color="#4c8298"/><stop offset="0.82" stop-color="#6dbad3"/><stop offset="0.86" stop-color="#85e3ff"/></radialGradient><radialGradient id="e2e429eb-700e-4efc-a753-b6c42ea19b98" cx="411.59" cy="405.93" r="253.69" gradientUnits="userSpaceOnUse"><stop offset="0" stop-color="#fff"/><stop offset="0.2" stop-color="#6effff"/><stop offset="0.24" stop-color="#6effff" stop-opacity="0.88"/><stop offset="0.32" stop-color="#6effff" stop-opacity="0.68"/><stop offset="0.41" stop-color="#6effff" stop-opacity="0.5"/><stop offset="0.5" stop-color="#6effff" stop-opacity="0.34"/><stop offset="0.59" stop-color="#6effff" stop-opacity="0.22"/><stop offset="0.68" stop-color="#6effff" stop-opacity="0.12"/><stop offset="0.77" stop-color="#6effff" stop-opacity="0.05"/><stop offset="0.88" stop-color="#6effff" stop-opacity="0.01"/><stop offset="1" stop-color="#6effff" stop-opacity="0"/></radialGradient></defs><g style="isolation:isolate"><g id="b4d1b23d-1240-4cbf-aba5-642aa5d02979" data-name="Warstwa 2"><g id="a4911ed9-4dac-49fc-8008-3db6d89311ef" data-name="Warstwa 1"><rect width="1280" height="1280" style="fill:none"/><circle cx="640" cy="640.31" r="562.57" style="opacity:0.5;mix-blend-mode:screen;fill:url(#b7e3213e-16de-4307-b53a-2fc884c70b25)"/><polygon points="833.09 390.77 1048.48 564.15 1084.33 685.54 919.65 683.83 650.91 560.02 435.53 386.64 399.68 265.26 564.35 266.96 833.09 390.77 833.09 390.77" style="fill-rule:evenodd;fill:url(#a68e7227-1d87-4057-875c-1fb8ae3d4cd3)"/><polygon points="399.68 265.26 187.74 339.45 236.68 505.11 435.53 386.64 399.68 265.26 399.68 265.26" style="fill-rule:evenodd;fill:url(#aace883c-e822-40c5-8956-0727aa3ac851)"/><polygon points="435.53 386.64 236.68 505.11 530.61 741.72 650.91 560.02 435.53 386.64 435.53 386.64" style="fill-rule:evenodd;fill:url(#a3869f00-9073-4ac9-9169-580981ac59c7)"/><polygon points="650.91 560.02 919.65 683.83 897.36 910.67 530.61 741.72 650.91 560.02 650.91 560.02" style="fill-rule:evenodd;fill:url(#f3e5b410-6e45-48a1-a719-6ea0a5de7f27)"/><polygon points="1084.33 685.54 1122.1 913.01 897.36 910.67 919.65 683.83 1084.33 685.54 1084.33 685.54" style="fill-rule:evenodd;fill:url(#a32b2592-5310-4f0a-8426-cc22f5cea0b6)"/><polygon points="236.68 505.11 365 1128.38 530.61 741.72 236.68 505.11 236.68 505.11" style="fill-rule:evenodd;fill:url(#f40c792f-f31a-4f7e-9eda-ecee513a4af1)"/><polygon points="530.61 741.72 897.36 910.67 365 1128.38 530.61 741.72 530.61 741.72" style="fill-rule:evenodd;fill:url(#a03cd692-6ede-4518-9339-845ee58b5232)"/><polygon points="1122.1 913.01 365 1128.38 897.36 910.67 1122.1 913.01 1122.1 913.01" style="fill-rule:evenodd;fill:url(#e8214bd6-8e2b-4d0e-ad35-28a99a345b06)"/><polygon points="187.74 339.45 365 1128.38 236.68 505.11 187.74 339.45 187.74 339.45" style="fill:#85f2ff;fill-rule:evenodd"/><path d="M626.64,295.66c73.93,71.75,219.82,295.54,258.82,372.41l34.2,15.76,75.57.78,12.87.14C965,646.48,807.75,418.51,790,370.92L626.64,295.66Z" style="fill-rule:evenodd;opacity:0.5;mix-blend-mode:screen;fill:url(#a571f094-58bb-4463-855c-461566c6ac23)"/><path d="M268.42,659.25c-2.73-111.54,43.56-78.12,92.12-28.18C513,787.84,462.4,878.41,396.12,1055.74l134.49-314L236.68,505.1l31.74,154.15Z" style="fill:#9fdfff;fill-rule:evenodd;opacity:0.75;mix-blend-mode:screen"/><path d="M644.5,794.18c150.35,69.59,87.6,150.47-39.52,214.09L365,1128.38,897.37,910.67,644.5,794.18Z" style="fill-rule:evenodd;opacity:0.5;mix-blend-mode:screen;fill:url(#fbb63f7a-84c2-4d90-b2ab-aa9394b4780d)"/><path d="M435.53,386.64,402.8,275.84c11.71,56.43,18.94,76.6,2.55,100.91-16.64,24.69-58.29,61.06-90.17,81.59l120.35-71.7Z" style="fill:#8ffcff;fill-rule:evenodd;mix-blend-mode:screen"/><path d="M315.18,458.34h0ZM650.92,560,435.53,386.64l-120.35,71.7c60.33-32.47,96.51-44.31,119.46-35.66,23.11,8.7,51.84,28.54,98.76,63.78,49.77,37.39,71.64,75.39,72,95.77.44,25.16-23.45,74.51-55.56,130.45L650.92,560Z" style="fill:#fff;fill-rule:evenodd"/><path d="M650.92,560,549.84,712.68c46.59-66.56,83-97.28,108.57-103.32,34.39-8.13,84.54,3.09,182.23,38.06L650.92,560Z" style="fill:#8ffcff;fill-rule:evenodd;opacity:0.5;mix-blend-mode:screen"/><path d="M517.73,266.48l-118-1.22L423.83,347l11.7,39.63L650.92,560l104.17,48C690.17,550.29,524.2,317.08,517.73,266.48Z" style="fill-rule:evenodd;mix-blend-mode:screen;fill:url(#bd7aff92-11a0-490f-9547-0e4454594542)"/><circle cx="411.59" cy="405.93" r="253.69" style="opacity:0.75;mix-blend-mode:screen;fill:url(#e2e429eb-700e-4efc-a753-b6c42ea19b98)"/></g></g></g></svg>