<svg xmlns="http://www.w3.org/2000/svg" xmlns:xlink="http://www.w3.org/1999/xlink" viewBox="0 0 1280 1280"><defs><radialGradient id="a1e7a097-af14-4b15-98c9-810050a64e1b" cx="640" cy="640" r="588.36" gradientTransform="translate(640 -265.1) rotate(45)" gradientUnits="userSpaceOnUse"><stop offset="0" stop-color="#03b300"/><stop offset="0.13" stop-color="#03b300" stop-opacity="0.8"/><stop offset="0.35" stop-color="#03b300" stop-opacity="0.52"/><stop offset="0.55" stop-color="#03b300" stop-opacity="0.29"/><stop offset="0.73" stop-color="#03b300" stop-opacity="0.13"/><stop offset="0.88" stop-color="#03b300" stop-opacity="0.03"/><stop offset="1" stop-color="#03b300" stop-opacity="0"/></radialGradient><radialGradient id="be1db52e-9323-4d2f-ab42-bdf65cf3486a" cx="232" cy="791.14" r="492.35" gradientUnits="userSpaceOnUse"><stop offset="0" stop-color="#fff"/><stop offset="1" stop-color="#5e689e"/></radialGradient><radialGradient id="bec5610d-835a-46fc-aa51-eed1aad0d2f2" cx="482.99" cy="881.36" r="401.39" gradientUnits="userSpaceOnUse"><stop offset="0" stop-color="#95c11f"/><stop offset="1" stop-color="#3d8c00"/></radialGradient><radialGradient id="b2395bcc-3bbe-457a-8c4c-cbe83cb1a064" cx="486.95" cy="811.58" r="513.26" gradientUnits="userSpaceOnUse"><stop offset="0" stop-color="#79a600"/><stop offset="0.61" stop-color="#007011"/><stop offset="0.89" stop-color="#95c11f"/></radialGradient><radialGradient id="bfae5cb4-b042-481d-ac27-49fd5a5cd368" cx="510.59" cy="933.1" r="481.76" gradientUnits="userSpaceOnUse"><stop offset="0" stop-color="#468a00"/><stop offset="1"/></radialGradient><radialGradient id="adb63f4b-c38e-438c-8872-a48192983d11" cx="409.69" cy="950.38" r="418.63" gradientUnits="userSpaceOnUse"><stop offset="0" stop-color="#64aa19"/><stop offset="1"/></radialGradient><radialGradient id="adb37443-bb1d-4d86-abd5-3c8aacab7573" cx="540.78" cy="741.32" r="342.16" gradientUnits="userSpaceOnUse"><stop offset="0" stop-color="#95c11f"/><stop offset="1"/></radialGradient><radialGradient id="a3d8f4a1-b59a-403b-b4c4-dabeef3187cb" cx="458.81" cy="770.99" r="314.25" xlink:href="#adb37443-bb1d-4d86-abd5-3c8aacab7573"/><radialGradient id="ea395854-cb4b-40e5-a13f-37d64d0adcf5" cx="547.93" cy="505.78" r="1113.48" gradientUnits="userSpaceOnUse"><stop offset="0" stop-color="#ccf0ef"/><stop offset="1" stop-color="#5e73e6"/></radialGradient><linearGradient id="ee677f44-1713-4310-8835-e16bc49da05e" x1="820.39" y1="523.53" x2="880.39" y2="926.97" gradientUnits="userSpaceOnUse"><stop offset="0" stop-color="#fff"/><stop offset="1"/></linearGradient><radialGradient id="ac82d929-f10b-44c6-b04e-d232bc74b75f" cx="603.4" cy="346.32" r="330.28" xlink:href="#ee677f44-1713-4310-8835-e16bc49da05e"/><radialGradient id="aaa55a71-74b5-47d4-95ac-978d69ffc8b5" cx="708.49" cy="390.03" r="177.52" xlink:href="#ee677f44-1713-4310-8835-e16bc49da05e"/><radialGradient id="ec25c2f4-507c-48d0-859e-76ff80cbfc91" cx="618.26" cy="867.68" r="477.5" gradientUnits="userSpaceOnUse"><stop offset="0.37"/><stop offset="1" stop-color="#fff"/></radialGradient><radialGradient id="a5acc3af-fdca-4772-ad26-2d8531e1e72a" cx="578.7" cy="814.7" r="488.76" gradientUnits="userSpaceOnUse"><stop offset="0"/><stop offset="1" stop-color="#fff"/></radialGradient><radialGradient id="f4e5033c-a39a-48c3-a1eb-f698816a2535" cx="738.47" cy="404.85" r="127.7" xlink:href="#ee677f44-1713-4310-8835-e16bc49da05e"/><radialGradient id="b762576d-ad42-4f45-b7f1-c50f82103111" cx="757.18" cy="256.87" r="392.44" gradientUnits="userSpaceOnUse"><stop offset="0" stop-color="#ccf0ef"/><stop offset="1" stop-color="#364e82"/></radialGradient><linearGradient id="a5bc77b0-09b5-4147-927e-75c80ded6f93" x1="324.47" y1="965.89" x2="578.13" y2="1117.51" xlink:href="#ee677f44-1713-4310-8835-e16bc49da05e"/><radialGradient id="aeb86802-f380-4a27-a4fe-3f465d1720e6" cx="817.91" cy="366.51" r="152.98" xlink:href="#a5acc3af-fdca-4772-ad26-2d8531e1e72a"/><radialGradient id="ad352c0e-c1fe-4a57-8913-8dc478282106" cx="743.69" cy="252.42" r="457.4" gradientUnits="userSpaceOnUse"><stop offset="0" stop-color="#f2ffff"/><stop offset="1" stop-color="#6a79c2"/></radialGradient><radialGradient id="ba5fcd85-418b-4321-ad84-0d7483e11ad2" cx="848.56" cy="195.44" r="192.28" gradientUnits="userSpaceOnUse"><stop offset="0" stop-color="#ca9e67"/><stop offset="1"/></radialGradient><radialGradient id="a6e4c30e-b3c3-4add-a785-bc8c9b8f8f74" cx="853.15" cy="170.24" r="140.62" xlink:href="#ba5fcd85-418b-4321-ad84-0d7483e11ad2"/><linearGradient id="ea5a0e99-6630-4103-90ed-91f765b066a8" x1="868.88" y1="312.48" x2="837.35" y2="280.95" gradientUnits="userSpaceOnUse"><stop offset="0" stop-color="#b07a38"/><stop offset="1" stop-color="#704824"/></linearGradient><linearGradient id="f2b26205-597f-46aa-950a-96abc121bcf7" x1="953.14" y1="339.24" x2="926.27" y2="312.38" xlink:href="#ea5a0e99-6630-4103-90ed-91f765b066a8"/><radialGradient id="ef1d8895-6217-473c-b35a-e3ce3f7db1fc" cx="866.99" cy="103.39" r="206.96" xlink:href="#ba5fcd85-418b-4321-ad84-0d7483e11ad2"/><linearGradient id="b069433a-f45e-44e1-be45-bc9122bf45f0" x1="869.63" y1="186.21" x2="921.79" y2="186.21" gradientUnits="userSpaceOnUse"><stop offset="0" stop-color="#6b4e35"/><stop offset="1" stop-color="#87643a"/></linearGradient><linearGradient id="f9a28930-a8d6-4d98-bd7c-13a4c3abeb92" x1="908.07" y1="240.08" x2="945.79" y2="240.08" xlink:href="#b069433a-f45e-44e1-be45-bc9122bf45f0"/><linearGradient id="a4d54bee-b974-4e3c-8511-cd938c602fbe" x1="956.05" y1="260.05" x2="998.11" y2="260.05" xlink:href="#b069433a-f45e-44e1-be45-bc9122bf45f0"/><linearGradient id="b3b9e6ee-c6fa-414b-af26-b31aeb43fe99" x1="886" y1="236.18" x2="853.57" y2="203.75" xlink:href="#ea5a0e99-6630-4103-90ed-91f765b066a8"/><radialGradient id="fc02a800-19dd-4c6e-bf6f-00ce17b644d6" cx="619.69" cy="845.95" r="338.45" xlink:href="#adb37443-bb1d-4d86-abd5-3c8aacab7573"/></defs><g style="isolation:isolate"><g id="abafab2f-70b8-4267-89b3-3407b148e73c" data-name="Warstwa 2"><g id="b15dbb9b-30e8-4afd-b15b-9baa47f74cb9" data-name="Warstwa 1"><rect width="1280" height="1280" style="fill:none"/><circle cx="640" cy="640" r="588.36" transform="translate(-265.1 640) rotate(-45)" style="mix-blend-mode:screen;fill:url(#a1e7a097-af14-4b15-98c9-810050a64e1b)"/><path d="M508.88,943.48c78.19,45.14,122.35,115,98.63,156.13s-106.33,37.8-184.53-7.34-122.34-115-98.61-156.13,106.33-37.8,184.51,7.34Z" style="fill-rule:evenodd;fill:url(#be1db52e-9323-4d2f-ab42-bdf65cf3486a)"/><path d="M611.59,1094.2c-21.4,37.07-102.45,30.33-181-15S305.61,967,327,929.9c35.68,68,166.23,160.16,284.59,164.3Z" style="fill:#5accc9;fill-rule:evenodd;mix-blend-mode:multiply"/><path d="M741.61,382.88,721.1,417.36c-28.81,47.72-16,34.86-61.34,69.86-27.48,21.19-51.29,28.56-84.51,34.55-99.75,18-191.15,56.44-244,148a249.78,249.78,0,0,0-33.41,121.63C296.21,897.73,358.18,994.51,449.11,1047s205.74,57.78,297,3.17a249.76,249.76,0,0,0,88.63-89.74c52.83-91.52,40.44-189.91,6.14-285.28C829.5,643.4,824,619.08,828.59,584.69c7.62-56.79,2.9-39.24,29.83-88.05l19.61-35c-25.2-6.95-50.65-18.84-72.72-31.58s-45.09-28.84-63.7-47.18Z" style="fill:#fff;fill-rule:evenodd;opacity:0.15"/><path d="M582.29,608.51C734,608.51,857,664.9,857,734.46s-123,126-274.74,126-274.72-56.4-274.72-126,123-126,274.72-126Z" style="fill-rule:evenodd;fill:url(#bec5610d-835a-46fc-aa51-eed1aad0d2f2)"/><path d="M582.29,860.42c-151.72,0-274.72-56.4-274.72-126a60.16,60.16,0,0,1,2.8-18.07,252,252,0,0,0-12.52,75C296.21,897.73,358.18,994.51,449.11,1047s205.74,57.78,297,3.17a249.76,249.76,0,0,0,88.63-89.74c44.48-77.06,42.73-159,20.59-239.86A59,59,0,0,1,857,734.46c0,69.56-123,126-274.74,126Z" style="fill-rule:evenodd;fill:url(#b2395bcc-3bbe-457a-8c4c-cbe83cb1a064)"/><path d="M810.82,788.71c0-65.23-115.33-118.1-257.59-118.1-112.82,0-208.69,33.25-243.56,79.54,16.85,62.15,132.48,110.27,272.62,110.27,93.49,0,176.06-21.41,225.69-54.11a56.62,56.62,0,0,0,2.84-17.6Z" style="fill-rule:evenodd;mix-blend-mode:screen;fill:url(#bfae5cb4-b042-481d-ac27-49fd5a5cd368)"/><path d="M739.76,801.85c0-55.67-98.44-100.8-219.88-100.8-92.75,0-172.08,26.32-204.39,63.57,29.48,55,137.75,95.8,266.8,95.8,50.3,0,97.43-6.2,138-17,12.52-12.67,19.49-26.74,19.49-41.55Z" style="fill-rule:evenodd;mix-blend-mode:screen;fill:url(#adb63f4b-c38e-438c-8872-a48192983d11)"/><path d="M582.29,860.42c-129,0-237.32-40.8-266.8-95.8a69.08,69.08,0,0,1-5.55-13.54,223.67,223.67,0,0,0-3.85,38.09C304.65,882.5,359,967.42,438.81,1013.48s180.52,50.7,260.63,2.78a219.23,219.23,0,0,0,77.77-78.74c24.57-42.56,33.06-86.81,31.14-131.46l-.37.25c-22.93,15.1-52.89,27.8-87.71,37.09-40.55,10.82-87.68,17-138,17Z" style="fill-rule:evenodd;mix-blend-mode:screen;fill:url(#adb37443-bb1d-4d86-abd5-3c8aacab7573)"/><path d="M315.49,764.62l-.24-.45.24.45Zm266.8,95.8c-129,0-237.32-40.8-266.8-95.8.62-.72,1.26-1.43,1.92-2.14-.45-1.23-.87-2.47-1.22-3.71q-.51,2.68-.94,5.4a183.5,183.5,0,0,0-2.2,25.64c-1.17,76.06,43.15,145.26,108.17,182.8s147.11,41.32,212.39,2.27A178.66,178.66,0,0,0,697,910.7a187.51,187.51,0,0,0,23.45-67.35l-.17,0c-40.55,10.82-87.68,17-138,17Z" style="fill-rule:evenodd;mix-blend-mode:screen;fill:url(#a3d8f4a1-b59a-403b-b4c4-dabeef3187cb)"/><path d="M880.62,508.88l23.46-42.08a140.29,140.29,0,0,1-14.39-2.31c-5-1.05-10-2.33-15-3.8L855.46,495C820.15,559,812,604.77,837.74,676.3c34,94.46,46.39,191.89-5.89,282.45a246.68,246.68,0,0,1-87.43,88.53c-90.23,54-203.73,48.7-293.61-3.2S299.61,896.53,301.23,791.41a246.6,246.6,0,0,1,33-120c52.28-90.56,143-127.88,241.65-146.32,12.94-2.42,24.49-.76,33.2,5.78,26.33,19.77,46.05,52.38,88.18,72-24.29-18.71-61-61.36-61.2-85.91-.06-6,1.89-10.13,5.81-13,33.93-17.54,57.68-44.24,82.17-84.81l20.09-33.82c-3.76-3.59-7.37-7.28-10.77-11-2.59-2.89-5.94-6.84-9.21-11.33L699.4,404.26c-33.48,55.46-61.91,80.53-128.65,92.56-109.26,19.7-205.26,62.92-261.44,160.23-81,140.22-24,324.64,127.13,411.92s339.34,44.36,420.29-95.86c56.19-97.32,45.62-202.06,8-306.53C841.83,602.76,849.33,565.6,880.62,508.88Z" style="fill-rule:evenodd;fill:url(#ea395854-cb4b-40e5-a13f-37d64d0adcf5)"/><path d="M842.57,523.6c-13.16,49.83-10.09,79.66-7,107.62,3.56,31.58,10.08,61.91,23.36,118.56-21.48-56.24-41.77-92.7-45.22-122.11-1.94-16.57,6-56.17,28.81-104.07Z" style="fill-rule:evenodd;mix-blend-mode:screen;fill:url(#ee677f44-1713-4310-8835-e16bc49da05e)"/><path d="M814.92,413.41,880.2,451.1c-51.8,89.73-123,145.6-159.08,124.78s-23.28-110.43,28.52-200.15l65.28,37.68Z" style="fill-rule:evenodd;opacity:0.5;mix-blend-mode:screen;fill:url(#ac82d929-f10b-44c6-b04e-d232bc74b75f)"/><path d="M791.76,397.67l30,19.56c-35.52,57.28-77.75,94.95-94.34,84.14s-1.25-66,34.27-123.26l30,19.56Z" style="fill-rule:evenodd;opacity:0.5;mix-blend-mode:screen;fill:url(#aaa55a71-74b5-47d4-95ac-978d69ffc8b5)"/><path d="M478.57,624.31c-6.44-6.09-14.24-13.77-23.06-13.35-31.75,1.54-69.94,41-86.3,65.19-39.27,58.15-53.87,130.32-27.63,189.46,7.69,17.32,58.64,48.35,59.7,36.84,2.36-25.79,1.78-51.44,20.19-84.41,23.44-42,55.48-70.38,79.45-88.77C532,705.43,534,697.33,522.33,680.41c-14.94-21.69-38.73-51.34-43.76-56.1ZM616.16,581c32.47,36,30.91,57.11,16.07,73.92-28,31.7-72.17,16.94-100.82-18.5s-34-54.24-18.87-70.1C535,542.7,583.7,545,616.16,581Z" style="fill-rule:evenodd;mix-blend-mode:screen;fill:url(#ec25c2f4-507c-48d0-859e-76ff80cbfc91)"/><g style="mix-blend-mode:screen"><path d="M595.86,583.77c-21.39-22.38-52.05-25-65.58-11.54-9.09,9.08-5.22,20.47,13.74,42.43s47.17,32,63.92,13.76C616.82,618.76,617.23,606.15,595.86,583.77ZM451.08,632.48c-3.71-2.3-8-2.34-14.78,1-20,9.83-43.18,36-52.64,49.21-31.61,44-52.21,102.71-37.3,152.53,1.61,5.36,5.36,15.33,10.62,17.21,2.41.86,4.79-1.27,6.35-7.66a178.26,178.26,0,0,1,21.41-51.38c23-37.8,53.17-68.67,88-95.46,11.59-8.92,14.05-14.24,12.71-19.06C483.89,673.27,455.82,635.42,451.08,632.48Z" style="fill-rule:evenodd;fill:url(#a5acc3af-fdca-4772-ad26-2d8531e1e72a)"/></g><path d="M785.67,397.58l15.41,10.47C777,449,750.5,477.59,742,471.81s4.14-43.7,28.26-84.7l15.42,10.47Z" style="fill-rule:evenodd;opacity:0.5;mix-blend-mode:screen;fill:url(#f4e5033c-a39a-48c3-a1eb-f698816a2535)"/><path d="M880.13,509.54c-8.71,15.09-50.82-5.37-94-45.7s-71.2-85.25-62.49-100.34l.29-.5c16,21.41,45.07,46,81.47,67,36.63,21.15,72.7,34.09,99.27,37.12l-24.49,42.42Z" style="fill:#7f8e99;fill-rule:evenodd;opacity:0.5;mix-blend-mode:multiply"/><path d="M948.48,470.22c-17.73,19.83-82.06,6.4-148.05-31.7S690.68,351.46,698.94,326.18c7.27-22.23,29.06-52.86,43.51-68.55l121.94,70.11h0L986.09,398.3c-6.41,20.53-21.93,54.38-37.61,71.92Zm-1.22-75.94-90.81-52.65-91.1-52.38c-10.36,15.51-3.3,2.89-12.56,19-34.24,59.59,149.76,165.82,184.27,106.42,9.34-16.07,2-3.66,10.2-20.39Z" style="fill-rule:evenodd;fill:url(#b762576d-ad42-4f45-b7f1-c50f82103111)"/><path d="M940.21,416.5c10.47-18,5.67-11,11.83-23.67l-93.77-54.37-94-54.06c-7.93,11.68-4.21,4-14.59,22C712.91,370.33,903.21,480.2,940.21,416.5Z" style="fill:#fff;fill-rule:evenodd;opacity:0.15"/><path d="M913.93,417.75c-9.81,11.5-48.88,2.55-89.46-20.88-39.14-22.6-65.92-50.72-63.22-65.46.79-4.32,7.83-20.44,17.26-40.51l160.71,92.79c-9.18,13.3-18,25.54-25.29,34.06Z" style="fill:#8e633f;fill-rule:evenodd"/><path d="M586.42,1097.28C497,1105,371,1039.47,336.93,953.24c51.25,73.17,161.46,134.21,249.49,144Z" style="fill-rule:evenodd;mix-blend-mode:screen;fill:url(#a5bc77b0-09b5-4147-927e-75c80ded6f93)"/><path d="M680.29,1074.92c99.68-40.57,160.18-118.29,185.28-218.8-3.32,116.55-75.1,203.72-185.28,218.8Z" style="fill:#fff;fill-rule:evenodd"/><path d="M719.11,352.45c-4.12-21.91,28.19-66.4,42-84.09l-18.65-10.73C728,273.32,706.21,304,698.94,326.18c-7.64,23.4,29.28,67.09,87.12,103.66-27-19.42-61.74-49.71-66.95-77.39Z" style="fill-rule:evenodd;mix-blend-mode:screen;fill:url(#aeb86802-f380-4a27-a4fe-3f465d1720e6)"/><path d="M886.9,288.75c67.27,38.84,111.67,87.88,99.17,109.54S908.9,406,841.63,367.16,730,279.28,742.45,257.63s77.17-7.72,144.45,31.12Z" style="fill-rule:evenodd;fill:url(#ad352c0e-c1fe-4a57-8913-8dc478282106)"/><path d="M953.83,408c-27.47,1.45-72-12.5-117.48-38.73a372.41,372.41,0,0,1-43-28.83c-7.21,9.12-19.54,10.11-28.94,1.77-9.84-8.72-12.91-24.49-7.31-36.07-15.62-18.82-22.07-35.72-15.8-46.59a17.16,17.16,0,0,1,1.36-2c-8.16,21.57,37.69,69,105,107.81,39.7,22.91,78.24,37.88,106.17,42.64Z" style="fill:#fff;fill-rule:evenodd"/><path d="M947.57,372.13c-10.52,12.33-52.39,2.73-95.89-22.38-42-24.22-70.66-54.37-67.77-70.17,2.32-12.65,41-95.13,59.06-125L1006,293.7c-19.61,27.06-37.56,53.95-58.44,78.43Z" style="fill:#8e633f;fill-rule:evenodd"/><path d="M948.45,356.14c-9.48,11-48,1.81-88.12-21.38-38.74-22.37-65.41-49.9-63-64.11,2-11.38,35.69-84,51.88-110.72L997.83,286.72c-17.62,24.16-30.55,47.6-49.38,69.42Z" style="fill-rule:evenodd;mix-blend-mode:screen;fill:url(#ba5fcd85-418b-4321-ad84-0d7483e11ad2)"/><path d="M920.42,229.31c-33,57.2-64.81,86.19-90,65.7s-10.18-73.64,22.85-130.84l67.17,65.14Z" style="fill-rule:evenodd;mix-blend-mode:screen;fill:url(#a6e4c30e-b3c3-4add-a785-bc8c9b8f8f74)"/><path d="M852.9,274.48c11.09,2.14,19,8.83,19,21.15s-6.51,23.77-15.38,26.66-19.13-12.08-21.17-26.22,6.44-23.73,17.53-21.59Z" style="fill-rule:evenodd;fill:url(#ea5a0e99-6630-4103-90ed-91f765b066a8)"/><path d="M957.78,310.77c5.33,8.35,1.21,25.93-9.3,32.41s-24.59,1.45-30.14-5.37.19-19.73,10-27,24.09-8.38,29.42,0Z" style="fill-rule:evenodd;fill:url(#f2b26205-597f-46aa-950a-96abc121bcf7)"/><path d="M937.54,201.05c-46.56-36-87.75-59.27-96.49-44.14-4.54,7.87.2,24.32,12.33,43.71-7,6.94-9.07,23.48.42,35.58,9.76,12.42,25.69,12.42,34,6.25q7.95,7.71,17,15.19c47.6,39,90.45,53.22,101.15,36.06C1014.75,278.57,984.09,237.08,937.54,201.05Z" style="fill:#edcaa6;fill-rule:evenodd;opacity:0.25;mix-blend-mode:screen"/><path d="M939.35,197.9c45.55,37.77,75.4,80.67,66.66,95.8s-52.76-3.21-98.3-41-75.39-80.67-66.66-95.81,52.75,3.22,98.3,41Z" style="fill:#936e4e;fill-rule:evenodd"/><path d="M924.62,190c37.46,31.06,62,66.34,54.81,78.78s-43.38-2.64-80.84-33.7-62-66.34-54.81-78.79,43.38,2.65,80.84,33.71Z" style="fill-rule:evenodd;mix-blend-mode:screen;fill:url(#ef1d8895-6217-473c-b35a-e3ce3f7db1fc)"/><path d="M900.47,178c14.16,10.57,23.51,22.83,20.88,27.38S905.11,205,891,194.45s-23.51-22.83-20.88-27.38,16.24.32,30.4,10.89Z" style="fill-rule:evenodd;fill:url(#b069433a-f45e-44e1-be45-bc9122bf45f0)"/><path d="M931.15,232.76c10.15,7.55,16.49,17,14.15,21s-12.45,1.19-22.6-6.36-16.48-17-14.14-21,12.45-1.2,22.59,6.36Z" style="fill-rule:evenodd;fill:url(#f9a28930-a8d6-4d98-bd7c-13a4c3abeb92)"/><path d="M981.91,251.68c11.3,9.14,18.3,20.29,15.63,24.91s-14,1-25.29-8.18-18.3-20.29-15.64-24.9,14-1,25.3,8.17Z" style="fill-rule:evenodd;fill:url(#a4d54bee-b974-4e3c-8511-cd938c602fbe)"/><path d="M884.38,237.4c-7.5,5.09-18.42,3.77-26.88-7s-8.45-23.43-1.74-28.72,20.11,0,28.9,10.3,7.22,20.34-.28,25.43Z" style="fill-rule:evenodd;fill:url(#b3b9e6ee-c6fa-414b-af26-b31aeb43fe99)"/><path d="M831,905.25c-54.87,138.12-209.33,202-352.21,137.57,122.08-1.32,254-45.18,352.21-137.57Z" style="fill-rule:evenodd;mix-blend-mode:screen;fill:url(#fc02a800-19dd-4c6e-bf6f-00ce17b644d6)"/></g></g></g></svg>