<svg xmlns="http://www.w3.org/2000/svg" xmlns:xlink="http://www.w3.org/1999/xlink" viewBox="0 0 1280 1280"><defs><radialGradient id="fe31b7b2-4c41-4a2d-909b-5208f99f6988" cx="640" cy="658.66" r="446.13" gradientTransform="translate(653.2 -259.63) rotate(45)" gradientUnits="userSpaceOnUse"><stop offset="0" stop-color="#ff7300"/><stop offset="0.11" stop-color="#ff7300" stop-opacity="0.86"/><stop offset="0.36" stop-color="#ff7300" stop-opacity="0.56"/><stop offset="0.58" stop-color="#ff7300" stop-opacity="0.32"/><stop offset="0.77" stop-color="#ff7300" stop-opacity="0.15"/><stop offset="0.91" stop-color="#ff7300" stop-opacity="0.04"/><stop offset="1" stop-color="#ff7300" stop-opacity="0"/></radialGradient><linearGradient id="ad887bd1-f7ec-46f3-9150-b493c671bc67" x1="648.33" y1="833.12" x2="648.33" y2="379.65" gradientUnits="userSpaceOnUse"><stop offset="0" stop-color="#e86900"/><stop offset="1" stop-color="#fc8f00"/></linearGradient><radialGradient id="bdaa3bbd-ac59-45c2-aff2-f27cff29c1c4" cx="650.55" cy="270.78" r="550.19" gradientUnits="userSpaceOnUse"><stop offset="0.51" stop-color="#fff"/><stop offset="0.65" stop-color="#f8e1c3"/><stop offset="0.95" stop-color="#e6962d"/><stop offset="1" stop-color="#e38812"/></radialGradient><linearGradient id="f4c80588-0c3a-437e-9c2a-c40673bb136d" x1="204.44" y1="471.62" x2="284.7" y2="471.62" gradientUnits="userSpaceOnUse"><stop offset="0" stop-color="#ed8e00"/><stop offset="1" stop-color="#ffcb30"/></linearGradient><linearGradient id="aa8d685e-6dda-4f24-a735-627c486ef6d3" x1="648.33" y1="331.95" x2="648.33" y2="239.14" xlink:href="#f4c80588-0c3a-437e-9c2a-c40673bb136d"/><linearGradient id="a091d4cd-d464-49ce-b5a3-c2c8d1558f81" x1="1011.95" y1="471.62" x2="1092.21" y2="471.62" xlink:href="#f4c80588-0c3a-437e-9c2a-c40673bb136d"/><linearGradient id="eec1f766-8591-4fdb-8a94-c6557ac125c6" x1="307.49" y1="934.84" x2="989.16" y2="934.84" gradientUnits="userSpaceOnUse"><stop offset="0.05" stop-color="#ed9500"/><stop offset="0.4" stop-color="#fc0"/><stop offset="0.93" stop-color="#b36600"/></linearGradient><linearGradient id="bc8c6343-738e-4a30-bf8a-f944c000bc64" x1="204.44" y1="598.34" x2="1092.21" y2="598.34" xlink:href="#eec1f766-8591-4fdb-8a94-c6557ac125c6"/><linearGradient id="b9091c6c-c493-4851-8a75-d66ffc80c668" x1="204.44" y1="673.64" x2="376.5" y2="673.64" gradientUnits="userSpaceOnUse"><stop offset="0" stop-color="#ffa163"/><stop offset="1" stop-color="#fff"/></linearGradient><linearGradient id="abba362b-93fe-4a3e-95c3-263bf4b641b4" x1="862.38" y1="682.76" x2="1092.21" y2="682.76" gradientUnits="userSpaceOnUse"><stop offset="0" stop-color="#fff"/><stop offset="1" stop-color="#ffa163"/></linearGradient><radialGradient id="a8462d55-f897-48cf-8a5c-6d1c8654fab3" cx="421.74" cy="634.36" r="373.44" gradientUnits="userSpaceOnUse"><stop offset="0" stop-color="#fff0b0"/><stop offset="1"/></radialGradient><radialGradient id="b042a797-e15a-4e80-bcf9-48291f0c8fca" cx="319.7" cy="604.54" r="575.38" xlink:href="#a8462d55-f897-48cf-8a5c-6d1c8654fab3"/><linearGradient id="afcf1128-a8c3-4f55-807a-476b6718e704" x1="680.3" y1="550" x2="1030.97" y2="550" xlink:href="#f4c80588-0c3a-437e-9c2a-c40673bb136d"/><linearGradient id="e742a398-06d1-490f-ac72-b9e9eaa7559f" x1="265.68" y1="550" x2="616.36" y2="550" gradientUnits="userSpaceOnUse"><stop offset="0" stop-color="#ffcb30"/><stop offset="1" stop-color="#ed8e00"/></linearGradient><linearGradient id="a203e9c7-616f-4656-ae77-37dadb53df16" x1="307.49" y1="919.23" x2="376.5" y2="919.23" xlink:href="#b9091c6c-c493-4851-8a75-d66ffc80c668"/><radialGradient id="ad9924d3-395d-4934-bda7-9829bf7a8d89" cx="429.64" cy="910.35" r="267.74" xlink:href="#a8462d55-f897-48cf-8a5c-6d1c8654fab3"/><radialGradient id="e47a89fa-5b34-4133-9e21-7f8cccdf28cc" cx="603.39" cy="994.88" r="195.65" xlink:href="#a8462d55-f897-48cf-8a5c-6d1c8654fab3"/><linearGradient id="ac718de1-74bc-4630-878f-94adbb29717b" x1="862.38" y1="928.58" x2="989.16" y2="928.58" xlink:href="#abba362b-93fe-4a3e-95c3-263bf4b641b4"/><radialGradient id="f5911f46-53c1-4682-8a69-303fa7c8076c" cx="645.87" cy="914.82" r="507.27" xlink:href="#a8462d55-f897-48cf-8a5c-6d1c8654fab3"/><radialGradient id="fa1cb287-46ba-4e22-ac13-a1234e89003c" cx="637.7" cy="352.35" r="162.87" xlink:href="#b9091c6c-c493-4851-8a75-d66ffc80c668"/><radialGradient id="ebc3b037-4a8a-4a46-8f3f-ebcf5a667924" cx="622.32" cy="696.4" r="222.61" gradientUnits="userSpaceOnUse"><stop offset="0" stop-color="#ff8aaf"/><stop offset="1" stop-color="#d7001e"/></radialGradient><radialGradient id="b2e001f2-600e-4aad-91a8-168d32162dd8" cx="528.4" cy="708.04" r="368.45" gradientUnits="userSpaceOnUse"><stop offset="0" stop-color="#ff8480"/><stop offset="1" stop-color="#f50022"/></radialGradient><radialGradient id="fcaa08e9-6eac-4c4a-8942-d8f4384597bc" cx="580.48" cy="609.47" r="168.42" gradientUnits="userSpaceOnUse"><stop offset="0" stop-color="#ffe3e3"/><stop offset="1" stop-color="#ff8a91"/></radialGradient><radialGradient id="b65d492e-e79d-4ed2-a06f-c5a1e9e2fb6a" cx="563.78" cy="990.89" r="159.2" gradientUnits="userSpaceOnUse"><stop offset="0" stop-color="#eb716d"/><stop offset="0.27" stop-color="#e35252"/><stop offset="1" stop-color="#cf0008"/></radialGradient><radialGradient id="ab6df6e7-4cd9-4c75-bf2a-5ed4bbcf1a34" cx="645.08" cy="705.7" r="185.66" gradientUnits="userSpaceOnUse"><stop offset="0" stop-color="#eb716d"/><stop offset="1" stop-color="#cf0008"/></radialGradient><radialGradient id="a5a6f92f-10c8-45af-8efa-d3d9e02a0cb4" cx="662.2" cy="644.66" r="280.33" xlink:href="#b2e001f2-600e-4aad-91a8-168d32162dd8"/><radialGradient id="a080f140-40b1-448a-ad34-1f7eff2c15d5" cx="640.2" cy="729.31" r="184.4" xlink:href="#fcaa08e9-6eac-4c4a-8942-d8f4384597bc"/><linearGradient id="a38c57bd-2fc0-433e-aa19-d52fb58f796f" x1="538.31" y1="668.79" x2="648.33" y2="668.79" gradientUnits="userSpaceOnUse"><stop offset="0" stop-color="#f5d36c"/><stop offset="1" stop-color="#fff5b0"/></linearGradient><linearGradient id="a947fd20-6c9d-4f68-8df5-9501eb8b2a17" x1="552.17" y1="881.04" x2="552.17" y2="692.32" xlink:href="#f4c80588-0c3a-437e-9c2a-c40673bb136d"/><linearGradient id="a2aee11b-7ba9-4ca9-b2b4-d25150b1395f" x1="553.29" y1="889.3" x2="648.33" y2="889.3" gradientUnits="userSpaceOnUse"><stop offset="0" stop-color="#a34900"/><stop offset="1" stop-color="#f09c00"/></linearGradient><linearGradient id="bd569839-4f8f-448d-873e-47fffd31ee09" x1="648.32" y1="668.79" x2="758.33" y2="668.79" gradientUnits="userSpaceOnUse"><stop offset="0" stop-color="#f09c00"/><stop offset="1" stop-color="#a34900"/></linearGradient><linearGradient id="fd01bb1f-a8d6-4884-ba2b-5626a60fa526" x1="744.48" y1="881.04" x2="744.48" y2="692.32" xlink:href="#a2aee11b-7ba9-4ca9-b2b4-d25150b1395f"/><linearGradient id="bad6dd82-d2e3-488f-95a8-ecb1e57df8a5" x1="648.32" y1="889.3" x2="743.36" y2="889.3" gradientUnits="userSpaceOnUse"><stop offset="0" stop-color="#ffbf00"/><stop offset="1" stop-color="#db6a00"/></linearGradient><radialGradient id="f17e79de-52f3-432a-91a0-f2f3bd2ba689" cx="622.92" cy="310.25" r="108.36" gradientUnits="userSpaceOnUse"><stop offset="0" stop-color="#fccd10"/><stop offset="0.22" stop-color="#edab09"/><stop offset="0.45" stop-color="#e08e02"/><stop offset="0.58" stop-color="#db8300"/><stop offset="0.71" stop-color="#d67d00"/><stop offset="0.88" stop-color="#c86c00"/><stop offset="1" stop-color="#ba5b00"/></radialGradient><radialGradient id="f3627a6b-3610-407d-aff1-6690507c269d" cx="598.18" cy="275.95" r="131.9" gradientUnits="userSpaceOnUse"><stop offset="0" stop-color="#ffe58a"/><stop offset="1"/></radialGradient><radialGradient id="b7388029-845e-435e-9050-78fb50ce13c5" cx="570.3" cy="248.75" r="130.2" xlink:href="#f3627a6b-3610-407d-aff1-6690507c269d"/><radialGradient id="b55fa1ca-b9b4-450b-867c-a81fed234a91" cx="652.68" cy="318.3" r="125.06" xlink:href="#f3627a6b-3610-407d-aff1-6690507c269d"/><radialGradient id="a314b23e-90de-45fb-ab1e-228234532ef3" cx="631.52" cy="331.95" r="126.82" gradientUnits="userSpaceOnUse"><stop offset="0" stop-color="#fff200"/><stop offset="0.07" stop-color="#fff200" stop-opacity="0.88"/><stop offset="0.21" stop-color="#fff200" stop-opacity="0.65"/><stop offset="0.36" stop-color="#fff200" stop-opacity="0.45"/><stop offset="0.5" stop-color="#fff200" stop-opacity="0.29"/><stop offset="0.64" stop-color="#fff200" stop-opacity="0.16"/><stop offset="0.77" stop-color="#fff200" stop-opacity="0.07"/><stop offset="0.89" stop-color="#fff200" stop-opacity="0.02"/><stop offset="1" stop-color="#fff200" stop-opacity="0"/></radialGradient><radialGradient id="a0b99cf2-a108-43dd-9929-3b1c3536e518" cx="614.52" cy="702.02" r="100.07" gradientUnits="userSpaceOnUse"><stop offset="0" stop-color="#ff8854"/><stop offset="0.07" stop-color="#ff8854" stop-opacity="0.88"/><stop offset="0.21" stop-color="#ff8854" stop-opacity="0.65"/><stop offset="0.36" stop-color="#ff8854" stop-opacity="0.45"/><stop offset="0.5" stop-color="#ff8854" stop-opacity="0.29"/><stop offset="0.64" stop-color="#ff8854" stop-opacity="0.16"/><stop offset="0.77" stop-color="#ff8854" stop-opacity="0.07"/><stop offset="0.89" stop-color="#ff8854" stop-opacity="0.02"/><stop offset="1" stop-color="#ff8854" stop-opacity="0"/></radialGradient></defs><g style="isolation:isolate"><g id="b69d9849-6e81-4c7e-92c2-5131368cde55" data-name="Warstwa 2"><g id="af2b9738-f936-4637-bd06-ff5ca1526f1a" data-name="Warstwa 1"><rect width="1280" height="1280" style="fill:none"/><circle cx="640" cy="658.66" r="446.14" transform="translate(-278.29 645.47) rotate(-45)" style="opacity:0.75;mix-blend-mode:screen;fill:url(#fe31b7b2-4c41-4a2d-909b-5208f99f6988)"/><path d="M883.06,379.65a57,57,0,0,0-24.82,108.41c-13.58,52.18-47.51,114.2-81,156.82-34.9,44.43-81.91,66.65-128.92,66.64s-94-22.21-128.93-66.64c-33.48-42.62-67.41-104.64-81-156.82a57,57,0,1,0-35.9,4.59c-1.07,66.88-33.51,178.24-88.72,211.8l34.92,128.67H947.94l34.93-128.67c-55.21-33.56-87.65-144.92-88.73-211.8a57,57,0,0,0-11.08-113Z" style="fill-rule:evenodd;fill:url(#ad887bd1-f7ec-46f3-9150-b493c671bc67)"/><path d="M930.85,640.39c-43.86,7.91-97.8-30.48-98.76-83.92-15.69,32.2-35.34,63.59-54.84,88.41-34.9,44.43-81.91,66.65-128.92,66.64s-94-22.21-128.93-66.64c-19.5-24.82-39.14-56.21-54.84-88.41-.95,53.44-54.89,91.83-98.76,83.92-13.84,28-31.33,51.49-52,64.06l34.92,128.67H947.94l34.93-128.67c-20.69-12.57-38.18-36.07-52-64.06Z" style="fill-rule:evenodd;mix-blend-mode:multiply;fill:url(#bdaa3bbd-ac59-45c2-aff2-f27cff29c1c4)"/><path d="M204.44,446.64c.13-4.51,4.1-10.35,9.75-11.71a65.81,65.81,0,0,1,40.66,11.14c12.88,8.68,25.84,24.24,29.85,47.86l-58.37,14.5-21.89-61.79Z" style="fill-rule:evenodd;fill:url(#f4c80588-0c3a-437e-9c2a-c40673bb136d)"/><path d="M648.33,239.14a79.44,79.44,0,0,0-79.44,79.43V332H727.76V318.57a79.43,79.43,0,0,0-79.43-79.43Z" style="fill-rule:evenodd;fill:url(#aa8d685e-6dda-4f24-a735-627c486ef6d3)"/><path d="M1092.21,446.64c-.13-4.51-4.09-10.35-9.74-11.71a65.82,65.82,0,0,0-40.67,11.14c-12.88,8.68-25.83,24.24-29.85,47.86l58.38,14.5,21.88-61.79Z" style="fill-rule:evenodd;fill:url(#a091d4cd-d464-49ce-b5a3-c2c8d1558f81)"/><path d="M989.16,834v96.8a31.86,31.86,0,0,1-4.68,17c-29.37,49.34-167,87.94-336.15,87.94s-306.78-38.6-336.16-87.94a32,32,0,0,1-4.68-17V834c33.6,130,648.07,130,681.67,0Z" style="fill-rule:evenodd;fill:url(#eec1f766-8591-4fdb-8a94-c6557ac125c6)"/><path d="M648.33,252.52a79.45,79.45,0,0,1,32,152.17C702.48,505,747.07,636.31,844.83,667.46,928.24,694,1006,622.63,1031,558.76a65.88,65.88,0,0,1,61.24-112.12c-42.8,130-79.26,267.84-103.05,398.59-10.07,55.36-159.32,98.93-340.83,98.93s-330.77-43.57-340.84-98.93c-23.79-130.75-60.25-268.55-103-398.59a65.88,65.88,0,0,1,61.25,112.12c25,63.87,102.73,135.28,186.14,108.7C549.58,636.31,594.17,505,616.36,404.69a79.44,79.44,0,0,1,32-152.17Z" style="fill-rule:evenodd;fill:url(#bc8c6343-738e-4a30-bf8a-f944c000bc64)"/><path d="M376.5,902.76q-24.72-140.75-58-270c-24.11-21.27-42.73-48.22-52.79-74a65.88,65.88,0,0,0-61.25-112.12c42.8,130,79.26,267.84,103.05,398.59,3.93,21.6,29.05,41.41,69,57.53Z" style="fill-rule:evenodd;mix-blend-mode:multiply;fill:url(#b9091c6c-c493-4851-8a75-d66ffc80c668)"/><path d="M905.66,670.66Q879.82,793,862.38,921c70.78-17.51,118.41-43.54,126.2-73.14l.08-.32c.2-.77.36-1.54.5-2.31,23.79-130.75,60.25-268.54,103.05-398.59h0A65.88,65.88,0,0,0,1031,558.76c-18.73,47.88-67.12,100-125.31,111.9Z" style="fill-rule:evenodd;mix-blend-mode:multiply;fill:url(#abba362b-93fe-4a3e-95c3-263bf4b641b4)"/><path d="M542.44,939q-7.68-157.35-26.52-311.92c-18.33,18.39-39.54,32.53-64.09,40.36A119.3,119.3,0,0,1,391,670.65c19.35,82.41,33,166,42.92,250.25,32,7.93,68.66,14.12,108.56,18.12Z" style="fill-rule:evenodd;mix-blend-mode:screen;fill:url(#a8462d55-f897-48cf-8a5c-6d1c8654fab3)"/><path d="M709.69,506.77c-11.43,145.5-18.35,291-16.64,436.5,32-1.29,62.54-3.93,91.1-7.73,8-93.73,17.77-187.45,31.41-281.17-49.73-29.12-83.09-86.52-105.87-147.6Z" style="fill-rule:evenodd;mix-blend-mode:screen;fill:url(#b042a797-e15a-4e80-bcf9-48291f0c8fca)"/><path d="M844.83,667.46C928.23,694,1006,622.64,1031,558.77,1017.61,609.91,979.6,672,915.44,689.35,755,732.75,687.76,528.39,680.3,404.69,702.48,505,747.07,636.31,844.83,667.46Z" style="fill-rule:evenodd;fill:url(#afcf1128-a8c3-4f55-807a-476b6718e704)"/><path d="M451.83,667.46C368.42,694,290.66,622.64,265.68,558.77,279,609.91,317.06,672,381.21,689.35c160.49,43.4,227.68-161,235.15-284.66C594.17,505,549.58,636.31,451.83,667.46Z" style="fill-rule:evenodd;fill:url(#e742a398-06d1-490f-ac72-b9e9eaa7559f)"/><path d="M376.5,993.23V902.76c-40-16.12-65.08-35.93-69-57.53v85.53a32,32,0,0,0,4.68,17c10,16.74,32.42,32.25,64.33,45.44Z" style="fill-rule:evenodd;mix-blend-mode:multiply;fill:url(#a203e9c7-616f-4656-ae77-37dadb53df16)"/><path d="M433.88,920.9v90.94c31.88,8.12,68.53,14.5,108.56,18.61V939c-39.9-4-76.6-10.19-108.56-18.12Z" style="fill-rule:evenodd;opacity:0.75;mix-blend-mode:screen;fill:url(#ad9924d3-395d-4934-bda7-9829bf7a8d89)"/><path d="M693.05,943.27v91.54c32.05-1.32,62.61-4,91.1-7.93V935.54c-28.56,3.8-59.15,6.44-91.1,7.73Z" style="fill-rule:evenodd;opacity:0.75;mix-blend-mode:screen;fill:url(#e47a89fa-5b34-4133-9e21-7f8cccdf28cc)"/><path d="M862.38,921v90.94C925,996,969.27,973.34,984.48,947.79a31.86,31.86,0,0,0,4.68-17V845.23C983.58,875.91,935.26,903,862.38,921Z" style="fill-rule:evenodd;mix-blend-mode:multiply;fill:url(#ac718de1-74bc-4630-878f-94adbb29717b)"/><path d="M963,878.21C912.6,917,789.31,944.16,645.87,944.16S379.13,917,328.75,878.21c45.13,42.7,170.38,73.22,317.12,73.22s272-30.52,317.11-73.22Z" style="fill-rule:evenodd;opacity:0.65;mix-blend-mode:screen;fill:url(#f5911f46-53c1-4682-8a69-303fa7c8076c)"/><path d="M648.33,411.38a79.22,79.22,0,0,1-32-6.69Q614.74,412,613,419.48a79.55,79.55,0,0,0,74,13.39c-2.42-9.59-4.63-19-6.66-28.19a79.09,79.09,0,0,1-32,6.7Z" style="fill-rule:evenodd;mix-blend-mode:multiply;fill:url(#fa1cb287-46ba-4e22-ac13-a1234e89003c)"/><polygon points="538.31 692.32 648.33 637.25 758.34 692.32 743.37 881.03 648.33 908.01 553.29 881.03 538.31 692.32 538.31 692.32" style="fill:#be8954;fill-rule:evenodd"/><polygon points="552.52 700.34 648.32 652.38 744.13 700.37 730.62 870.55 648.32 893.95 566.03 870.58 552.52 700.34 552.52 700.34" style="fill:#e6e6e6;fill-rule:evenodd"/><polygon points="585.68 719.05 595.77 846.2 648.32 861.12 700.88 846.18 710.97 719.08 648.32 687.69 585.68 719.05 585.68 719.05" style="fill-rule:evenodd;fill:url(#ebc3b037-4a8a-4a46-8f3f-ebcf5a667924)"/><polygon points="566.03 870.58 595.77 846.2 585.68 719.05 552.52 700.34 566.03 870.58 566.03 870.58" style="fill-rule:evenodd;fill:url(#b2e001f2-600e-4aad-91a8-168d32162dd8)"/><polygon points="585.68 719.05 648.32 687.69 648.32 652.38 552.52 700.34 585.68 719.05 585.68 719.05" style="fill-rule:evenodd;fill:url(#fcaa08e9-6eac-4c4a-8942-d8f4384597bc)"/><polygon points="648.32 861.12 595.77 846.2 566.03 870.58 648.32 893.95 648.32 861.12 648.32 861.12" style="fill-rule:evenodd;fill:url(#b65d492e-e79d-4ed2-a06f-c5a1e9e2fb6a)"/><polygon points="730.61 870.58 700.87 846.2 710.96 719.05 744.12 700.34 730.61 870.58 730.61 870.58" style="fill-rule:evenodd;fill:url(#ab6df6e7-4cd9-4c75-bf2a-5ed4bbcf1a34)"/><polygon points="710.96 719.05 648.32 687.69 648.32 652.38 744.12 700.34 710.96 719.05 710.96 719.05" style="fill-rule:evenodd;fill:url(#a5a6f92f-10c8-45af-8efa-d3d9e02a0cb4)"/><polygon points="648.32 861.12 700.87 846.2 730.61 870.58 648.32 893.95 648.32 861.12 648.32 861.12" style="fill-rule:evenodd;fill:url(#a080f140-40b1-448a-ad34-1f7eff2c15d5)"/><path d="M616.06,696.7c-17.85,9.64-43.26,15.08-63.54,3.64l33.16,18.71,62.64-31.36V652.38c0,18.73-15.28,35.14-32.26,44.32Z" style="fill:#fff;fill-rule:evenodd;opacity:0.65;mix-blend-mode:screen"/><path d="M671.24,859.81c23.69-7.82,49.49,2.69,59.34,10.75L700.87,846.2l-52.55,14.92v24.81c.12-12.3,6-20.53,22.92-26.12Z" style="fill:#fff;fill-rule:evenodd;opacity:0.45;mix-blend-mode:screen"/><polygon points="552.52 700.34 648.33 652.38 648.33 637.25 538.31 692.32 552.52 700.34 552.52 700.34" style="fill-rule:evenodd;fill:url(#a38c57bd-2fc0-433e-aa19-d52fb58f796f)"/><polygon points="566.03 870.58 552.52 700.34 538.31 692.32 553.29 881.03 566.03 870.58 566.03 870.58" style="fill-rule:evenodd;fill:url(#a947fd20-6c9d-4f68-8df5-9501eb8b2a17)"/><polygon points="648.32 893.95 566.03 870.58 553.29 881.03 648.33 908.01 648.32 893.95 648.32 893.95" style="fill-rule:evenodd;fill:url(#a2aee11b-7ba9-4ca9-b2b4-d25150b1395f)"/><polygon points="744.13 700.34 648.32 652.38 648.32 637.25 758.34 692.32 744.13 700.34 744.13 700.34" style="fill-rule:evenodd;fill:url(#bd569839-4f8f-448d-873e-47fffd31ee09)"/><polygon points="730.62 870.58 744.13 700.34 758.34 692.32 743.36 881.03 730.62 870.58 730.62 870.58" style="fill-rule:evenodd;fill:url(#fd01bb1f-a8d6-4884-ba2b-5626a60fa526)"/><polygon points="648.32 893.95 730.62 870.58 743.36 881.03 648.32 908.01 648.32 893.95 648.32 893.95" style="fill-rule:evenodd;fill:url(#bad6dd82-d2e3-488f-95a8-ecb1e57df8a5)"/><path d="M544.61,689.17c31.17-.83,77.85-23.58,97.18-48.65l-97.18,48.65Z" style="fill:#fffce3;fill-rule:evenodd;opacity:0.7000000000000001;mix-blend-mode:screen"/><path d="M648.33,252.52A79.44,79.44,0,1,1,568.89,332a79.43,79.43,0,0,1,79.44-79.43Z" style="fill-rule:evenodd;fill:url(#f17e79de-52f3-432a-91a0-f2f3bd2ba689)"/><path d="M639.47,262.92a60.68,60.68,0,1,1-60.68,60.67,60.67,60.67,0,0,1,60.68-60.67Z" style="fill-rule:evenodd;mix-blend-mode:screen;fill:url(#f3627a6b-3610-407d-aff1-6690507c269d)"/><path d="M602.82,284.45c17.81-17.8,43.27-21.2,56.88-7.59s10.22,39.08-7.59,56.88-43.26,21.2-56.87,7.59-10.22-39.08,7.58-56.88Z" style="fill-rule:evenodd;mix-blend-mode:screen;fill:url(#b7388029-845e-435e-9050-78fb50ce13c5)"/><path d="M684.22,267.73A73.15,73.15,0,0,1,614.52,396a75.65,75.65,0,0,0,93.18-73.52,75.33,75.33,0,0,0-23.48-54.75Z" style="fill-rule:evenodd;mix-blend-mode:screen;fill:url(#b55fa1ca-b9b4-450b-867c-a81fed234a91)"/><path d="M758.34,332A126.82,126.82,0,1,1,631.52,205.13,126.82,126.82,0,0,1,758.34,332Z" style="fill-rule:evenodd;mix-blend-mode:screen;fill:url(#a314b23e-90de-45fb-ab1e-228234532ef3)"/><path d="M714.6,702A100.08,100.08,0,1,1,614.52,602,100.08,100.08,0,0,1,714.6,702Z" style="fill-rule:evenodd;mix-blend-mode:screen;fill:url(#a0b99cf2-a108-43dd-9929-3b1c3536e518)"/></g></g></g></svg>