<svg xmlns="http://www.w3.org/2000/svg" xmlns:xlink="http://www.w3.org/1999/xlink" viewBox="0 0 1280 1280"><defs><linearGradient id="a60651f6-fdf8-4d63-ad35-c9f94d38257e" x1="774.82" y1="855.07" x2="774.82" y2="450.75" gradientUnits="userSpaceOnUse"><stop offset="0.05" stop-color="#ff4b00"/><stop offset="1" stop-color="#ff7204"/></linearGradient><linearGradient id="bb5bb578-8009-4df5-9c11-d44a2fafae78" x1="954.83" y1="855.01" x2="954.83" y2="417.42" gradientUnits="userSpaceOnUse"><stop offset="0" stop-color="#ffa200"/><stop offset="1" stop-color="#ffb82f"/></linearGradient><linearGradient id="b8545925-dfc2-4ee8-9a71-959741f9e5ab" x1="954.82" y1="815.62" x2="954.82" y2="456.75" gradientUnits="userSpaceOnUse"><stop offset="0" stop-color="#ff7234"/><stop offset="1" stop-color="#ff5e00"/></linearGradient><linearGradient id="e88fd97c-e327-4689-8b73-e4ed953cc1f0" x1="947.41" y1="814.83" x2="947.41" y2="456.85" gradientUnits="userSpaceOnUse"><stop offset="0" stop-color="#de0086"/><stop offset="1" stop-color="#ff003b"/></linearGradient><linearGradient id="aa006709-dde4-4086-92c0-4606f103d2b8" x1="973.42" y1="636.98" x2="973.42" y2="524.15" gradientUnits="userSpaceOnUse"><stop offset="0" stop-color="#ffa200"/><stop offset="1" stop-color="#ffc234"/></linearGradient><linearGradient id="b8b1b5e6-a6c9-4d9f-9a11-986d8a15a582" x1="973.42" y1="636.98" x2="973.42" y2="524.15" xlink:href="#b8545925-dfc2-4ee8-9a71-959741f9e5ab"/><linearGradient id="bb5acbe3-104e-400a-8df5-d7ab69e8dbc4" x1="869.3" y1="477.48" x2="869.3" y2="405.07" gradientUnits="userSpaceOnUse"><stop offset="0" stop-color="#ffde00"/><stop offset="1" stop-color="#ffe834"/></linearGradient><linearGradient id="f4a730a7-42ca-4da8-9852-326519cfb274" x1="963.92" y1="638.09" x2="963.92" y2="618.55" xlink:href="#bb5acbe3-104e-400a-8df5-d7ab69e8dbc4"/><linearGradient id="bc89543f-2b24-49db-b155-06efe5fbd42e" x1="961.02" y1="721.26" x2="961.02" y2="685.7" xlink:href="#bb5acbe3-104e-400a-8df5-d7ab69e8dbc4"/><linearGradient id="bc010d52-d36a-4a96-8da8-e3cb08ded8c8" x1="826.58" y1="811.13" x2="870.27" y2="811.13" xlink:href="#bb5acbe3-104e-400a-8df5-d7ab69e8dbc4"/><linearGradient id="aeea80ea-146f-4ab7-8a4f-38e9910f867e" x1="512.85" y1="829.48" x2="512.85" y2="439.24" gradientUnits="userSpaceOnUse"><stop offset="0" stop-color="#ff5e00"/><stop offset="0.54" stop-color="#ff691c"/><stop offset="1" stop-color="#ffff34"/></linearGradient><linearGradient id="bc4c8e5b-6cf1-43b8-8f11-73c87e835421" x1="403.26" y1="698.24" x2="403.26" y2="450.09" xlink:href="#a60651f6-fdf8-4d63-ad35-c9f94d38257e"/><linearGradient id="bcfd345a-dadb-4d26-8c8b-9932aeae80e5" x1="567.27" y1="875.1" x2="567.27" y2="443.97" xlink:href="#bb5bb578-8009-4df5-9c11-d44a2fafae78"/><linearGradient id="f5c5b727-160e-4b90-adf6-7a607adf0468" x1="567.26" y1="819.94" x2="567.26" y2="501.68" xlink:href="#b8545925-dfc2-4ee8-9a71-959741f9e5ab"/><linearGradient id="bb08e99a-8868-4bdd-9a7c-fd9df5335e1e" x1="556.91" y1="812.18" x2="556.91" y2="511.32" xlink:href="#e88fd97c-e327-4689-8b73-e4ed953cc1f0"/><linearGradient id="f834b6a0-cf92-4f36-951b-f7c32eb362c1" x1="620.44" y1="868.44" x2="620.44" y2="794.63" xlink:href="#a60651f6-fdf8-4d63-ad35-c9f94d38257e"/><linearGradient id="a765de63-73ca-4eb3-b318-f887fda199b1" x1="465" y1="530.28" x2="465" y2="444.72" xlink:href="#bb5acbe3-104e-400a-8df5-d7ab69e8dbc4"/><linearGradient id="f1b113e1-3b42-4a04-b516-d0cebd8dc1a0" x1="611.77" y1="519.78" x2="611.77" y2="438.97" xlink:href="#bb5acbe3-104e-400a-8df5-d7ab69e8dbc4"/><linearGradient id="a5973177-e679-4f6e-9abe-867c72e051f8" x1="669.22" y1="677.87" x2="669.22" y2="576.41" xlink:href="#bb5acbe3-104e-400a-8df5-d7ab69e8dbc4"/><linearGradient id="f43df2f2-8bcd-4366-999a-94fe3df2631c" x1="484.99" y1="677.87" x2="484.99" y2="620.94" xlink:href="#bb5acbe3-104e-400a-8df5-d7ab69e8dbc4"/><linearGradient id="e7c21df1-3c4c-40ed-b0a8-25db5aa38fc2" x1="658.38" y1="800.07" x2="706.62" y2="800.07" xlink:href="#bb5acbe3-104e-400a-8df5-d7ab69e8dbc4"/><linearGradient id="ad254aad-6da6-4e52-8c44-27c35c17fbad" x1="437.87" y1="806.2" x2="505.38" y2="806.2" xlink:href="#bb5acbe3-104e-400a-8df5-d7ab69e8dbc4"/><linearGradient id="a3f1d970-1c26-448a-9521-c50a9e708f93" x1="223.48" y1="820.95" x2="223.48" y2="571.67" xlink:href="#a60651f6-fdf8-4d63-ad35-c9f94d38257e"/><linearGradient id="a15cbe84-2736-43fd-a2e5-03f7d2a27065" x1="299.49" y1="820.96" x2="299.49" y2="568.05" xlink:href="#aa006709-dde4-4086-92c0-4606f103d2b8"/><linearGradient id="a23611ee-a290-4981-9015-dc335a2f7154" x1="201.25" y1="669.33" x2="201.25" y2="654.96" xlink:href="#bb5acbe3-104e-400a-8df5-d7ab69e8dbc4"/><linearGradient id="e294233a-c26b-45ab-8113-0f433ed65329" x1="276.57" y1="595.87" x2="276.57" y2="567.72" xlink:href="#bb5acbe3-104e-400a-8df5-d7ab69e8dbc4"/><linearGradient id="ae9a0631-a5f5-4547-82bf-98882e5d20e5" x1="384.31" y1="656.99" x2="384.31" y2="649.5" xlink:href="#bb5acbe3-104e-400a-8df5-d7ab69e8dbc4"/></defs><g style="isolation:isolate"><g id="aae28585-ed35-4731-85e6-597da64a274e" data-name="Warstwa 2"><g id="b11728a1-64ef-4746-acf3-653ba45ba922" data-name="Warstwa 1"><rect width="1280" height="1280" style="fill:none"/><path d="M784.8,450.75S700.66,462.58,692,475s16.8,343.88,31,362.64,136.44,17.41,136.44,17.41Z" style="fill:url(#a60651f6-fdf8-4d63-ad35-c9f94d38257e)"/><path d="M1075.57,436C992,386.85,784.84,450.75,784.84,450.75c-14.06,9.84-1.67,378.63,7.67,390s99.5,19.66,107.76,9.83,14.94-95.37,14.94-95.37,109.63,10.42,145.61-16.22c46.41-34.32,71.58-109.24,70.3-177.37C1130.23,507.48,1112.64,457.83,1075.57,436ZM918.16,539c5-21,95.17-26,111.59,28.21s-77.08,74.23-100,69C913,632.45,913.15,560,918.16,539Z" style="fill:url(#bb5bb578-8009-4df5-9c11-d44a2fafae78)"/><path d="M938.71,676.3c-2.56,0-5-.1-7.28-.3a74,74,0,0,1-10.22-1.47c-12.49-2.75-23.3-10.72-30.68-22.42-20.15-32.15-15-103.92-10.62-122.31,6.2-25.95,32.65-42.67,69.81-44.73h.3c2.45-.1,5-.2,7.57-.2,53.68,0,96.74,27.82,109.82,70.89,7.37,24.58,3.15,49.26-11.9,69.61C1027.69,662.73,970.47,676.3,938.71,676.3ZM1091.6,554.68c-2.17-41.1-15.64-72.86-36-84.75-10.22-6-30.87-13.18-71.18-13.18-2.36,0-4.62,0-7,.1h-.79c-58.6,1.28-124,16.32-157.61,25.17-.68,10.81-1,25.27-1.17,42.18-.89,85.54,4.22,233.7,9.43,287.29,7.38,1.28,16.82,2.55,26.55,3.34,5,.39,10.13.69,15,.79,2.66-17,5.41-42.18,7.08-63.52l3.15-38.34.1-1.38L919,716.12c.1,0,5,.39,13,.88,6,.4,13.66.69,22.31.79h2.36c2.17.1,4.33.1,6.49.1,47.59,0,69.42-6.89,74.33-10.52,33-24.39,55.85-86.23,54.37-146.11C1091.79,559.1,1091.69,556.84,1091.6,554.68Z" style="fill:url(#b8545925-dfc2-4ee8-9a71-959741f9e5ab)"/><path d="M1076.45,554.68c-2.08-41.1-15.63-72.86-36-84.75-9.44-5.61-27.92-12.2-63-13.08h-.79c-58.6,1.28-124,16.32-157.61,25.17-4,65.48,2,265.26,8.26,329.47,7.38,1.28,16.82,2.55,26.55,3.34,2.65-16.91,5.31-41.69,7-62.73l3.24-39.72,15,1.38,24.68,2.36c.09,0,5,.39,13,.88s19,.89,31.17.89c2.16,0,4.23,0,6.29-.1h2.36c41.59-.79,60.76-7.43,65.68-10.42C1057.94,685.7,1081.28,649.79,1076.45,554.68Zm-20.94,70.69c-27.82,37.36-85,50.93-116.8,50.93-2.56,0-5-.1-7.28-.3-2.75.2-5.4.3-7.86.3a77.32,77.32,0,0,1-17.5-1.77c-12.39-2.75-23.31-10.72-30.68-22.42-20.15-32.15-15-103.92-10.62-122.31,6.59-27.72,36.38-44.93,77.68-44.93,2.45,0,4.91.1,7.27.2h.3c2.45-.1,5-.2,7.57-.2,53.68,0,96.74,27.82,109.82,70.89C1074.78,580.34,1070.56,605,1055.51,625.37Z" style="fill:url(#e88fd97c-e327-4689-8b73-e4ed953cc1f0)"/><path d="M929.76,636.18C913,632.45,913.15,560,918.16,539s95.17-26,111.59,28.21S952.67,641.39,929.76,636.18Z" style="fill:url(#aa006709-dde4-4086-92c0-4606f103d2b8)"/><path d="M929.76,636.18C913,632.45,913.15,560,918.16,539s95.17-26,111.59,28.21S952.67,641.39,929.76,636.18Z" style="fill:url(#b8b1b5e6-a6c9-4d9f-9a11-986d8a15a582)"/><path d="M686.07,477.48s167.52-119.57,366.45-51.4c0,0-106.58-19.39-270.51,36.5C782,462.58,728.91,460.72,686.07,477.48Z" style="fill:url(#bb5acbe3-104e-400a-8df5-d7ab69e8dbc4)"/><path d="M921.69,533.5c-6.28,31.64-6.49,77.18,7.49,67.86s44.7,14.91,75.44,6.53,34-58.35-12.34-77.61S921.69,533.5,921.69,533.5Z" style="fill:#b82774;opacity:0.5;mix-blend-mode:multiply"/><path d="M705.63,487.5c12.53-45.3,74.12,95.24,69.19,210.74s-42,140.55-55.58,128.49S695.38,524.53,705.63,487.5Z" style="fill:#b82774;opacity:0.5;mix-blend-mode:multiply"/><path d="M745.12,847.22c-19-6.87,37.17-4.7,61.51,0S864,855.07,864,855.07,793,856.94,745.12,847.22Z" style="fill:#b82774;opacity:0.5;mix-blend-mode:multiply"/><path d="M1131.12,561.66c1.28,68.13-23.89,143.05-70.3,177.37-36,26.64-145.61,16.22-145.61,16.22s99.4,1.47,132-18.49C1103.79,701.86,1121.58,633.43,1131.12,561.66Z" style="fill:#b82774;opacity:0.5;mix-blend-mode:multiply"/><path d="M923.22,630.09s24.19,15.82,81.4-11.54a103.51,103.51,0,0,1-22.39,11.37C961.14,637.64,931.2,643.52,923.22,630.09Z" style="fill:url(#f4a730a7-42ca-4da8-9852-326519cfb274)"/><path d="M1091.79,561.26c-2,5.31-4.32,8.16-6.78,7.08-13.67-5.8-6.2-97.43-100-102.94s-160.56,75.71-167.14,58.8c.19-16.91.49-31.37,1.17-42.18,33.63-8.85,99-23.89,157.61-25.17h.79c2.36-.1,4.62-.1,7-.1,40.31,0,61,7.18,71.18,13.18,20.35,11.89,33.82,43.65,36,84.75C1091.69,556.84,1091.79,559.1,1091.79,561.26Z" style="fill:#b82774;opacity:0.8;mix-blend-mode:multiply"/><path d="M878.21,656.17s25.47,25.25,82,18.44,95.32-49.24,95.32-49.24-27.64,60.18-95.32,66.83S878.21,656.17,878.21,656.17Z" style="fill:#b82774;opacity:0.8;mix-blend-mode:multiply"/><path d="M864.08,712.38s55.75,12.3,121.57,8S1058,685.7,1058,685.7,1005.81,734,864.08,712.38Z" style="fill:url(#bc89543f-2b24-49db-b155-06efe5fbd42e)"/><path d="M748,464s25.9,4.48,33.06,3.1,36.73-15.77,36.73-15.77S780.86,442.2,748,464Z" style="fill:#ffffdb"/><path d="M879.13,713.76c-7.39,0-.6,21.1,1.89,23.27s25.76-10.32,22.66-15.77S887.17,713.77,879.13,713.76Z" style="fill:#ffffdb;mix-blend-mode:soft-light"/><path d="M826.82,806.2s16.45,5,28.68,6,14.77-6,14.77-6,.09,7.57-1.37,9.42-37.58-2.47-40.42-3.44S826.82,806.2,826.82,806.2Z" style="fill:url(#bc010d52-d36a-4a96-8da8-e3cb08ded8c8)"/><path d="M677,444.07S450.06,821.32,408.87,829.28a4.24,4.24,0,0,1-4-.69A70.07,70.07,0,0,1,400,822.3c-23-29.69-56-59-50.74-76.59,2-6.68,31-45.42,68-92.81,36-46,79.64-100.19,113.27-140.89,28.51-34.22,49.84-58.9,54-61.26C598.52,442.69,654.66,433.35,677,444.07Z" style="fill:url(#aeea80ea-146f-4ab7-8a4f-38e9910f867e)"/><path d="M451.3,450.28s-48.39-2.6-70.75,11.37-72.67,89.14-68.95,119S429.92,686.13,429.92,686.13l65.2,12.11L388.94,566.9l66.63-116.15Z" style="fill:url(#bc4c8e5b-6cf1-43b8-8f11-73c87e835421)"/><path d="M758,601.77c-4.62,8.06-32.45,39.23-69.12,77.77,35.1,40.61,61.15,74.23,65.68,87.11C770,810.31,709.63,855.24,683,868.41c-10.42,5.22-56.53-28.9-109.82-73.74-13.57,12.69-26.65,24.58-38.74,35.2-.59.49-1.28,1-2,1.67-1,.89-2.06,1.77-3.14,2.66C498.14,861,474.25,878,466.87,874.71c-16.12-6.89-44.24-24.09-62-46.12A70.07,70.07,0,0,1,400,822.3c-1.28-1.87-2.46-3.83-3.54-5.8-7.28-12.49-10.52-26-6.39-39.82,3.83-13.17,28.31-48.27,61.45-90.94-12.49-11.8-24.19-22.91-34.22-32.84-20.94-20.55-35.49-35.79-38.83-41.1-43.95-68.33,46.3-154.16,72.85-161.54C459.6,448,491,474,530.59,512c11.5,10.91,23.59,22.91,36.08,35.49,52.7-59.29,99.5-105.89,110.31-103.43C703.82,450.06,798.51,531.08,758,601.77Z" style="fill:url(#bcfd345a-dadb-4d26-8c8b-9932aeae80e5)"/><path d="M718.57,567.85v.1a23.82,23.82,0,0,1-2.65,8.46c-4.72,6.29-25,29.69-62.63,69.11l-30.78,32.35,29.11,33.72c39,45.23,52.11,64.5,55.94,70.7-2.56,7.37-15,20.84-29.59,31.56-3.05-2-6.69-4.53-11.11-7.67-13.18-9.44-32.94-24.78-62-49.16L571.49,728.9,561.65,738l-22.12,20.75c-37.16,34.9-58.79,52.5-70.59,61.15a122.74,122.74,0,0,1-10.62-7.76C448,804,439.93,795.36,437.87,790c3.44-6.4,15.44-26.35,52.5-74.14l27.43-35.29L485.26,650c-39.62-37.36-61.06-59.68-66.07-65.68-2.85-4.91-5.11-11.7-1.77-24,4.33-15.53,15.14-30.87,26.05-42.77,3.15-3.54,6.4-6.78,9.44-9.63,15.14,12.48,40.71,35.59,78.76,74.13l26,26.25,10.92,11,34.8-39.13c28.81-32.25,50-54.47,64.89-68.82,3.84-3.74,7.28-7,10.23-9.64,13.66,11.51,31.36,30.58,37.95,50.44C718.67,558.71,719.06,563.82,718.57,567.85Z" style="fill:url(#f5c5b727-160e-4b90-adf6-7a607adf0468)"/><path d="M632.54,645.52l-30.77,32.35,29.1,33.72c39.13,45.23,52.11,64.5,55.94,70.7-1.86,5.7-9.73,14.94-19.95,23.89-13.18-9.44-32.94-24.78-62-49.16L571.49,728.9H550.74l-31.85,29.89c-28.42,26.64-47.79,43.26-60.57,53.39C448,804,439.93,795.36,437.87,790c3.44-6.4,15.44-26.35,52.5-74.14l27.43-35.29L485.26,650c-39.62-37.36-61.06-59.68-66.07-65.68-2.85-4.91-5.11-11.7-1.77-24,4.33-15.53,15.14-30.87,26.05-42.77,15.44,13.57,37.56,34.22,67.45,64.5l36.87,37.26h20.75l34.8-39.13c28.81-32.25,50-54.47,64.89-68.82,11.21,11.21,22.52,25.76,27.53,40.8,4,12.19,2.07,19.17-.59,24.29C690.45,582.7,670.2,606.1,632.54,645.52Z" style="fill:url(#bb08e99a-8868-4bdd-9a7c-fd9df5335e1e)"/><path d="M558,808.78s71.84,49.46,125,59.66c0,0-44.7-15.6-109.74-73.81Z" style="fill:url(#f834b6a0-cf92-4f36-951b-f7c32eb362c1)"/><path d="M380.55,461.65s19.26-9.17,59.23-5.75,109.67,74.38,109.67,74.38-68.3-72.82-93-83.07S380.55,461.65,380.55,461.65Z" style="fill:url(#a765de63-73ca-4eb3-b318-f887fda199b1)"/><path d="M581.43,450.75S544.18,493,546.66,507.91s31.71,18.52,61.19-5.33S677,444.06,677,444.06,640.43,429,581.43,450.75Z" style="fill:url(#f1b113e1-3b42-4a04-b516-d0cebd8dc1a0)"/><path d="M315.7,590.57c8-40.43,135.85,95.13,135.85,95.13S422.9,681.63,410.72,673,334.69,621.69,315.7,590.57Z" style="fill:#b82774;opacity:0.5;mix-blend-mode:multiply"/><path d="M558,808.78s16.83-12.61,22.61-7.67,56.85,47.84,56.81,52.12S558,808.78,558,808.78Z" style="fill:#b82774;opacity:0.5;mix-blend-mode:multiply"/><path d="M529.31,834.2C498.14,861,474.25,878,466.87,874.71c-16.12-6.89-44.24-24.09-62-46.12A70.07,70.07,0,0,1,400,822.3c-23-29.69-56-59-50.74-76.59,0,0,18.1,38.35,47.2,70.79a165.81,165.81,0,0,0,12.39,12.78c2.26,2.17,4.52,4.23,6.88,6.2C454.29,867.92,503,855.34,529.31,834.2Z" style="fill:#b82774;opacity:0.5;mix-blend-mode:multiply"/><path d="M319.35,564.1c1.16,19.67,33.54,18.76,40.51,10.06s3-32.77,39.6-81S350.4,436.8,319.35,564.1Z" style="fill:#ffffb1;opacity:0.30000000000000004;mix-blend-mode:soft-light"/><path d="M622.51,677.87s90.78-93.16,93.41-101.46C715.92,576.41,678.07,639.05,622.51,677.87Z" style="fill:url(#a5973177-e679-4f6e-9abe-867c72e051f8)"/><path d="M455,620.94s39.67,52.57,60,56.93Z" style="fill:url(#f43df2f2-8bcd-4366-999a-94fe3df2631c)"/><path d="M718.57,567.85v.1s-16.12,11.7-20.55,6.19-2.36-46.7-40.9-34.9S582.3,652.9,567.26,649.36,510.92,582,485,566.08s-55.46-30.87-65.78,18.19c-2.85-4.91-5.11-11.7-1.77-24,4.33-15.53,15.14-30.87,26.05-42.77,3.15-3.54,6.4-6.78,9.44-9.63,15.14,12.48,40.71,35.59,78.76,74.13l26,26.25,10.92,11,34.8-39.13c28.81-32.25,50-54.47,64.89-68.82,3.84-3.74,7.28-7,10.23-9.64,13.66,11.51,31.36,30.58,37.95,50.44C718.67,558.71,719.06,563.82,718.57,567.85Z" style="fill:#b82774;opacity:0.8;mix-blend-mode:multiply"/><path d="M668.56,441.28c-12.64,9.8,17.24,19.65,27.1,19.38S685.57,443.29,668.56,441.28Z" style="fill:#ffffdb"/><path d="M437.52,449.4c-18.21,3.82-17.26,14.9-9.34,17.92s40.05-1.41,39.58-6.65S452.92,446.17,437.52,449.4Z" style="fill:#ffffdb"/><path d="M569.3,732.87c-4.69,0-28.42,28.54,10.86,20.31C590.94,750.92,583.26,732.87,569.3,732.87Z" style="fill:#ffffdb;mix-blend-mode:soft-light"/><path d="M658.38,800S669.9,812.49,677,815.62s29.62-31.29,29.62-31.29-15.06,21-24.12,24.06S658.38,800,658.38,800Z" style="fill:url(#e7c21df1-3c4c-40ed-b0a8-25db5aa38fc2)"/><path d="M437.87,790s11.69,21.45,25.92,31,41.59-31,41.59-31-26,25.95-37,25.86S437.87,790,437.87,790Z" style="fill:url(#ad254aad-6da6-4e52-8c44-27c35c17fbad)"/><path d="M298.13,821s-2.65,0-6.93-.2c-.71,0-1.32-.1-1.93-.1-16.08-.61-48.66-2.55-52.42-8.76-2.24-3.56-4.89-17.3-7.23-31.55-2.54-16.8-4.68-34.31-5-37.36a1.68,1.68,0,0,1-.1-.41h-6.31c-17.3.1-64.43-.2-66.88-5.29-3.05-6.21-5.19-64.33,5.19-69,8.66-3.87,46.52-8.55,58.13-9.88a10.2,10.2,0,0,1,1.73-.2c1-.1,1.63-.2,1.63-.2v-.11c-.61-2.64-11.4-53.23-5.4-65.86,6.21-12.82,43.26-19,53.85-20.35l30.94,243.38Z" style="fill:url(#a3f1d970-1c26-448a-9521-c50a9e708f93)"/><path d="M425.57,698.19v.21c-3.36,19.85-11.71,39.19-24.74,42.24C396,741.86,374.06,743.29,346,744c-1.63,22.29-3.77,41.12-6.11,51.81a36.93,36.93,0,0,1-2,7.33c-6.71,15.17-26.36,18.52-43.66,17.71-.92,0-1.84,0-3-.1-.71,0-1.32-.1-1.93-.1A103.37,103.37,0,0,1,269.73,817a4,4,0,0,1-2-1.93c-5.5-7.74-10.38-36.65-14.25-71.15-10.28-.31-20.05-.72-28.91-1.33h-.61c-25.45-1.73-43.67-4.58-45.5-9.06-6.21-15.47-14.35-56.59,8.35-68.91,4.07-2.24,14.15-4.27,27.89-6.21a10.2,10.2,0,0,1,1.73-.2c.51-.1,1.12-.2,1.63-.31,8.24-1,17.71-2,28-3-1.73-29.82-2.34-53.44-1.32-58.53,2.44-13.23,10.79-20.76,21.78-24.73,25.75-9.37,65.76,1.83,75.22,6.92,5.29,2.75,7.43,33.39,7.53,71.25,41.43-.61,66.07-.3,70.95,3.06C427.2,657.78,428.93,678.24,425.57,698.19Z" style="fill:url(#a15cbe84-2736-43fd-a2e5-03f7d2a27065)"/><path d="M156.49,668.27s16.63,3.17,26.92-1.46S246,655,246,655,187.9,657.46,156.49,668.27Z" style="fill:url(#a23611ee-a290-4981-9015-dc335a2f7154)"/><path d="M211.49,595.87c10.74-15.65,89.71-33.74,130.21-17.32,0,0-17.86-13.11-68.06-10.48S210.62,588.35,211.49,595.87Z" style="fill:url(#e294233a-c26b-45ab-8113-0f433ed65329)"/><path d="M151.34,737.28s36.65,3.36,66.88,5.29C200.92,742.67,153.79,742.37,151.34,737.28Z" style="fill:#b82774;opacity:0.5;mix-blend-mode:multiply"/><path d="M253.44,743.9s-.92,49-9,53.13c-4,2-9.87-7-14.86-16.69-2.54-16.8-4.68-34.31-5-37.36C237.05,743.69,247.84,744.1,253.44,743.9Z" style="fill:#b82774;opacity:0.5;mix-blend-mode:multiply"/><path d="M339.86,795.81a36.93,36.93,0,0,1-2,7.33c-6.74,15.13-26.33,18.53-43.69,17.73l-2.93-.12c-.71,0-1.32-.1-1.93-.1-16.08-.61-48.66-2.55-52.42-8.76,0,0,13.64,2.24,30.84,3.16a207.6,207.6,0,0,0,29.72,0c9.06-.61,17.61-2,24.23-4.79C329.07,807.31,335.08,801.92,339.86,795.81Z" style="fill:#b82774;opacity:0.5;mix-blend-mode:multiply"/><path d="M349.22,649.84s14.24,2.46,39.31,5.82,30.86-.7,30.86-.7S415,647.9,349.22,649.84Z" style="fill:url(#ae9a0631-a5f5-4547-82bf-98882e5d20e5)"/><path d="M425.57,698.4c-3.36,19.85-11.71,39.19-24.74,42.24C396,741.86,374.06,743.29,346,744c0,0,49.06-3.06,59.24-9.26C414.88,728.83,424.75,700.64,425.57,698.4Z" style="fill:#b82774;opacity:0.5;mix-blend-mode:multiply"/><path d="M211.49,595.87c6.84-8.94,25.4-7.25,28.53-5.81s4.32,61.18,2.42,63.19-19.77,3.67-23.63,1.71S209.24,603,211.49,595.87Z" style="fill:#b82774;opacity:0.5;mix-blend-mode:multiply"/><path d="M177.9,672.89c-6.14,25.2,74.66,74.19,134,67s96.43-62.21,100.29-70.6-60.78-12.69-62.94-16.08-13.9-62.22-49.73-67.53-39.87,48-46.05,71.27S189.06,655,177.9,672.89Z" style="fill:#ff6355;opacity:0.2;mix-blend-mode:multiply"/><path d="M244.29,583c-10.17,8-1.51,18.59,2.31,20s14-20.79,9.46-22.87S247,580.83,244.29,583Z" style="fill:#ffffdb"/><path d="M183.41,666.81C175.83,664,169.29,678.6,173.07,685S203.47,674.12,183.41,666.81Z" style="fill:#ffffdb"/></g></g></g></svg>