<svg xmlns="http://www.w3.org/2000/svg" xmlns:xlink="http://www.w3.org/1999/xlink" viewBox="0 0 1280 1280"><defs><linearGradient id="b9e66fcf-a773-4eb8-8b78-1e4eff79a423" x1="598.06" y1="1125.37" x2="368.4" y2="580.76" gradientUnits="userSpaceOnUse"><stop offset="0" stop-color="#512eff"/><stop offset="1" stop-color="#6b2ed8"/></linearGradient><linearGradient id="e7fa8aae-acc8-4e9e-8a7c-2570781a92ff" x1="698.5" y1="905.64" x2="1003.55" y2="905.64" gradientUnits="userSpaceOnUse"><stop offset="0" stop-color="#3d069a"/><stop offset="1" stop-color="#6509ba"/></linearGradient><linearGradient id="f5344473-bacb-436f-9c9c-07266c805cf3" x1="673.66" y1="1093.42" x2="444.05" y2="548.9" xlink:href="#b9e66fcf-a773-4eb8-8b78-1e4eff79a423"/><linearGradient id="a198b507-fb2c-4950-918b-00354356f51d" x1="732.71" y1="689.77" x2="1039.4" y2="689.77" xlink:href="#e7fa8aae-acc8-4e9e-8a7c-2570781a92ff"/><linearGradient id="b3251c83-26a9-433a-823c-8078847752b0" x1="242.32" y1="558.8" x2="1039.13" y2="558.8" gradientUnits="userSpaceOnUse"><stop offset="0.04" stop-color="#9190ff"/><stop offset="1" stop-color="#6b59ff"/></linearGradient><linearGradient id="b462882d-445e-48cf-8377-1ee72537f175" x1="438.68" y1="532.8" x2="420.87" y2="278.04" gradientTransform="translate(109.48 -133.7) rotate(11.31)" gradientUnits="userSpaceOnUse"><stop offset="0" stop-color="#ffac15"/><stop offset="0.63" stop-color="#ff8100"/><stop offset="0.7" stop-color="#ffa400"/><stop offset="1" stop-color="#ffba00"/></linearGradient><linearGradient id="a4470b2c-a6c0-48e4-b795-9f1c49153cf8" x1="537.06" y1="1104.31" x2="537.06" y2="536" gradientUnits="userSpaceOnUse"><stop offset="0" stop-color="#de0086"/><stop offset="1" stop-color="#ff003b"/></linearGradient><linearGradient id="b5fdf5bd-0d9c-449a-9bbb-61ee4ddb5b61" x1="828.42" y1="1096.55" x2="828.42" y2="535.26" xlink:href="#a4470b2c-a6c0-48e4-b795-9f1c49153cf8"/><linearGradient id="b087053d-e4eb-4f24-8bec-fa9bbcb8695f" x1="691.89" y1="569.34" x2="659.41" y2="104.96" gradientTransform="translate(318.65 -306.13) rotate(28.33)" xlink:href="#b462882d-445e-48cf-8377-1ee72537f175"/><linearGradient id="a5940e5f-e943-4562-b193-e43d2a5a0ae9" x1="537.74" y1="540.67" x2="537.74" y2="487.59" xlink:href="#a4470b2c-a6c0-48e4-b795-9f1c49153cf8"/><linearGradient id="f0f5ddd5-3014-40a9-8415-ed9a626ff7a7" x1="516.8" y1="574.42" x2="516.8" y2="386.41" gradientUnits="userSpaceOnUse"><stop offset="0" stop-color="#de0057"/><stop offset="1" stop-color="#83003b"/></linearGradient><linearGradient id="fc4e026b-601e-446c-b419-dcf414c05f61" x1="791.48" y1="542.22" x2="791.48" y2="491.22" xlink:href="#a4470b2c-a6c0-48e4-b795-9f1c49153cf8"/><linearGradient id="e78946d3-195f-473a-955e-e36b7579c49b" x1="514.91" y1="587.47" x2="514.91" y2="338.56" xlink:href="#a4470b2c-a6c0-48e4-b795-9f1c49153cf8"/><linearGradient id="b18a544f-1676-4d91-b5f2-c648e0ba6c2e" x1="867.72" y1="532.71" x2="867.72" y2="282.27" xlink:href="#f0f5ddd5-3014-40a9-8415-ed9a626ff7a7"/><linearGradient id="a416e6c3-d6c6-4ff2-9ce3-5847e84ee681" x1="840.55" y1="551.64" x2="840.55" y2="271.13" xlink:href="#a4470b2c-a6c0-48e4-b795-9f1c49153cf8"/><linearGradient id="b7b22813-d441-4cff-a5e4-67a909d33ed1" x1="696.35" y1="567.82" x2="696.35" y2="507.78" gradientUnits="userSpaceOnUse"><stop offset="0" stop-color="#ff0086"/><stop offset="0.99" stop-color="#ff4a77"/></linearGradient></defs><g style="isolation:isolate"><g id="eb91f9af-f0e9-4d52-b978-4aa12b566916" data-name="Warstwa 2"><g id="a0847dff-8fc5-429e-806d-8c061e3cdf54" data-name="Warstwa 1"><rect width="1280" height="1280" style="fill:none"/><path d="M700.41,1112.07s-391.23-50.38-400.23-69.26c-1-2.25-1.74-10.3-2-22.42v-.09c-2.07-77,8.4-320.06,8.4-320.06L698.5,739.72l1.82,352.18Z" style="fill:url(#b9e66fcf-a773-4eb8-8b78-1e4eff79a423)"/><path d="M1003.41,1012.25c-.34,16.54-1.73,27.62-4.5,30.56-21.56,23-298.5,69.26-298.5,69.26l-.09-20.17L698.5,739.72,981.94,699.2S1005.58,927.32,1003.41,1012.25Z" style="fill:url(#e7fa8aae-acc8-4e9e-8a7c-2570781a92ff)"/><path d="M741,801.19c-1.3,10.64-2.75,17.6-4.58,18.67-9.87,6-446.17-35.88-457.56-42.84l-1-1.07c-3.59-4.89-8.18-23.71-12.93-48.11C253.58,669,241.57,577.16,242.72,566.91c.16-1.46,4.82-2.3,13.08-2.53,77.26-2.22,470.26,44.9,480.59,56.53.91,1,1.68,2.91,2.37,5.66.23.92.46,1.91.69,3.06C745.87,660.53,745.79,759.43,741,801.19Z" style="fill:url(#f5344473-bacb-436f-9c9c-07266c805cf3)"/><path d="M1008.18,748v.09c-2.6,10.73-4.68,17.66-6,18.7-7.44,5.71-260.84,57.39-265.78,53.06-.87-.77-1.64-7.44-2.25-17.92-2.42-40.25-2.42-137.13,4.59-175.4,1.56-8.57,3.46-14.11,5.71-15.58,12.56-8,291.41-57.91,294.7-50.9C1041.85,565.88,1020.12,698,1008.18,748Z" style="fill:url(#a198b507-fb2c-4950-918b-00354356f51d)"/><path d="M1039.13,560.1c0,9.41-242.32,63.79-299.68,69.53-2.68.23-4.9.38-6.74.46-38.39,1-422.22-41.77-482.26-59.74-4.36-1.22-7-2.45-7.73-3.44-5.81-8.49,51.33-23.26,126.29-37.71,1.6-.38,2.83-.61,3.75-.77,100.43-19.27,231-38,284.92-40.69C752.83,483,1038.75,550.31,1039.13,560.1Z" style="fill:url(#b3251c83-26a9-433a-823c-8078847752b0)"/><path d="M1008.18,748.12c-2.6,10.73-4.68,17.66-6,18.7-7.44,5.71-260.84,57.39-265.78,53.06-9.87,6-446.2-35.92-457.63-42.85-3.63-2.16-8.66-22.25-13.85-49.17,38.44,53.5,129.6,59.21,264.83,74.1s195.57.7,204.4,0c.78-.08,3.12-.34,6.84-.77,37.49-4.59,211.41-27.36,236.17-32.9C1003.07,762.49,1007.74,749.41,1008.18,748.12Z" style="fill:#900055;opacity:0.30000000000000004;mix-blend-mode:multiply"/><path d="M264.94,606c17.66-21.87,423.84,27.45,446.34,52.49s18.83,113.13,0,136.7S333.1,767,297.88,741.31,264.94,606,264.94,606Z" style="fill:#da0553;opacity:0.2;mix-blend-mode:multiply"/><path d="M762.68,630.12c-24,4.58-19.69,138.86-8.75,158.55s202.8-14.13,233.72-31.12,47.27-169.62,40.76-179.66S860,611.55,762.68,630.12Z" style="fill:#da0553;opacity:0.2;mix-blend-mode:multiply"/><path d="M1029.83,555.17c9.34,4.91-188.52,62.36-303,67.82S248,569.58,248,569.58,315.41,588,510.61,611.51s221.2,32.11,231.83,31.17S799.31,619.19,901,600.59s138.15-32,138.16-36.27S1029.83,555.17,1029.83,555.17Z" style="fill:#8981ff"/><path d="M656.43,503.24c-25.79-65.67-47.37-196-97.69-259.64s-185.3,116.5-250.4,105S225,290.17,257.42,250.92s69.73,19.87,62.22,34.58l25.43,3.82s-27-53.55-59.61-59.42S233.2,272,232,308.59s78.63,64.27,98.59,68.26S457.24,231,529.23,252.19,589.13,469.34,656.43,503.24Z" style="fill:url(#b462882d-445e-48cf-8377-1ee72537f175)"/><path d="M1003.41,1012.25c-.34,16.54-1.73,27.62-4.5,30.56-21.56,23-298.5,69.26-298.5,69.26s-391.23-50.38-400.23-69.26c-1-2.25-1.74-10.3-2-22.42,1.82,18.44,217,54,293.17,62.61s107.15,9,107.15,9,.61,0,1.82-.09c14.46-1,112.37-8,200.94-22.42C997.27,1053.89,1003.41,1012.25,1003.41,1012.25Z" style="fill:#900055;opacity:0.30000000000000004;mix-blend-mode:multiply"/><path d="M303.37,781.38c-3.88-.53,82,225.75,209.15,261.42S694.6,837.33,694.6,825,303.37,781.38,303.37,781.38Z" style="fill:#da0553;opacity:0.2;mix-blend-mode:multiply"/><path d="M710.53,819.85c-15.93,5.18,21,231.95,33.91,249.66s212.89-14,241.32-43.54,17-233.16-9.84-239.49S710.53,819.85,710.53,819.85Z" style="fill:#da0553;opacity:0.2;mix-blend-mode:multiply"/><path d="M711.13,638.67c11.74,1.87,17.63,181.81,25.29,181.21S744.59,673,756.36,638.67C756.36,638.67,732.31,645.06,711.13,638.67Z" style="fill:#665cff"/><path d="M700.41,819.89c-6.71-1-4.84,253.65-1.91,268.41S708.67,891.57,700.41,819.89Z" style="fill:#5d52ff"/><path d="M302.34,809.9c27.28-33.26,328.87,21.63,414.41,37.68,84.2,15.81,275.09-43.11,275.09-43.11l-3-33.56S786.4,814.43,732.71,820.14s-429.34-38.76-429.34-38.76Z" style="fill:#6e3b66;opacity:0.5;mix-blend-mode:multiply"/><path d="M321.51,1051.62s25.36-10,160.67,10.54S681,1109.53,681,1109.53,424.12,1076.86,321.51,1051.62Z" style="fill:#900055;opacity:0.30000000000000004;mix-blend-mode:multiply"/><path d="M706.61,1109.53s122.88-36.49,170.76-47.37,110.77-13,110.77-13-37.67,12.45-120.36,31.54S706.61,1109.53,706.61,1109.53Z" style="fill:#900055;opacity:0.30000000000000004;mix-blend-mode:multiply"/><path d="M716.19,623.31c-23,9,12.33,23.37,26.25,19.37s41-13.12,43.2-17.5S716.19,623.31,716.19,623.31Z" style="fill:#fff;mix-blend-mode:soft-light"/><path d="M569.5,1094.35s-7,13.92-26.63,8.86S431.33,1085.79,416,1081.58,382,610,383.71,590s263.05-52.83,274-53.92,30.62,13.25,32.81,18.1-147.63,44.23-158.57,55.16-.68,479.36,5.13,479.72S569.5,1094.35,569.5,1094.35Z" style="fill:url(#a4470b2c-a6c0-48e4-b795-9f1c49153cf8)"/><path d="M662.65,536.44c-11.46,1,10.35,11.77,27.85,17.72s188.84,27.08,203.78,47.68-26.5,478.87-26.5,478.87l-26,5.73s11.64,9,20.94,10.07,88.57-20.23,93.5-24.61,43.74-482.26,41-493.74S760,528.08,662.65,536.44Z" style="fill:url(#b5fdf5bd-0d9c-449a-9bbb-61ee4ddb5b61)"/><path d="M660.89,510.26s-2.22-193,50.69-275.5,91.51-15.65,124.88-7,64-67.34,24.82-109-35.2,1.7-35.2,1.7L802.37,107.7s20.33-32,60.54.83,23.31,102.3-4.27,131.21-55.61-40-102.87-3.89-93.5,271.24-85.92,288.75S660.89,510.26,660.89,510.26Z" style="fill:url(#b087053d-e4eb-4f24-8bec-fa9bbcb8695f)"/><path d="M413,587.49C399,593.65,503,608.29,543.21,599s86.55-20.69,163.4-22.55S891.11,599,891.11,599s-57-26.26-105.42-34.64,54.82-17.81,54.82-17.81l-41.68-5.85-197.77,11.5S427.11,565.74,413,587.49Z" style="fill:#811166;opacity:0.5;mix-blend-mode:multiply"/><path d="M647.09,537.33c-8.63,1.1-219.09-19-227.57-17.49s-58.59,10.87-58.59,10.87,4.78-17.22,8.06-21.25,101.63-18.63,135-21.72,210.55,42.2,210.55,49.63S647.09,537.33,647.09,537.33Z" style="fill:url(#a5940e5f-e943-4562-b193-e43d2a5a0ae9)"/><path d="M378.36,411.37c-16.59,7.12,14.92,149.36,96.5,160.92s181.42-27.4,184.61-31.63S548.75,406.15,530.65,390.35,378.36,411.37,378.36,411.37Z" style="fill:url(#f0f5ddd5-3014-40a9-8415-ed9a626ff7a7)"/><path d="M903.27,522.61s5.54-16.08,0-18.81-95.21-12.58-112.16-12.58S675,537.78,677.27,539.92s25.81,3.87,60.25,0S880.2,517.71,880.2,517.71Z" style="fill:url(#fc4e026b-601e-446c-b419-dcf414c05f61)"/><path d="M673.82,547.32s-.08,0-.08-.07a12.37,12.37,0,0,0-1.3-.92,29.88,29.88,0,0,0,4.82-6.42c-3.9-14.15-55.07-113.06-87.43-162.09a1.55,1.55,0,0,0-.3-.38c-8.72-13.23-16.07-22.79-20.66-25.93-62.57-42.6-178.6,31.13-208,60a26.36,26.36,0,0,0-7,12.77c-.15.62-.3,1.31-.46,1.92-3.36,16.67,3.45,40.46,17.44,64.86a231,231,0,0,0,48.88,59,191.5,191.5,0,0,0,37,25.47C518.39,607.6,629,566.6,663.64,552.3c6.74-2.76,10.64-4.52,10.64-4.52s-.08,0-.08-.07Zm-205.15,17c-8-2.15-16.14-6.89-24.09-13.39a141.31,141.31,0,0,1-18.28-18.2c-29.83-35.27-51.56-88.27-42.68-104.49,12.16-22.1,210.72,90,251.8,116a3.41,3.41,0,0,0,.61.45C593.2,553.83,504.85,574,468.67,564.31Z" style="fill:url(#e78946d3-195f-473a-955e-e36b7579c49b)"/><path d="M777.93,308c61.82-16.93,39.2,152,24.13,179.5s-57.62,45.2-57.62,45.2S933.24,521,967.92,456.18s23.37-135.7,10.55-164.35S777.93,308,777.93,308Z" style="fill:url(#b18a544f-1676-4d91-b5f2-c648e0ba6c2e)"/><path d="M983.52,277l-.07-.07a7.9,7.9,0,0,0-2-1c-24.71-9.71-156.35-6.73-211.11,27.69a66,66,0,0,0-14,11.32c-41.15,44.9-89.19,219.22-65.78,223.2a91.75,91.75,0,0,0,20.19,1.45c-12.77,6.27-17.13,7,6.81,11.63,4.82.84,14.68.38,27.92-1.23,7-.84,14.84-2,23.33-3.52l.46-.07c4.66-.84,9.56-1.69,14.61-2.68,2.14-.46,4.36-.84,6.57-1.3,7.35-1.53,15-3.21,22.87-5,5.2-1.23,10.48-2.53,15.84-3.83,4.13-1.07,8.26-2.14,12.47-3.21,13.53-3.59,27.15-7.65,40.15-11.93,5.82-1.91,11.48-3.9,17.06-5.89a6.57,6.57,0,0,1,1.15-.46c2.14-.84,4.28-1.61,6.42-2.45.46-.15,1-.38,1.53-.61,2.14-.84,4.28-1.68,6.35-2.52.23-.08.46-.16.61-.23,3.9-1.61,7.73-3.29,11.32-4.9,5.2-2.45,10.1-4.82,14.69-7.34,1.53-.84,3.06-1.68,4.43-2.52,1.84-1,3.52-2.07,5.21-3.14,3.21-2.07,6.19-4.13,8.87-6.2l.23-.23c1.38-1.07,2.68-2.14,3.9-3.29.08,0,.15-.07.23-.15,1.15-1.07,2.14-2.06,3.14-3.14a38.48,38.48,0,0,0,3.67-4.35c.53-.77,1.07-1.53,1.53-2.3a25.23,25.23,0,0,0,1.76-3.36c6.12-14.16,11.62-35,15.68-57.91v-.07a3,3,0,0,0,.07-.46c.38-1.91.69-3.83,1-5.74a4.93,4.93,0,0,0,.15-1.07c.54-3,1-6,1.45-9,0-.23.08-.53.08-.76.23-1.38.38-2.68.53-3.9.39-3,.77-6,1.15-9.1v-.08c.23-2.22.46-4.36.69-6.5,0-.61.08-1.07.08-1.53s.15-1.23.23-1.84c.3-3,.53-6,.69-8.87s.38-5.74.53-8.57v-.23c.15-1.91.23-3.82.23-5.73.15-3.75.23-7.5.23-11.09C996.68,305.31,992.85,283.28,983.52,277Zm-34.65,188.4C915,498.91,816.24,516,758.8,526.44c18.89-9.48,40.38-25.47,63.33-51.93,64.1-73.81,122.69-180.44,144.8-171S995.07,419.74,948.87,465.41Z" style="fill:url(#a416e6c3-d6c6-4ff2-9ce3-5847e84ee681)"/><path d="M862.74,1096.51s18.71-9.7,31.8-166.31S904,603.26,909.83,599s87.41-20.8,87.41-20.8-35.36,459.29-45.91,482.66S862.74,1096.51,862.74,1096.51Z" style="fill:#811166;opacity:0.5;mix-blend-mode:multiply"/><path d="M547.05,1104s-17.16,1.41-21.68-24.66-17.14-445.67-10.46-464.3,142.53-48.32,142.53-48.32-114,35.71-123,50-7.92,185.84-6.79,188.48,14.71,2.15,14.71,2.15,5.79,280.45,7.79,283.52,19.37,3.43,19.37,3.43S559.86,1106.67,547.05,1104Z" style="fill:#811166;opacity:0.5;mix-blend-mode:multiply"/><path d="M398.71,606.21c-8.29,1.51-4.1,175.95,13,237.25S496.37,963.55,508,965.08s1.51-319.66,0-332.1S398.71,606.21,398.71,606.21Z" style="fill:#912774;opacity:0.30000000000000004;mix-blend-mode:multiply"/><path d="M894.28,601.84c6.54,8.9-2.87,169.39-17,192.8,0,0-14.13,273.77-22.8,288.83l13.32-2.76S907.34,672.11,894.28,601.84Z" style="fill:#811166;opacity:0.5;mix-blend-mode:multiply"/><path d="M385.9,594.15c2-13.07,53.51,5.05,88.33,6.44s38.84.93,39.34,6.54-6.41,14.78-48.7,10.2S383.26,603.18,385.9,594.15Z" style="fill:#ff4f90"/><path d="M896.92,593.15c-3.35,1.25,21.27,6.43,49.89-2s44.1-9.92,45-13S913.48,587,896.92,593.15Z" style="fill:#ff4f90"/><path d="M673.74,547.25c-.61-.31-1.22-.77-2-1.15-2.29-1.3-5-2.9-8.33-4.66C607.2,509.92,414.52,410,363.88,419.05c-4.59.77-7.95,2.45-10,5.2-.3.46-.61.92-.92,1.46-3.44,17.21,3.91,42.07,18.9,67.31l.23.46A238.29,238.29,0,0,0,419.72,550a192.08,192.08,0,0,0,36.56,25c61.65,32.13,172.25-8.87,206.9-23.17,6.74-2.76,10.64-4.52,10.64-4.52S673.74,547.32,673.74,547.25ZM426.3,532.72c-30.14-35.27-52.09-88.66-43.14-105C395.4,405.59,595.87,519,635.57,544.27h-.15c-42.91,9.17-131.1,29.29-167.21,19.58-7.87-2.14-15.83-6.66-23.63-12.93A141.31,141.31,0,0,1,426.3,532.72Z" style="fill:#811166;opacity:0.5;mix-blend-mode:multiply"/><path d="M983.52,277l-.07-.07c-11.94-2.76-23.18-.46-34,5.66-48.65,27.3-88.88,129.88-140,182.81-33.12,34.26-51.1,53-60.81,63q-2.41,2.54-4.13,4.36c-5.66,5.89-6.89,7.12-6.89,7.12l8,10.09c7-.84,14.84-2,23.33-3.52l.46-.07c4.66-.84,9.56-1.69,14.61-2.68,2.14-.46,4.36-.84,6.57-1.3,7.35-1.53,15-3.21,22.87-5,5.2-1.23,10.48-2.53,15.84-3.83,4.13-1.07,8.26-2.14,12.47-3.21,13.53-3.59,27.15-7.65,40.15-11.93,5.82-1.91,11.48-3.9,17.06-5.89a6.57,6.57,0,0,1,1.15-.46c2.14-.84,4.28-1.61,6.42-2.45.46-.15,1-.38,1.53-.61,2.14-.84,4.28-1.68,6.35-2.52.23-.08.46-.16.61-.23,3.9-1.61,7.73-3.29,11.32-4.9,5.2-2.45,10.1-4.82,14.69-7.34,1.53-.84,3.06-1.68,4.43-2.52,1.84-1,3.52-2.07,5.21-3.14,3.21-2.07,6.19-4.13,8.87-6.2l.23-.23c1.38-1.07,2.68-2.14,3.9-3.29.08,0,.15-.07.23-.15,1.15-1.07,2.14-2.06,3.14-3.14a38.48,38.48,0,0,0,3.67-4.35c.53-.77,1.07-1.53,1.53-2.3a25.23,25.23,0,0,0,1.76-3.36c6.12-14.16,11.62-35,15.68-57.91v-.07a3,3,0,0,0,.07-.46c.38-1.91.69-3.83,1-5.74a4.93,4.93,0,0,0,.15-1.07c.54-3,1-6,1.45-9,0-.23.08-.53.08-.76.23-1.38.38-2.68.53-3.9.39-3,.77-6,1.15-9.1v-.08c.23-2.22.46-4.36.69-6.5,0-.61.08-1.07.08-1.53s.15-1.23.23-1.84c.3-3,.53-6,.69-8.87s.38-5.74.53-8.57v-.23c.15-1.91.23-3.82.23-5.73.15-3.75.23-7.5.23-11.09C996.68,305.31,992.85,283.28,983.52,277Zm-34.65,188.4C915,498.91,816.24,516,758.8,526.44c18.89-9.48,40.38-25.47,63.33-51.93,64.1-73.81,122.69-180.44,144.8-171S995.07,419.74,948.87,465.41Z" style="fill:#811166;opacity:0.5;mix-blend-mode:multiply"/><path d="M698.5,510.46S697.19,423.77,737.56,377s-10.9,92.47-13.41,110.57,75.91-123.13,116.36-142.23-31,108.27-54.82,135.06-64.63,41.21-64.63,41.21Z" style="fill:#912774;opacity:0.30000000000000004;mix-blend-mode:multiply"/><path d="M669.85,524.6s-71.85-94-98-105.72-46.33,15.55-8,52.86S669.85,524.6,669.85,524.6Z" style="fill:#912774;opacity:0.30000000000000004;mix-blend-mode:multiply"/><path d="M640.72,555.17c-12.22,20.51,95.21,12,103.72,2.89L753,549s-30.59-32.48-54.45-38.5-36.45,0-36.45,0,15.83,20.28,8.93,37.28S640.72,555.17,640.72,555.17Z" style="fill:url(#b7b22813-d441-4cff-a5e4-67a909d33ed1)"/><path d="M833.39,461.14c-11.23,24.95,136.53-14.42,143.07-65s4-90-16.08-87.45-74,85.22-93.28,110.21S833.39,461.14,833.39,461.14Z" style="fill:#9d1166;opacity:0.5;mix-blend-mode:multiply"/><path d="M386,426.23c-11.79,2.69,1.79,71.42,39.49,93.28s153.79,11.31,161.33,0S413.22,420,386,426.23Z" style="fill:#9d1166;opacity:0.5;mix-blend-mode:multiply"/><path d="M640.72,560.84c8.8,8.42,41-3.88,71.62-14.18S753,549,753,549s-5.5,12.31-15.39,14.68-58.87,7.48-73.72,6.64S640.72,560.84,640.72,560.84Z" style="fill:#811166;opacity:0.5;mix-blend-mode:multiply"/><path d="M765.87,314.93c-30.69,32.62,57.16,5.65,96.5,11.33s75.84-42,83.93-48.25S799,277.45,765.87,314.93Z" style="fill:#fff;mix-blend-mode:soft-light"/><path d="M396,399.14c-4.14,9.76,53.28,11.06,136.71,4s41.71-45.74,13.57-53.78S408.31,370,396,399.14Z" style="fill:#fff;mix-blend-mode:soft-light"/><path d="M298.42,1027.7l4.82-242.05S293.12,915.41,298.42,1027.7Z" style="fill:#8981ff"/><path d="M263.57,573.63c-6.84-10.64,66.1-36.49,66.1-36.49s-87.28,20.58-87,29.73S263.57,573.63,263.57,573.63Z" style="fill:#8981ff"/><path d="M444.7,425.38c-8.79-.1,107.27,59.94,140.52,76.15s52.86,28,52.86,28S476.37,425.76,444.7,425.38Z" style="fill:#ff4f90"/><path d="M791.48,483.92s93.93-133.39,120.26-165.58C911.74,318.34,848.76,431.74,791.48,483.92Z" style="fill:#ff4f90"/><path d="M713.19,516.72s38.69-70,54-87.68,12.64,31,2.84,54.88-50.58,36.54-52.72,35.24S713.19,516.72,713.19,516.72Z" style="fill:#9d1166;opacity:0.5;mix-blend-mode:multiply"/><path d="M669.85,522.5S635.75,480.94,619.3,463s-15.9,10.52-8.74,29.74S669.85,522.5,669.85,522.5Z" style="fill:#9d1166;opacity:0.5;mix-blend-mode:multiply"/><path d="M700.71,511.1c-3.43-9.53,1.33-55.17,8.87-67.73s10.8,41,8.79,51.27S700.71,511.1,700.71,511.1Z" style="fill:#9d1166;opacity:0.30000000000000004;mix-blend-mode:multiply"/><path d="M918.66,289.07c17.59-8.55,5.84,24.49-12.43,29.27s-35.82-13.69-71-12.18S811.05,318.23,778,324.25s-29.67,4-21.66-9.33,22.16-.28,42.13-4.8,13.41-8.3,54.2-5.28S918.66,289.07,918.66,289.07Z" style="fill:#ff5ca2"/><path d="M395.74,406.83c.34,6.06,14.41,9.36,45.69,4.55s42.68-15.21,67.37-29.33c31.3-17.89,54.79-7.69,59.69-21.26s-5-5.63-10.7-1.86-4.15,1.94-52.4,18.88S394.89,391.8,395.74,406.83Z" style="fill:#ff5ca2"/><path d="M728.38,212.85c14.53-12.12,30.33,10.57,31.83,14.75s-18.47,18.65-38.6,56-33.79,9.77-33.79,9.77S712.49,225.77,728.38,212.85Z" style="fill:#d42f55;opacity:0.5;mix-blend-mode:multiply"/><path d="M550.77,241.63c-9.83,3.81,18.55,50,24,65.18s21.15,22.57,21.15,22.57S577.64,257.73,550.77,241.63Z" style="fill:#d42f55;opacity:0.5;mix-blend-mode:multiply"/><path d="M752.78,196.05c-9.08,6.67,11.21,26.23,13.48,26.78S793,221.61,793,221.61s-11-16-17.18-21.69S752.78,196.05,752.78,196.05Z" style="fill:#fff455"/><path d="M805,105.16c2.59-3.26,20.67-12.46,27.26-11.24s6.28,3.4,6.28,3.4S826,109.23,826.05,114.86,805,105.16,805,105.16Z" style="fill:#fff455"/><path d="M540.9,232.86c-5.25-2.6-14.94,11.23-11.41,14.72s22.88,11.76,22.88,11.76,6.41-13.51,3.75-18.74S540.9,232.86,540.9,232.86Z" style="fill:#fff455"/><path d="M316.61,253.5c-4.14-1,5.91,24.26,7.66,27.09s15.27,3.05,15.27,3.05S327.81,257.13,316.61,253.5Z" style="fill:#fff455"/><path d="M233.75,318.67c2.76-6.81,35.05,18.82,41.41,25.45s-7.41,7.75-10.72,5.65S235.28,332.56,233.75,318.67Z" style="fill:#fff455"/><path d="M270.89,353.55c-1.31-2.83,9-4.45,11.73-4.76s42.73,11.24,48.17,15.73,3,10-1,9.85S299.93,369.81,270.89,353.55Z" style="fill:#d42f55;opacity:0.5;mix-blend-mode:multiply"/><path d="M514.07,762.28c-17.85-10.44-21.12,22.23-12.82,44.1S519,814.2,519,794.64,517.81,764.47,514.07,762.28Z" style="fill:#920066"/><path d="M910.12,965.08c15.72-23.32,41.25-3,19.87,20.6S895.54,986.7,910.12,965.08Z" style="fill:#920066"/><path d="M910.12,965.08c-9.29,10.48,4.06,27.14,19.87,13.57S929.72,943,910.12,965.08Z" style="fill:#9a1166;opacity:0.5;mix-blend-mode:multiply"/><path d="M495.86,780.37c2.15,13.87,12.93,25.63,17.71,24.14s10.24-38.44.46-44.23S493.55,765.48,495.86,780.37Z" style="fill:#9a1166;opacity:0.5;mix-blend-mode:multiply"/><path d="M498.11,795s4.14,18.33,11.55,19.84,8.93-13.58,8.93-13.58-1.14,20.11-7.92,20.86S498.11,795,498.11,795Z" style="fill:#ff4f90"/><path d="M904,981.89c1.35,17.11,26,3.79,26,3.79S922.43,998,911.88,998.5,904,981.89,904,981.89Z" style="fill:#ff4f90"/><path d="M421.16,1082.75c-8.32-8.28,7-40.24,46.91-36.36s61.6,54.11,61.6,54.11Z" style="fill:#912774;opacity:0.30000000000000004;mix-blend-mode:multiply"/><path d="M914.64,608.73c-5.91,10.7-9.55,61.82,10.55,88.46s64.78-77,63.33-98.23S914.64,608.73,914.64,608.73Z" style="fill:#811166;opacity:0.30000000000000004;mix-blend-mode:multiply"/><path d="M684.39,638.67c-41.16-13.86,6.18,68.6,26.74,99.24s8-83.52,4-91.38S684.39,638.67,684.39,638.67Z" style="fill:#da0553;opacity:0.2;mix-blend-mode:multiply"/><path d="M992.32,390.37c-4.13,29.3-10.79,57.44-18.43,75-15.61,36.17-133.25,68.68-204.61,81,8.87-2.14,152-36.18,186.17-67.31C978.63,458,988.34,416.45,992.32,390.37Z" style="fill:#9d1166;opacity:0.5;mix-blend-mode:multiply"/><path d="M995,367.42c-.08.61-.16,1.23-.23,1.84a19.43,19.43,0,0,0,.15-2Z" style="fill:#9d1166;opacity:0.5;mix-blend-mode:multiply"/><path d="M278.83,777l-1-1.07c-3.59-4.89-8.18-23.71-12.93-48.11C253.58,669,241.57,577.16,242.72,566.91c-5.81-8.49,51.33-23.26,126.29-37.71-20,4.28-92.48,20.57-113.21,35.18-2.9,2.07-4.74,4.06-5.35,6C245,588.48,270,766.32,278.83,777Z" style="fill:#6e3b66;opacity:0.5;mix-blend-mode:multiply"/><path d="M996.68,332.93c0,3.59-.08,7.34-.23,11.09,0,1.91-.08,3.82-.23,5.73V350c-.15,2.83-.31,5.66-.53,8.57s-.39,5.89-.69,8.87c-.08.61-.16,1.23-.23,1.84s-.08.92-.08,1.53c-.23,2.14-.46,4.28-.69,6.5v.08c-.38,3.06-.76,6.12-1.15,9.1-.15,1.22-.3,2.52-.53,3.9,0,.23-.08.53-.08.76-.46,3.06-.91,6.05-1.45,9a4.93,4.93,0,0,1-.15,1.07c-.31,1.91-.62,3.83-1,5.74,1-8,11.47-101.81-40.23-124.37a55,55,0,0,0-14-4.06c-70.29-11.17-165.06,25.09-165.06,25.09,54.76-34.42,186.4-37.4,211.11-27.69a7.9,7.9,0,0,1,2,1l.07.07C992.85,283.28,996.68,305.31,996.68,332.93Z" style="fill:#9d1166;opacity:0.5;mix-blend-mode:multiply"/><path d="M589.53,377.44c-3.06-3.9-29-35.72-62.57-34-35.8,1.76-141.58,40.31-160.86,71.6a43.08,43.08,0,0,0-2.22,4.05c-12.92,26.7,2.37,62.42,7,72,.46.92.77,1.61,1,2-15-25.24-22.34-50.1-18.9-67.31.31-.54.62-1,.92-1.46a26.36,26.36,0,0,1,7-12.77c29.37-28.84,145.4-102.57,208-60C573.46,354.65,580.81,364.21,589.53,377.44Z" style="fill:#9d1166;opacity:0.5;mix-blend-mode:multiply"/></g></g></g></svg>