{"asset":{"version":"2.0","generator":"VECTARY"},"nodes":[{"translation":[0,0.1620376205866336,-1.4210854715202004e-17],"scale":[0.001,0.001,0.001],"rotation":[0,0,0,1],"name":"Razor","mesh":0},{"translation":[0.6075652083808601,0.4341537652250827,0.7377958676238264],"scale":[1,1,0.9999999999999998],"rotation":[-0.15899751816894542,0.3371040944256552,0.05787336643201263,0.9261378364991902],"name":"Camera","camera":0}],"materials":[{"pbrMetallicRoughness":{"baseColorFactor":[0.9828262550537913,0.6387794556508168,0.005028203456855536,1],"metallicFactor":1,"roughnessFactor":0.5},"name":"Gold Satin","emissiveFactor":[0,0,0],"extensions":{},"alphaMode":"OPAQUE","doubleSided":false}],"meshes":[{"primitives":[{"mode":4,"attributes":{"POSITION":1,"NORMAL":2,"TEXCOORD_0":3},"material":0,"indices":0}]}],"accessors":[{"bufferView":0,"byteOffset":0,"componentType":5125,"count":14649,"type":"SCALAR"},{"bufferView":1,"byteOffset":0,"componentType":5126,"count":7326,"max":[280.4735412597656,161.72000122070312,30.200010299682617],"min":[-280.47357177734375,-161.65054321289062,0.1999935507774353],"type":"VEC3"},{"bufferView":2,"byteOffset":0,"componentType":5126,"count":7326,"type":"VEC3"},{"bufferView":3,"byteOffset":0,"componentType":5126,"count":7326,"type":"VEC2"}],"bufferViews":[{"buffer":0,"byteOffset":0,"byteLength":58596,"target":34963},{"buffer":0,"byteOffset":58596,"byteLength":87912,"target":34962},{"buffer":0,"byteOffset":146508,"byteLength":87912,"target":34962},{"buffer":0,"byteOffset":234420,"byteLength":58608,"target":34962}],"cameras":[{"name":"Camera","type":"perspective","extras":{"targetDistance":1.0404144623568092},"perspective":{"aspectRatio":1.4621468926553671,"yfov":0.6108652381980153,"zfar":59.5016997395327,"znear":0.013118555242594686}}],"scene":0,"scenes":[{"nodes":[0,1],"name":"3D"}],"extensionsUsed":["KHR_texture_transform"],"buffers":[{"byteLength":293028,"uri":"3D.bin"}]}