<svg xmlns="http://www.w3.org/2000/svg" enable-background="new 0 0 50 50" viewBox="0 0 50 50"><path fill="#D1A62D" d="M36.3 37.1l0 5c0 .1 0 .1 0 .1 0 0 0 0 0 0 0 0 0 .1-.1.1l2.3-1.3c0 0 0 0 .1-.1 0 0 0 0 0 0l0 0 0 0c0 0 0 0 0 0 0 0 0 0 0 0 0 0 0 0 0 0 0 0 0 0 0 0 0 0 0 0 0 0 0 0 0 0 0 0s0 0 0 0c0 0 0 0 0 0v0l0-5L36.3 37.1zM42 38.2l0 7.3c0 .1 0 .1 0 .1 0 0 0 0 0 0 0 0 0 .1-.1.1l0 0h0 0l2.3-1.3c0 0 0 0 .1-.1 0 0 0 0 0 0l0 0c0 0 0 0 0 0 0 0 0 0 0 0 0 0 0 0 0 0 0 0 0 0 0 0 0 0 0 0 0 0 0 0 0 0 0 0s0 0 0 0c0 0 0 0 0 0 0 0 0 0 0 0v0l0-7.3L42 38.2z"/><path fill="#EBC143" d="M42,38.2l0,7.3c0,0.2-0.2,0.3-0.3,0.2l-1.8-1.1c-0.2-0.1-0.3-0.4-0.3-0.6l0-4.7l-3.2-1.9l0,4.7
					c0,0.2-0.2,0.3-0.3,0.2l-1.8-1.1c-0.2-0.1-0.3-0.4-0.3-0.6l0-7.3L42,38.2z"/><path fill="#F6D341" d="M15.3,23.4l-4.7,2.7c-0.8,0.5-1.8,0.5-2.8-0.2c-2.7-1.6-4.9-6.4-4.9-10.8c0-2.7,0.8-4.6,2.1-5.3l4.7-2.7
					c-3.9,2.3-1.9,13.3,2.8,16.1C13.5,23.9,14.5,23.9,15.3,23.4z"/><polygon fill="#F6D341" points="19.2 20.6 23.9 17.9 21.8 16.7 17.1 19.4"/><polygon fill="#D1A62D" points="19.2 28.6 23.9 25.8 23.9 17.9 19.2 20.6"/><path fill="#F6D341" d="M21.8,16.7l-4.7,2.7c-1.2-4.7-4.2-9.3-7.7-11.3C7.2,6.9,5.3,6.8,3.8,7.7l4.7-2.7
					c1.5-0.9,3.4-0.8,5.6,0.5C17.6,7.4,20.6,12,21.8,16.7z"/><path fill="#EBC143" d="M17.1,19.4l2.1,1.2l0,8l-2.1-1.2c-1.2,3.3-4.3,4.4-7.8,2.4C4.7,27.1,1,20.1,1,14.1c0-6,3.8-8.7,8.4-6
					C12.9,10.1,15.9,14.7,17.1,19.4z M7.8,26c2.7,1.6,4.9-0.7,4.9-5.1c0-4.4-2.2-9.2-4.9-10.8c-2.7-1.6-4.9,0.7-4.9,5.1
					C2.9,19.6,5.1,24.4,7.8,26"/><g><path fill="#F6D341" d="M23.3,21.1c-0.3-0.2-0.7-0.2-1.1,0c-0.1,0-0.2,0.1-0.3,0.1c-1,0.6-1.8,1.9-2,3.1
				c-0.1,0.8,0.1,1.4,0.6,1.6l25.1,14.6c-0.4-0.2-0.7-0.8-0.6-1.6c0.1-1.2,1-2.5,2-3.1c0.1-0.1,0.2-0.1,0.3-0.1
				c0.4-0.2,0.8-0.2,1.1,0L23.3,21.1z"/><path fill="#D1A62D" d="M47,35.8c0.1-0.1,0.2-0.1,0.3-0.1c1.1-0.4,1.8,0.3,1.7,1.6c-0.1,1.2-1,2.5-2,3.1
					c-0.1,0.1-0.2,0.1-0.3,0.1c-1.1,0.4-1.8-0.3-1.7-1.6C45.2,37.7,46,36.4,47,35.8z"/></g></svg>