<svg xmlns="http://www.w3.org/2000/svg" enable-background="new 0 0 50 50" viewBox="0 0 50 50"><path fill="#9257A2" d="M30.1,13c0,1.3,0,3.1,0,4.5c0-0.7-0.5-1.4-1.4-2c-1.9-1.1-5-1.1-6.8,0c-0.9,0.6-1.4,1.3-1.4,2l0-4.5
				c0-0.7,0.5-1.4,1.4-2c1.9-1.1,4.9-1.1,6.8,0C29.7,11.5,30.1,12.3,30.1,13z"/><path fill="#CC8B4F" d="M38.6,14.2l0,4.5c0,2.1-1.6,2.7-1.6,5.4c0.2-3.8-0.5-5.3,0.9-7.6C38.3,15.7,38.6,14.9,38.6,14.2z"/><path fill="#794499" d="M28.7,13.2c1.9,1.1,1.9,2.9,0,4c-1.9,1.1-4.9,1.1-6.8,0c-1.9-1.1-1.9-2.9,0-4
				C23.8,12.1,26.8,12.1,28.7,13.2z"/><path fill="#FBBE43" d="M16.9,26.2l0,4.5c0-0.7-0.5-1.4-1.4-2c-1.9-1.1-4.9-1.1-6.8,0c-0.9,0.5-1.4,1.3-1.4,2l0-4.5
				c0-0.7,0.5-1.4,1.4-2c1.9-1.1,4.9-1.1,6.8,0C16.4,24.8,16.9,25.5,16.9,26.2z"/><path fill="#E99623" d="M15.4,26.5c1.9,1.1,1.9,2.9,0,4c-1.9,1.1-4.9,1.1-6.8,0c-1.9-1.1-1.9-2.9,0-4
				C10.5,25.4,13.5,25.4,15.4,26.5z"/><path fill="#EF5A5A" d="M42.1,32.2l0,4.5c0-0.7-0.5-1.4-1.4-2c-1.9-1.1-5-1.1-6.8,0c-0.9,0.5-1.4,1.3-1.4,2l0-4.5
				c0-0.7,0.5-1.4,1.4-2c1.9-1.1,4.9-1.1,6.8,0C41.6,30.8,42.1,31.5,42.1,32.2z"/><path fill="#BC2B3B" d="M40.7,32.4c1.9,1.1,1.9,2.9,0,4c-1.9,1.1-4.9,1.1-6.8,0c-1.9-1.1-1.9-2.9,0-4
				C35.7,31.3,38.8,31.3,40.7,32.4z"/><path fill="#7BD3F7" d="M27.4,32.8l0,4.5c0-0.7-0.5-1.4-1.4-2c-1.9-1.1-5-1.1-6.8,0c-0.9,0.6-1.4,1.3-1.4,2l0-4.5
				c0-0.7,0.5-1.4,1.4-2c1.9-1.1,4.9-1.1,6.8,0C26.9,31.3,27.4,32.1,27.4,32.8z"/><path fill="#14A0DB" d="M26,33c1.9,1.1,1.9,2.9,0,4c-1.9,1.1-4.9,1.1-6.8,0c-1.9-1.1-1.9-2.9,0-4C21,31.9,24.1,31.9,26,33z"/><path fill="#80BC41" d="M16.9,17.3l0,4.5c0-0.7-0.5-1.4-1.4-2c-1.9-1.1-5-1.1-6.8,0c-0.9,0.5-1.4,1.3-1.4,2l0-4.5
				c0-0.7,0.5-1.4,1.4-2c1.9-1.1,4.9-1.1,6.8,0C16.4,15.8,16.9,16.5,16.9,17.3z"/><path fill="#589441" d="M15.5,17.5c1.9,1.1,1.9,2.9,0,4c-1.9,1.1-4.9,1.1-6.8,0c-1.9-1.1-1.9-2.9,0-4
				C10.5,16.4,13.6,16.4,15.5,17.5z"/><path fill="#F7D3B3" d="M47.5,33.3c-9.7,6-26.2,6.6-37,1.2c-0.5-0.3-1.1-0.5-1.6-0.8c-10.5-6.1-10.6-15.9-0.1-22
				C13.5,9,19.5,7.5,25.6,7.3c3.7-0.2,7,0.6,9.4,2c3.1,1.8,4.5,4.5,2.9,7.2c-2.7,4.5,0.9,8.8,5.8,10.9c3.1,1.4,3.2,1.4,3.7,1.6
				c2,1.1,2.2,3,0.3,4.2L47.5,33.3z M28.7,11c-1.9-1.1-5-1.1-6.8,0c-1.9,1.1-1.9,2.9,0,4c1.9,1.1,5,1.1,6.8,0
				C30.6,13.9,30.6,12.1,28.7,11 M19.2,34.7c1.9,1.1,5,1.1,6.8,0c1.9-1.1,1.9-2.9,0-4c-1.9-1.1-5-1.1-6.8,0
				C17.3,31.9,17.3,33.7,19.2,34.7 M33.8,34.2c1.9,1.1,5,1.1,6.8,0c1.9-1.1,1.9-2.9,0-4c-1.9-1.1-5-1.1-6.8,0
				C31.9,31.3,31.9,33.1,33.8,34.2 M8.6,28.2c1.9,1.1,5,1.1,6.8,0c1.9-1.1,1.9-2.9,0-4c-1.9-1.1-4.9-1.1-6.8,0
				C6.7,25.3,6.7,27.1,8.6,28.2 M8.6,19.2c1.9,1.1,5,1.1,6.8,0c1.9-1.1,1.9-2.9,0-4c-1.9-1.1-5-1.1-6.8,0
				C6.7,16.4,6.7,18.1,8.6,19.2"/><path fill="#CC8B4F" d="M47.7,33.2l-0.2,0.1c-9.7,6-26.2,6.6-37,1.2c-0.5-0.3-1.1-0.5-1.6-0.8C3.6,30.7,1,26.7,1,22.7l0,4.5
			C1,41.4,31.2,48,47.5,37.8l0.2-0.1c0.9-0.6,1.3-1.3,1.3-2l0-4.5C49,31.9,48.6,32.7,47.7,33.2z"/></svg>